<svg version="1.1" viewBox="0.0 0.0 875.1469816272966 274.4146981627297" fill="none" stroke="none" stroke-linecap="square" stroke-miterlimit="10" xmlns:xlink="http://www.w3.org/1999/xlink" xmlns="http://www.w3.org/2000/svg"><clipPath id="p.0"><path d="m0 0l875.147 0l0 274.4147l-875.147 0l0 -274.4147z" clip-rule="nonzero"/></clipPath><g clip-path="url(#p.0)"><path fill="#000000" fill-opacity="0.0" d="m0 0l875.147 0l0 274.4147l-875.147 0z" fill-rule="evenodd"/><path fill="#93c47d" d="m129.06566 132.70024l0 0c0 -5.618561 4.5547333 -10.173294 10.173294 -10.173294l94.177124 0c2.69812 0 5.285736 1.0718231 7.1936035 2.979683c1.9078674 1.9078674 2.9796906 4.495476 2.9796906 7.193611l0 40.691956c0 5.6185455 -4.5547333 10.173294 -10.173294 10.173294l-94.177124 0c-5.618561 0 -10.173294 -4.5547485 -10.173294 -10.173294z" fill-rule="evenodd"/><path stroke="#000000" stroke-width="1.0" stroke-linejoin="round" stroke-linecap="butt" d="m129.06566 132.70024l0 0c0 -5.618561 4.5547333 -10.173294 10.173294 -10.173294l94.177124 0c2.69812 0 5.285736 1.0718231 7.1936035 2.979683c1.9078674 1.9078674 2.9796906 4.495476 2.9796906 7.193611l0 40.691956c0 5.6185455 -4.5547333 10.173294 -10.173294 10.173294l-94.177124 0c-5.618561 0 -10.173294 -4.5547485 -10.173294 -10.173294z" fill-rule="evenodd"/><path fill="#000000" d="m168.7946 160.16934q-0.8125 0 -1.46875 -0.28125q-0.640625 -0.28125 -1.171875 -0.8125q-0.53125 -0.53125 -1.0 -1.296875l0.0625 -1.1875q0.484375 0.796875 1.015625 1.359375q0.53125 0.546875 1.125 0.8125q0.609375 0.265625 1.359375 0.265625q0.734375 0 1.28125 -0.265625q0.546875 -0.265625 0.90625 -0.796875q0.375 -0.53125 0.546875 -1.296875q0.1875 -0.765625 0.1875 -1.765625q0 -0.96875 -0.171875 -1.703125q-0.15625 -0.734375 -0.5 -1.25q-0.34375 -0.515625 -0.875 -0.765625q-0.53125 -0.265625 -1.265625 -0.265625q-0.78125 0 -1.421875 0.28125q-0.625 0.265625 -1.171875 0.8125q-0.53125 0.53125 -1.046875 1.375l-0.03125 -1.140625q0.5 -0.78125 1.046875 -1.34375q0.5625 -0.5625 1.234375 -0.84375q0.671875 -0.296875 1.546875 -0.296875q1.390625 0 2.375 0.65625q1.0 0.640625 1.515625 1.796875q0.53125 1.140625 0.53125 2.6875q0 1.53125 -0.5625 2.71875q-0.546875 1.1875 -1.578125 1.875q-1.015625 0.671875 -2.46875 0.671875zm-4.953125 -12.5q0 -0.28125 -0.15625 -0.421875q-0.15625 -0.140625 -0.484375 -0.234375q-0.3125 -0.09375 -0.8125 -0.1875l-0.1875 -0.03125l0 -0.96875l3.3125 0l0 11.890625l-0.09375 0.125l-0.453125 2.34375l-1.125 0l0 -12.515625zm13.562195 0.21875q-0.53125 0 -0.875 -0.296875q-0.328125 -0.296875 -0.328125 -0.890625q0 -0.578125 0.328125 -0.875q0.34375 -0.296875 0.875 -0.296875q0.53125 0 0.875 0.296875q0.34375 0.296875 0.34375 0.875q0 0.59375 -0.34375 0.890625q-0.34375 0.296875 -0.875 0.296875zm0.953125 2.0625l0 8.171875q0 0.578125 0.421875 0.765625q0.4375 0.1875 1.171875 0.1875l0.046875 0l0 0.890625l-4.921875 0l0 -0.890625l0.0625 0q0.71875 0 1.140625 -0.1875q0.4375 -0.1875 0.4375 -0.765625l0 -6.328125q0 -0.40625 -0.359375 -0.546875q-0.34375 -0.140625 -1.09375 -0.296875l-0.1875 -0.03125l0 -0.96875l3.28125 0zm9.999847 -0.140625l0 1.796875q-0.125 -0.03125 -0.3125 -0.046875q-0.1875 -0.03125 -0.390625 -0.046875q-0.1875 -0.015625 -0.375 -0.015625q-0.515625 0 -0.9375 0.109375q-0.40625 0.09375 -0.75 0.3125q-0.34375 0.21875 -0.65625 0.5625q-0.3125 0.328125 -0.65625 0.8125l0 -0.859375q0.46875 -0.875 0.953125 -1.46875q0.5 -0.609375 1.09375 -0.90625q0.59375 -0.3125 1.34375 -0.3125q0.21875 0 0.421875 0.015625q0.203125 0.015625 0.265625 0.046875zm-7.03125 10.15625l0 -0.890625l0.0625 0q0.71875 0 1.140625 -0.203125q0.421875 -0.21875 0.421875 -0.84375l0 -6.234375q0 -0.28125 -0.15625 -0.421875q-0.15625 -0.140625 -0.484375 -0.234375q-0.3125 -0.09375 -0.796875 -0.1875l-0.1875 -0.03125l0 -0.96875l2.984375 0l0.234375 2.5l0.0625 -0.078125l0 6.28125q0 0.171875 0.265625 0.265625q0.265625 0.09375 0.609375 0.125q0.359375 0.03125 0.625 0.03125l0.40625 0l0 0.890625l-5.1875 0zm17.877472 -1.734375q0 0.40625 0.421875 0.546875q0.421875 0.125 1.109375 0.203125l0.09375 0.015625l0 0.96875l-2.984375 0l-0.234375 -2.1875l-0.0625 -0.015625l0 -10.09375q0 -0.28125 -0.171875 -0.421875q-0.15625 -0.140625 -0.484375 -0.234375q-0.328125 -0.09375 -0.828125 -0.1875l-0.1875 -0.03125l0 -0.96875l3.328125 0l0 12.40625zm-4.953125 -8.46875q0.828125 0 1.46875 0.28125q0.640625 0.28125 1.171875 0.8125q0.53125 0.515625 0.984375 1.296875l-0.0625 1.234375q-0.453125 -0.84375 -0.984375 -1.390625q-0.515625 -0.5625 -1.125 -0.8125q-0.609375 -0.265625 -1.359375 -0.265625q-0.71875 0 -1.28125 0.28125q-0.5625 0.265625 -0.9375 0.78125q-0.375 0.515625 -0.5625 1.296875q-0.171875 0.78125 -0.171875 1.765625q0 0.953125 0.171875 1.703125q0.171875 0.734375 0.515625 1.25q0.34375 0.515625 0.890625 0.78125q0.546875 0.25 1.265625 0.25q0.78125 0 1.421875 -0.265625q0.640625 -0.265625 1.171875 -0.8125q0.546875 -0.5625 1.03125 -1.375l0.015625 1.140625q-0.484375 0.78125 -1.03125 1.328125q-0.53125 0.546875 -1.21875 0.84375q-0.671875 0.28125 -1.53125 0.28125q-1.421875 0 -2.421875 -0.640625q-0.984375 -0.640625 -1.515625 -1.796875q-0.53125 -1.15625 -0.53125 -2.6875q0 -1.546875 0.546875 -2.734375q0.5625 -1.1875 1.59375 -1.859375q1.046875 -0.6875 2.484375 -0.6875zm14.196289 7.578125q0 -0.453125 -0.21875 -0.75q-0.203125 -0.296875 -0.578125 -0.484375q-0.375 -0.1875 -0.859375 -0.3125q-0.46875 -0.125 -0.96875 -0.234375q-0.609375 -0.140625 -1.21875 -0.328125q-0.59375 -0.1875 -1.078125 -0.5q-0.484375 -0.328125 -0.78125 -0.828125q-0.28125 -0.515625 -0.28125 -1.28125q0 -0.859375 0.421875 -1.5q0.4375 -0.65625 1.25 -1.0q0.828125 -0.359375 1.984375 -0.359375q0.921875 0 1.59375 0.109375q0.6875 0.109375 1.140625 0.265625q0.453125 0.140625 0.6875 0.28125l0 2.34375l-1.640625 0l0 -1.9375q0.1875 0 0.328125 0.0625q0.140625 0.046875 0.21875 0.15625q0.078125 0.09375 0.125 0.265625q0.046875 0.171875 0.03125 0.375q-0.21875 -0.265625 -0.59375 -0.453125q-0.375 -0.1875 -0.859375 -0.265625q-0.46875 -0.078125 -1.03125 -0.078125q-1.09375 0 -1.609375 0.40625q-0.515625 0.40625 -0.515625 1.109375q0 0.46875 0.21875 0.765625q0.21875 0.296875 0.578125 0.484375q0.375 0.1875 0.875 0.328125q0.5 0.140625 1.03125 0.25q0.59375 0.140625 1.1875 0.34375q0.609375 0.1875 1.078125 0.5q0.484375 0.3125 0.765625 0.828125q0.296875 0.5 0.296875 1.265625q0 0.875 -0.453125 1.5625q-0.453125 0.671875 -1.328125 1.0625q-0.875 0.375 -2.15625 0.375q-0.9375 0 -1.671875 -0.125q-0.734375 -0.109375 -1.3125 -0.328125q-0.5625 -0.21875 -0.96875 -0.453125l0 -2.453125l1.671875 0l0 2.578125q-0.296875 -0.15625 -0.453125 -0.296875q-0.15625 -0.15625 -0.21875 -0.296875q-0.046875 -0.15625 -0.046875 -0.3125q0 -0.171875 0.03125 -0.34375q0.296875 0.28125 0.734375 0.484375q0.4375 0.203125 1.0 0.328125q0.5625 0.125 1.234375 0.125q0.78125 0 1.296875 -0.1875q0.53125 -0.203125 0.796875 -0.578125q0.265625 -0.390625 0.265625 -0.96875z" fill-rule="nonzero"/><path fill="#93c47d" d="m254.53885 132.70024l0 0c0 -5.618561 4.5547485 -10.173294 10.173279 -10.173294l94.177124 0c2.6981506 0 5.2857666 1.0718231 7.1936035 2.979683c1.9078674 1.9078674 2.9797058 4.495476 2.9797058 7.193611l0 40.691956c0 5.6185455 -4.5547485 10.173294 -10.173309 10.173294l-94.177124 0c-5.6185303 0 -10.173279 -4.5547485 -10.173279 -10.173294z" fill-rule="evenodd"/><path stroke="#000000" stroke-width="1.0" stroke-linejoin="round" stroke-linecap="butt" d="m254.53885 132.70024l0 0c0 -5.618561 4.5547485 -10.173294 10.173279 -10.173294l94.177124 0c2.6981506 0 5.2857666 1.0718231 7.1936035 2.979683c1.9078674 1.9078674 2.9797058 4.495476 2.9797058 7.193611l0 40.691956c0 5.6185455 -4.5547485 10.173294 -10.173309 10.173294l-94.177124 0c-5.6185303 0 -10.173279 -4.5547485 -10.173279 -10.173294z" fill-rule="evenodd"/><path fill="#000000" d="m304.48816 153.87247l0 0.984375q-1.140625 0.140625 -1.96875 0.328125q-0.8125 0.1875 -1.359375 0.421875q-0.53125 0.21875 -0.859375 0.5q-0.3125 0.28125 -0.453125 0.640625q-0.125 0.34375 -0.125 0.75q0 0.53125 0.21875 0.890625q0.21875 0.34375 0.609375 0.53125q0.390625 0.171875 0.921875 0.171875q0.59375 0 1.09375 -0.28125q0.5 -0.28125 0.96875 -0.84375q0.46875 -0.5625 0.921875 -1.390625l0.015625 1.09375q-0.375 0.765625 -0.875 1.328125q-0.484375 0.5625 -1.109375 0.875q-0.625 0.296875 -1.421875 0.296875q-0.890625 0 -1.578125 -0.296875q-0.6875 -0.3125 -1.078125 -0.90625q-0.390625 -0.609375 -0.390625 -1.4375q0 -0.796875 0.34375 -1.375q0.359375 -0.578125 1.125 -1.0q0.78125 -0.4375 2.015625 -0.75q1.234375 -0.3125 2.984375 -0.53125zm-0.03125 6.09375l-0.234375 -2.171875l-0.09375 -0.109375l0 -4.859375q0 -0.71875 -0.1875 -1.140625q-0.1875 -0.4375 -0.625 -0.609375q-0.4375 -0.1875 -1.171875 -0.1875q-1.125 0 -1.84375 0.3125q-0.703125 0.3125 -1.0625 0.671875q0 -0.15625 0.078125 -0.3125q0.078125 -0.15625 0.203125 -0.296875q0.140625 -0.140625 0.3125 -0.234375q0.171875 -0.09375 0.40625 -0.125l0 2.15625l-1.640625 0l0 -2.265625q0.25 -0.21875 0.75 -0.4375q0.5 -0.234375 1.21875 -0.40625q0.734375 -0.1875 1.640625 -0.1875q0.75 0 1.40625 0.15625q0.65625 0.140625 1.140625 0.484375q0.484375 0.328125 0.765625 0.875q0.28125 0.53125 0.28125 1.3125l0 5.640625q0 0.265625 0.171875 0.421875q0.1875 0.140625 0.515625 0.203125q0.34375 0.0625 0.828125 0.125l0.09375 0.015625l0 0.96875l-2.953125 0zm11.126617 -10.15625l0 1.796875q-0.125 -0.03125 -0.3125 -0.046875q-0.1875 -0.03125 -0.390625 -0.046875q-0.1875 -0.015625 -0.375 -0.015625q-0.515625 0 -0.9375 0.109375q-0.40625 0.09375 -0.75 0.3125q-0.34375 0.21875 -0.65625 0.5625q-0.3125 0.328125 -0.65625 0.8125l0 -0.859375q0.46875 -0.875 0.953125 -1.46875q0.5 -0.609375 1.09375 -0.90625q0.59375 -0.3125 1.34375 -0.3125q0.21875 0 0.421875 0.015625q0.203125 0.015625 0.265625 0.046875zm-7.03125 10.15625l0 -0.890625l0.0625 0q0.71875 0 1.140625 -0.203125q0.421875 -0.21875 0.421875 -0.84375l0 -6.234375q0 -0.28125 -0.15625 -0.421875q-0.15625 -0.140625 -0.484375 -0.234375q-0.3125 -0.09375 -0.796875 -0.1875l-0.1875 -0.03125l0 -0.96875l2.984375 0l0.234375 2.5l0.0625 -0.078125l0 6.28125q0 0.171875 0.265625 0.265625q0.265625 0.09375 0.609375 0.125q0.359375 0.03125 0.625 0.03125l0.40625 0l0 0.890625l-5.1875 0zm10.002472 -4.90625q0 1.078125 0.25 1.84375q0.25 0.765625 0.71875 1.234375q0.46875 0.46875 1.078125 0.6875q0.609375 0.21875 1.3125 0.21875q0.78125 0 1.359375 -0.265625q0.578125 -0.28125 1.0 -0.703125q0.421875 -0.4375 0.71875 -0.921875l0.890625 0.71875q-0.34375 0.65625 -0.9375 1.1875q-0.578125 0.53125 -1.359375 0.828125q-0.765625 0.28125 -1.71875 0.28125q-1.40625 0 -2.546875 -0.59375q-1.140625 -0.59375 -1.8125 -1.75q-0.65625 -1.15625 -0.65625 -2.78125q0 -1.59375 0.609375 -2.765625q0.609375 -1.1875 1.65625 -1.84375q1.0625 -0.671875 2.421875 -0.671875q1.09375 0 1.890625 0.359375q0.8125 0.34375 1.34375 1.0625q0.546875 0.703125 0.828125 1.765625q0.28125 1.0625 0.28125 2.484375l-7.71875 0l0 -1.078125l6.484375 0l-0.484375 0.40625q-0.03125 -1.0625 -0.1875 -1.796875q-0.15625 -0.75 -0.46875 -1.203125q-0.3125 -0.453125 -0.796875 -0.65625q-0.484375 -0.203125 -1.171875 -0.203125q-0.65625 0 -1.203125 0.25q-0.546875 0.25 -0.953125 0.78125q-0.40625 0.515625 -0.625 1.296875q-0.203125 0.78125 -0.203125 1.828125z" fill-rule="nonzero"/><path fill="#93c47d" d="m630.9584 132.70024l0 0c0 -5.618561 4.5547485 -10.173294 10.17334 -10.173294l94.177124 0c2.69812 0 5.2857056 1.0718231 7.1936035 2.979683c1.9078369 1.9078674 2.9796753 4.495476 2.9796753 7.193611l0 40.691956c0 5.6185455 -4.5547485 10.173294 -10.173279 10.173294l-94.177124 0c-5.6185913 0 -10.17334 -4.5547485 -10.17334 -10.173294z" fill-rule="evenodd"/><path stroke="#000000" stroke-width="1.0" stroke-linejoin="round" stroke-linecap="butt" d="m630.9584 132.70024l0 0c0 -5.618561 4.5547485 -10.173294 10.17334 -10.173294l94.177124 0c2.69812 0 5.2857056 1.0718231 7.1936035 2.979683c1.9078369 1.9078674 2.9796753 4.495476 2.9796753 7.193611l0 40.691956c0 5.6185455 -4.5547485 10.173294 -10.173279 10.173294l-94.177124 0c-5.6185913 0 -10.17334 -4.5547485 -10.17334 -10.173294z" fill-rule="evenodd"/><path fill="#000000" d="m672.8426 151.05997l0 -1.015625l0.203125 0q0.625 0 1.046875 -0.078125q0.4375 -0.09375 0.65625 -0.34375q0.21875 -0.265625 0.21875 -0.796875l1.203125 1.125l3.5625 0l0 1.109375l-6.890625 0zm3.65625 5.859375q0 0.796875 0.21875 1.25q0.21875 0.4375 0.640625 0.625q0.4375 0.1875 1.046875 0.1875q0.484375 0 0.890625 -0.0625q0.40625 -0.078125 0.5625 -0.109375l0 1.125q-0.1875 0.046875 -0.46875 0.09375q-0.28125 0.0625 -0.578125 0.09375q-0.296875 0.046875 -0.625 0.046875q-0.875 0 -1.640625 -0.25q-0.765625 -0.265625 -1.25 -0.96875q-0.46875 -0.703125 -0.46875 -2.0l0 -6.71875l0.140625 -0.15625l0 -2.984375l1.53125 0l0 9.828125zm8.103821 -11.09375l0 13.0625q0 0.046875 0.21875 0.09375q0.234375 0.046875 0.546875 0.078125q0.328125 0.015625 0.578125 0.015625l0.078125 0l0 0.890625l-4.71875 0l0 -0.890625l0.0625 0q0.484375 0 0.828125 -0.078125q0.359375 -0.09375 0.546875 -0.328125q0.203125 -0.234375 0.203125 -0.640625l0 -10.359375q0 -0.28125 -0.15625 -0.421875q-0.15625 -0.140625 -0.484375 -0.234375q-0.3125 -0.09375 -0.8125 -0.1875l-0.1875 -0.03125l0 -0.96875l3.296875 0zm8.03125 14.140625l-4.71875 0l0 -0.890625l0.078125 0q0.25 0 0.5625 -0.015625q0.328125 -0.03125 0.546875 -0.078125q0.234375 -0.046875 0.234375 -0.09375l0 -6.109375q0 -0.609375 -0.15625 -1.0q-0.15625 -0.390625 -0.515625 -0.578125q-0.34375 -0.203125 -0.953125 -0.203125q-0.625 0 -1.21875 0.25q-0.578125 0.234375 -1.125 0.71875q-0.546875 0.484375 -1.109375 1.234375l0 -1.0q0.53125 -0.796875 1.125 -1.328125q0.609375 -0.546875 1.28125 -0.828125q0.6875 -0.28125 1.46875 -0.28125q0.921875 0 1.546875 0.3125q0.640625 0.296875 0.96875 0.921875q0.34375 0.625 0.34375 1.578125l0 5.453125q0 0.40625 0.1875 0.640625q0.203125 0.234375 0.546875 0.328125q0.359375 0.078125 0.84375 0.078125l0.0625 0l0 0.890625zm3.0773926 -4.90625q0 1.078125 0.25 1.84375q0.25 0.765625 0.71875 1.234375q0.46875 0.46875 1.078125 0.6875q0.609375 0.21875 1.3125 0.21875q0.78125 0 1.359375 -0.265625q0.578125 -0.28125 1.0 -0.703125q0.421875 -0.4375 0.71875 -0.921875l0.890625 0.71875q-0.34375 0.65625 -0.9375 1.1875q-0.578125 0.53125 -1.359375 0.828125q-0.765625 0.28125 -1.71875 0.28125q-1.40625 0 -2.546875 -0.59375q-1.140625 -0.59375 -1.8125 -1.75q-0.65625 -1.15625 -0.65625 -2.78125q0 -1.59375 0.609375 -2.765625q0.609375 -1.1875 1.65625 -1.84375q1.0625 -0.671875 2.421875 -0.671875q1.09375 0 1.890625 0.359375q0.8125 0.34375 1.34375 1.0625q0.546875 0.703125 0.828125 1.765625q0.28125 1.0625 0.28125 2.484375l-7.71875 0l0 -1.078125l6.484375 0l-0.484375 0.40625q-0.03125 -1.0625 -0.1875 -1.796875q-0.15625 -0.75 -0.46875 -1.203125q-0.3125 -0.453125 -0.796875 -0.65625q-0.484375 -0.203125 -1.171875 -0.203125q-0.65625 0 -1.203125 0.25q-0.546875 0.25 -0.953125 0.78125q-0.40625 0.515625 -0.625 1.296875q-0.203125 0.78125 -0.203125 1.828125z" fill-rule="nonzero"/><path fill="#93c47d" d="m505.48523 132.70024l0 0c0 -5.618561 4.554718 -10.173294 10.173279 -10.173294l94.177124 0c2.69812 0 5.2857666 1.0718231 7.1936035 2.979683c1.9078369 1.9078674 2.9796753 4.495476 2.9796753 7.193611l0 40.691956c0 5.6185455 -4.5547485 10.173294 -10.173279 10.173294l-94.177124 0c-5.618561 0 -10.173279 -4.5547485 -10.173279 -10.173294z" fill-rule="evenodd"/><path stroke="#000000" stroke-width="1.0" stroke-linejoin="round" stroke-linecap="butt" d="m505.48523 132.70024l0 0c0 -5.618561 4.554718 -10.173294 10.173279 -10.173294l94.177124 0c2.69812 0 5.2857666 1.0718231 7.1936035 2.979683c1.9078369 1.9078674 2.9796753 4.495476 2.9796753 7.193611l0 40.691956c0 5.6185455 -4.5547485 10.173294 -10.173279 10.173294l-94.177124 0c-5.618561 0 -10.173279 -4.5547485 -10.173279 -10.173294z" fill-rule="evenodd"/><path fill="#000000" d="m556.43506 147.88809q-0.53125 0 -0.875 -0.296875q-0.328125 -0.296875 -0.328125 -0.890625q0 -0.578125 0.328125 -0.875q0.34375 -0.296875 0.875 -0.296875q0.53125 0 0.875 0.296875q0.34375 0.296875 0.34375 0.875q0 0.59375 -0.34375 0.890625q-0.34375 0.296875 -0.875 0.296875zm0.953125 2.0625l0 8.171875q0 0.578125 0.421875 0.765625q0.4375 0.1875 1.171875 0.1875l0.046875 0l0 0.890625l-4.921875 0l0 -0.890625l0.0625 0q0.71875 0 1.140625 -0.1875q0.4375 -0.1875 0.4375 -0.765625l0 -6.328125q0 -0.40625 -0.359375 -0.546875q-0.34375 -0.140625 -1.09375 -0.296875l-0.1875 -0.03125l0 -0.96875l3.28125 0zm2.968567 10.015625l0 -0.890625l0.0625 0q0.484375 0 0.828125 -0.078125q0.359375 -0.09375 0.546875 -0.328125q0.1875 -0.234375 0.1875 -0.640625l0 -6.234375q0 -0.28125 -0.15625 -0.421875q-0.15625 -0.140625 -0.484375 -0.234375q-0.3125 -0.09375 -0.796875 -0.1875l-0.1875 -0.03125l0 -0.96875l2.984375 0l0.234375 2.125l0.0625 0.09375l0 6.71875q0 0.046875 0.21875 0.09375q0.234375 0.046875 0.546875 0.078125q0.328125 0.015625 0.578125 0.015625l0.078125 0l0 0.890625l-4.703125 0zm11.3125 0l-4.703125 0l0 -0.890625l0.046875 0q0.265625 0 0.578125 -0.015625q0.328125 -0.03125 0.5625 -0.078125q0.234375 -0.046875 0.234375 -0.09375l0 -6.109375q0 -0.609375 -0.171875 -1.0q-0.15625 -0.390625 -0.515625 -0.578125q-0.34375 -0.203125 -0.9375 -0.203125q-0.625 0 -1.21875 0.25q-0.578125 0.234375 -1.125 0.71875q-0.546875 0.484375 -1.109375 1.25l0 -1.015625q0.53125 -0.796875 1.125 -1.328125q0.609375 -0.546875 1.28125 -0.828125q0.6875 -0.28125 1.46875 -0.28125q0.921875 0 1.546875 0.3125q0.625 0.296875 0.96875 0.921875q0.34375 0.625 0.34375 1.578125l0 5.453125q0 0.40625 0.1875 0.640625q0.1875 0.234375 0.53125 0.328125q0.359375 0.078125 0.84375 0.078125l0.0625 0l0 0.890625z" fill-rule="nonzero"/><path fill="#93c47d" d="m756.4316 132.70024l0 0c0 -5.618561 4.5547485 -10.173294 10.173279 -10.173294l94.177124 0c2.69812 0 5.2857666 1.0718231 7.1936035 2.979683c1.907898 1.9078674 2.9797363 4.495476 2.9797363 7.193611l0 40.691956c0 5.6185455 -4.5547485 10.173294 -10.17334 10.173294l-94.177124 0c-5.6185303 0 -10.173279 -4.5547485 -10.173279 -10.173294z" fill-rule="evenodd"/><path stroke="#000000" stroke-width="1.0" stroke-linejoin="round" stroke-linecap="butt" d="m756.4316 132.70024l0 0c0 -5.618561 4.5547485 -10.173294 10.173279 -10.173294l94.177124 0c2.69812 0 5.2857666 1.0718231 7.1936035 2.979683c1.907898 1.9078674 2.9797363 4.495476 2.9797363 7.193611l0 40.691956c0 5.6185455 -4.5547485 10.173294 -10.17334 10.173294l-94.177124 0c-5.6185303 0 -10.173279 -4.5547485 -10.173279 -10.173294z" fill-rule="evenodd"/><path fill="#000000" d="m803.9565 157.34122q0 -0.453125 -0.21875 -0.75q-0.203125 -0.296875 -0.578125 -0.484375q-0.375 -0.1875 -0.859375 -0.3125q-0.46875 -0.125 -0.96875 -0.234375q-0.609375 -0.140625 -1.21875 -0.328125q-0.59375 -0.1875 -1.078125 -0.5q-0.484375 -0.328125 -0.78125 -0.828125q-0.28125 -0.515625 -0.28125 -1.28125q0 -0.859375 0.421875 -1.5q0.4375 -0.65625 1.25 -1.0q0.828125 -0.359375 1.984375 -0.359375q0.921875 0 1.59375 0.109375q0.6875 0.109375 1.140625 0.265625q0.453125 0.140625 0.6875 0.28125l0 2.34375l-1.640625 0l0 -1.9375q0.1875 0 0.328125 0.0625q0.140625 0.046875 0.21875 0.15625q0.078125 0.09375 0.125 0.265625q0.046875 0.171875 0.03125 0.375q-0.21875 -0.265625 -0.59375 -0.453125q-0.375 -0.1875 -0.859375 -0.265625q-0.46875 -0.078125 -1.03125 -0.078125q-1.09375 0 -1.609375 0.40625q-0.515625 0.40625 -0.515625 1.109375q0 0.46875 0.21875 0.765625q0.21875 0.296875 0.578125 0.484375q0.375 0.1875 0.875 0.328125q0.5 0.140625 1.03125 0.25q0.59375 0.140625 1.1875 0.34375q0.609375 0.1875 1.078125 0.5q0.484375 0.3125 0.765625 0.828125q0.296875 0.5 0.296875 1.265625q0 0.875 -0.453125 1.5625q-0.453125 0.671875 -1.328125 1.0625q-0.875 0.375 -2.15625 0.375q-0.9375 0 -1.671875 -0.125q-0.734375 -0.109375 -1.3125 -0.328125q-0.5625 -0.21875 -0.96875 -0.453125l0 -2.453125l1.671875 0l0 2.578125q-0.296875 -0.15625 -0.453125 -0.296875q-0.15625 -0.15625 -0.21875 -0.296875q-0.046875 -0.15625 -0.046875 -0.3125q0 -0.171875 0.03125 -0.34375q0.296875 0.28125 0.734375 0.484375q0.4375 0.203125 1.0 0.328125q0.5625 0.125 1.234375 0.125q0.78125 0 1.296875 -0.1875q0.53125 -0.203125 0.796875 -0.578125q0.265625 -0.390625 0.265625 -0.96875zm14.555054 2.625l-5.015625 0l0 -0.890625l0.09375 0q0.28125 0 0.578125 -0.015625q0.3125 -0.03125 0.53125 -0.078125q0.21875 -0.046875 0.21875 -0.09375l-3.75 -4.140625l0 -0.15625l3.546875 -3.453125q0 -0.109375 -0.265625 -0.171875q-0.265625 -0.0625 -0.625 -0.09375q-0.359375 -0.03125 -0.65625 -0.03125l-0.1875 0l0 -0.890625l4.90625 0l0 0.890625l-0.1875 0q-0.375 0 -0.71875 0.0625q-0.328125 0.0625 -0.625 0.25q-0.28125 0.171875 -0.59375 0.46875l-3.359375 3.265625l0.0625 -0.96875l4.09375 4.46875q0.265625 0.265625 0.53125 0.421875q0.265625 0.15625 0.578125 0.21875q0.328125 0.046875 0.703125 0.046875l0.140625 0l0 0.890625zm-8.0625 -14.140625l0 13.0625q0 0.046875 0.234375 0.09375q0.234375 0.046875 0.546875 0.078125q0.328125 0.015625 0.5625 0.015625l0.125 0l0 0.890625l-4.765625 0l0 -0.890625l0.0625 0q0.484375 0 0.828125 -0.078125q0.359375 -0.09375 0.546875 -0.328125q0.203125 -0.234375 0.203125 -0.640625l0 -10.359375q0 -0.28125 -0.15625 -0.421875q-0.15625 -0.140625 -0.484375 -0.234375q-0.3125 -0.09375 -0.8125 -0.1875l-0.1875 -0.03125l0 -0.96875l3.296875 0zm14.797424 13.3125l-0.203125 0.703125l-0.90625 0.546875l-3.625 -8.828125q-0.109375 -0.265625 -0.3125 -0.390625q-0.1875 -0.140625 -0.484375 -0.1875q-0.28125 -0.046875 -0.671875 -0.046875l-0.109375 0l0 -0.984375l4.765625 0l0 0.984375l-0.09375 0q-0.375 0 -0.734375 0.015625q-0.359375 0 -0.59375 0.03125q-0.234375 0.03125 -0.234375 0.109375l3.203125 8.046875zm0.265625 0.515625q-0.515625 1.265625 -1.03125 2.15625q-0.5 0.90625 -1.03125 1.4375q-0.53125 0.546875 -1.15625 0.796875q-0.609375 0.25 -1.390625 0.25q-0.5 0 -0.890625 -0.109375q-0.390625 -0.09375 -0.59375 -0.21875l0 -1.5q0.046875 0.015625 0.265625 0.09375q0.21875 0.09375 0.53125 0.15625q0.328125 0.078125 0.71875 0.078125q0.46875 0 0.90625 -0.125q0.4375 -0.125 0.875 -0.515625q0.453125 -0.390625 0.890625 -1.171875q0.453125 -0.765625 0.921875 -2.015625l0.140625 -0.328125l2.9375 -7.3125q0 -0.125 -0.234375 -0.203125q-0.21875 -0.09375 -0.578125 -0.140625q-0.34375 -0.046875 -0.71875 -0.046875l-0.09375 0l0 -0.984375l4.375 0l0 0.984375l-0.109375 0q-0.3125 0 -0.609375 0.0625q-0.28125 0.0625 -0.515625 0.25q-0.234375 0.1875 -0.375 0.5625l-3.234375 7.84375z" fill-rule="nonzero"/><path fill="#ff0000" d="m380.01074 132.70024l0 0c0 -5.618561 4.5547485 -10.173294 10.173279 -10.173294l94.177124 0c2.6981506 0 5.2857666 1.0718231 7.1936035 2.979683c1.9078674 1.9078674 2.9797058 4.495476 2.9797058 7.193611l0 40.691956c0 5.6185455 -4.5547485 10.173294 -10.173309 10.173294l-94.177124 0c-5.6185303 0 -10.173279 -4.5547485 -10.173279 -10.173294z" fill-rule="evenodd"/><path stroke="#000000" stroke-width="1.0" stroke-linejoin="round" stroke-linecap="butt" d="m380.01074 132.70024l0 0c0 -5.618561 4.5547485 -10.173294 10.173279 -10.173294l94.177124 0c2.6981506 0 5.2857666 1.0718231 7.1936035 2.979683c1.9078674 1.9078674 2.9797058 4.495476 2.9797058 7.193611l0 40.691956c0 5.6185455 -4.5547485 10.173294 -10.173309 10.173294l-94.177124 0c-5.6185303 0 -10.173279 -4.5547485 -10.173279 -10.173294z" fill-rule="evenodd"/><path fill="#000000" d="m410.06644 149.95059l6.515625 0l0 1.109375l-6.515625 0l0 -1.109375zm7.25 10.015625l0 -0.890625l0.203125 0q0.296875 0 0.625 -0.015625q0.34375 -0.03125 0.578125 -0.078125q0.234375 -0.046875 0.234375 -0.09375l0 -12.0l-1.421875 -1.0625l3.078125 0l0 12.203125q0 0.625 0.421875 0.84375q0.421875 0.203125 1.140625 0.203125l0.0625 0l0 0.890625l-4.921875 0zm-1.4375 0l-5.75 0l0 -0.890625l0.3125 0q0.8125 0 1.25 -0.203125q0.4375 -0.21875 0.4375 -0.84375l0 -9.25q0 -0.9375 0.3125 -1.5625q0.3125 -0.625 0.859375 -0.96875q0.5625 -0.359375 1.28125 -0.515625q0.734375 -0.15625 1.546875 -0.15625q0.734375 0 1.34375 0.125q0.625 0.125 1.09375 0.34375q0.484375 0.203125 0.765625 0.484375l-0.046875 1.203125q-0.328125 -0.34375 -0.8125 -0.546875q-0.46875 -0.21875 -1.0625 -0.328125q-0.578125 -0.125 -1.296875 -0.125q-0.765625 0 -1.28125 0.1875q-0.5 0.1875 -0.78125 0.65625q-0.265625 0.453125 -0.265625 1.296875l0 10.015625q0 0.046875 0.25 0.09375q0.25 0.046875 0.625 0.078125q0.390625 0.015625 0.765625 0.015625l0.453125 0l0 0.890625zm13.404266 -0.828125l-0.203125 0.703125l-0.90625 0.546875l-3.625 -8.828125q-0.109375 -0.265625 -0.3125 -0.390625q-0.1875 -0.140625 -0.484375 -0.1875q-0.28125 -0.046875 -0.671875 -0.046875l-0.109375 0l0 -0.984375l4.765625 0l0 0.984375l-0.09375 0q-0.375 0 -0.734375 0.015625q-0.359375 0 -0.59375 0.03125q-0.234375 0.03125 -0.234375 0.109375l3.203125 8.046875zm0.265625 0.515625q-0.515625 1.265625 -1.03125 2.15625q-0.5 0.90625 -1.03125 1.4375q-0.53125 0.546875 -1.15625 0.796875q-0.609375 0.25 -1.390625 0.25q-0.5 0 -0.890625 -0.109375q-0.390625 -0.09375 -0.59375 -0.21875l0 -1.5q0.046875 0.015625 0.265625 0.09375q0.21875 0.09375 0.53125 0.15625q0.328125 0.078125 0.71875 0.078125q0.46875 0 0.90625 -0.125q0.4375 -0.125 0.875 -0.515625q0.453125 -0.390625 0.890625 -1.171875q0.453125 -0.765625 0.921875 -2.015625l0.140625 -0.328125l2.9375 -7.3125q0 -0.125 -0.234375 -0.203125q-0.21875 -0.09375 -0.578125 -0.140625q-0.34375 -0.046875 -0.71875 -0.046875l-0.09375 0l0 -0.984375l4.375 0l0 0.984375l-0.109375 0q-0.3125 0 -0.609375 0.0625q-0.28125 0.0625 -0.515625 0.25q-0.234375 0.1875 -0.375 0.5625l-3.234375 7.84375zm8.18396 -11.765625q-0.53125 0 -0.875 -0.296875q-0.328125 -0.296875 -0.328125 -0.890625q0 -0.578125 0.328125 -0.875q0.34375 -0.296875 0.875 -0.296875q0.53125 0 0.875 0.296875q0.34375 0.296875 0.34375 0.875q0 0.59375 -0.34375 0.890625q-0.34375 0.296875 -0.875 0.296875zm0.953125 2.0625l0 8.171875q0 0.578125 0.421875 0.765625q0.4375 0.1875 1.171875 0.1875l0.046875 0l0 0.890625l-4.921875 0l0 -0.890625l0.0625 0q0.71875 0 1.140625 -0.1875q0.4375 -0.1875 0.4375 -0.765625l0 -6.328125q0 -0.40625 -0.359375 -0.546875q-0.34375 -0.140625 -1.09375 -0.296875l-0.1875 -0.03125l0 -0.96875l3.28125 0zm2.9685974 10.015625l0 -0.890625l0.0625 0q0.484375 0 0.828125 -0.078125q0.359375 -0.09375 0.546875 -0.328125q0.1875 -0.234375 0.1875 -0.640625l0 -6.234375q0 -0.28125 -0.15625 -0.421875q-0.15625 -0.140625 -0.484375 -0.234375q-0.3125 -0.09375 -0.796875 -0.1875l-0.1875 -0.03125l0 -0.96875l2.984375 0l0.234375 2.125l0.0625 0.09375l0 6.71875q0 0.046875 0.21875 0.09375q0.234375 0.046875 0.546875 0.078125q0.328125 0.015625 0.578125 0.015625l0.078125 0l0 0.890625l-4.703125 0zm11.3125 0l-4.703125 0l0 -0.890625l0.046875 0q0.265625 0 0.578125 -0.015625q0.328125 -0.03125 0.5625 -0.078125q0.234375 -0.046875 0.234375 -0.09375l0 -6.109375q0 -0.609375 -0.171875 -1.0q-0.15625 -0.390625 -0.515625 -0.578125q-0.34375 -0.203125 -0.9375 -0.203125q-0.625 0 -1.21875 0.25q-0.578125 0.234375 -1.125 0.71875q-0.546875 0.484375 -1.109375 1.25l0 -1.015625q0.53125 -0.796875 1.125 -1.328125q0.609375 -0.546875 1.28125 -0.828125q0.6875 -0.28125 1.46875 -0.28125q0.921875 0 1.546875 0.3125q0.625 0.296875 0.96875 0.921875q0.34375 0.625 0.34375 1.578125l0 5.453125q0 0.40625 0.1875 0.640625q0.1875 0.234375 0.53125 0.328125q0.359375 0.078125 0.84375 0.078125l0.0625 0l0 0.890625zm12.046082 -8.90625q-0.859375 -0.03125 -1.46875 -0.015625q-0.59375 0.015625 -1.015625 0.109375q-0.421875 0.09375 -0.703125 0.328125l-0.28125 -0.078125q0.25 -0.59375 0.578125 -1.015625q0.34375 -0.4375 0.75 -0.703125q0.421875 -0.265625 0.953125 -0.359375q0.53125 -0.09375 1.1875 -0.03125l0 1.765625zm-5.984375 5.859375q-1.15625 0 -2.046875 -0.4375q-0.890625 -0.4375 -1.390625 -1.234375q-0.484375 -0.796875 -0.484375 -1.890625q0 -1.0625 0.5 -1.875q0.515625 -0.8125 1.390625 -1.265625q0.890625 -0.453125 2.03125 -0.453125q1.15625 0 2.046875 0.453125q0.890625 0.453125 1.390625 1.265625q0.515625 0.8125 0.515625 1.875q0 1.09375 -0.515625 1.890625q-0.5 0.796875 -1.390625 1.234375q-0.875 0.4375 -2.046875 0.4375zm0 -1.09375q0.75 0 1.25 -0.28125q0.515625 -0.28125 0.78125 -0.828125q0.265625 -0.546875 0.265625 -1.359375q0 -0.796875 -0.265625 -1.359375q-0.265625 -0.5625 -0.78125 -0.84375q-0.5 -0.296875 -1.25 -0.296875q-0.734375 0 -1.234375 0.296875q-0.5 0.28125 -0.765625 0.84375q-0.265625 0.5625 -0.265625 1.359375q0 0.8125 0.265625 1.359375q0.265625 0.546875 0.765625 0.828125q0.5 0.28125 1.234375 0.28125zm-0.828125 8.6875q-1.203125 0 -2.15625 -0.234375q-0.9375 -0.234375 -1.484375 -0.75q-0.53125 -0.5 -0.53125 -1.34375q0 -0.546875 0.234375 -0.953125q0.25 -0.40625 0.75 -0.765625q0.5 -0.34375 1.265625 -0.75l0.5625 0.359375q-0.484375 0.34375 -0.78125 0.640625q-0.28125 0.3125 -0.40625 0.609375q-0.109375 0.296875 -0.109375 0.65625q0 0.453125 0.265625 0.75q0.265625 0.3125 0.859375 0.484375q0.609375 0.1875 1.59375 0.1875l1.578125 0q1.0 0 1.6875 -0.234375q0.6875 -0.234375 1.0625 -0.671875q0.375 -0.421875 0.375 -1.015625q0 -0.5625 -0.375 -0.84375q-0.375 -0.265625 -1.328125 -0.265625l-4.265625 0l-0.046875 0q-0.78125 -0.15625 -1.296875 -0.40625q-0.515625 -0.265625 -0.75 -0.625q-0.21875 -0.375 -0.21875 -0.84375q0 -0.515625 0.25 -0.921875q0.25 -0.421875 0.71875 -0.796875q0.484375 -0.390625 1.15625 -0.734375l0.5625 0.390625q-0.40625 0.28125 -0.65625 0.53125q-0.25 0.25 -0.375 0.484375q-0.125 0.234375 -0.125 0.515625q0 0.4375 0.359375 0.640625q0.359375 0.1875 1.0625 0.1875l3.640625 0q1.046875 0 1.75 0.265625q0.71875 0.25 1.09375 0.78125q0.390625 0.53125 0.390625 1.375q0 1.125 -0.640625 1.859375q-0.625 0.734375 -1.6875 1.078125q-1.0625 0.359375 -2.34375 0.359375l-1.640625 0z" fill-rule="nonzero"/><path fill="#000000" fill-opacity="0.0" d="m367.19672 197.09036c0 11.080811 -8.982758 20.063583 -20.063599 20.063583l-141.67493 0c-11.080811 0 -20.063583 8.982773 -20.063583 20.063599l0 0c0 -11.080826 -8.982788 -20.063599 -20.063599 -20.063599l-141.67494 0l0 0c-11.080817 0 -20.063595 -8.982773 -20.063595 -20.063583z" fill-rule="evenodd"/><path fill="#000000" fill-opacity="0.0" d="m367.19672 197.09036c0 11.080811 -8.982758 20.063583 -20.063599 20.063583l-141.67493 0c-11.080811 0 -20.063583 8.982773 -20.063583 20.063599l0 0c0 -11.080826 -8.982788 -20.063599 -20.063599 -20.063599l-141.67494 0l0 0c-11.080817 0 -20.063595 -8.982773 -20.063595 -20.063583" fill-rule="evenodd"/><path stroke="#000000" stroke-width="1.0" stroke-linejoin="round" stroke-linecap="butt" d="m367.19672 197.09036c0 11.080811 -8.982758 20.063583 -20.063599 20.063583l-141.67493 0c-11.080811 0 -20.063583 8.982773 -20.063583 20.063599l0 0c0 -11.080826 -8.982788 -20.063599 -20.063599 -20.063599l-141.67494 0l0 0c-11.080817 0 -20.063595 -8.982773 -20.063595 -20.063583" fill-rule="evenodd"/><path fill="#000000" fill-opacity="0.0" d="m871.8494 197.09036c0 11.080811 -8.982727 20.063583 -20.063599 20.063583l-143.05487 0c-11.080872 0 -20.063599 8.982773 -20.063599 20.063599l0 0c0 -11.080826 -8.982788 -20.063599 -20.063599 -20.063599l-143.05493 0l0 0c-11.080811 0 -20.063599 -8.982773 -20.063599 -20.063583z" fill-rule="evenodd"/><path fill="#000000" fill-opacity="0.0" d="m871.8494 197.09036c0 11.080811 -8.982727 20.063583 -20.063599 20.063583l-143.05487 0c-11.080872 0 -20.063599 8.982773 -20.063599 20.063599l0 0c0 -11.080826 -8.982788 -20.063599 -20.063599 -20.063599l-143.05493 0l0 0c-11.080811 0 -20.063599 -8.982773 -20.063599 -20.063583" fill-rule="evenodd"/><path stroke="#000000" stroke-width="1.0" stroke-linejoin="round" stroke-linecap="butt" d="m871.8494 197.09036c0 11.080811 -8.982727 20.063583 -20.063599 20.063583l-143.05487 0c-11.080872 0 -20.063599 8.982773 -20.063599 20.063599l0 0c0 -11.080826 -8.982788 -20.063599 -20.063599 -20.063599l-143.05493 0l0 0c-11.080811 0 -20.063599 -8.982773 -20.063599 -20.063583" fill-rule="evenodd"/><path fill="#000000" fill-opacity="0.0" d="m105.46982 237.21785l165.38583 0l0 42.01573l-165.38583 0z" fill-rule="evenodd"/><path fill="#000000" d="m121.291534 263.21597q0.8125 0 1.40625 -0.265625q0.59375 -0.28125 1.0 -0.71875q0.421875 -0.4375 0.75 -0.921875l0.875 0.71875q-0.375 0.671875 -0.96875 1.203125q-0.578125 0.53125 -1.359375 0.828125q-0.765625 0.28125 -1.75 0.28125q-1.578125 0 -2.734375 -0.640625q-1.140625 -0.640625 -1.765625 -1.8125q-0.609375 -1.171875 -0.609375 -2.75q0 -1.609375 0.640625 -2.765625q0.640625 -1.171875 1.796875 -1.796875q1.171875 -0.640625 2.765625 -0.640625q0.984375 0 1.71875 0.171875q0.75 0.15625 1.25 0.375q0.515625 0.21875 0.734375 0.390625l0 2.828125l-1.6875 0l0 -2.40625q0.1875 0.015625 0.359375 0.09375q0.171875 0.0625 0.28125 0.171875q0.109375 0.109375 0.15625 0.25q0.0625 0.125 0.0625 0.265625q-0.40625 -0.421875 -1.171875 -0.703125q-0.765625 -0.296875 -1.703125 -0.296875q-1.171875 0 -1.9375 0.484375q-0.765625 0.46875 -1.140625 1.390625q-0.359375 0.90625 -0.359375 2.1875q0 0.984375 0.203125 1.75q0.203125 0.765625 0.625 1.296875q0.421875 0.515625 1.046875 0.78125q0.640625 0.25 1.515625 0.25zm15.652252 -4.078125q0 1.578125 -0.625 2.765625q-0.625 1.171875 -1.765625 1.8125q-1.125 0.625 -2.625 0.625q-1.53125 0 -2.671875 -0.625q-1.125 -0.640625 -1.75 -1.8125q-0.625 -1.1875 -0.625 -2.765625q0 -1.1875 0.359375 -2.140625q0.359375 -0.96875 1.03125 -1.65625q0.671875 -0.6875 1.59375 -1.046875q0.921875 -0.359375 2.0625 -0.359375q1.140625 0 2.046875 0.359375q0.921875 0.359375 1.59375 1.046875q0.671875 0.6875 1.015625 1.65625q0.359375 0.953125 0.359375 2.140625zm-8.296875 0q0 1.34375 0.359375 2.265625q0.375 0.90625 1.09375 1.359375q0.734375 0.453125 1.828125 0.453125q1.078125 0 1.796875 -0.453125q0.734375 -0.453125 1.09375 -1.359375q0.375 -0.921875 0.375 -2.265625q0 -1.3125 -0.375 -2.203125q-0.359375 -0.90625 -1.09375 -1.375q-0.71875 -0.484375 -1.796875 -0.484375q-1.09375 0 -1.828125 0.484375q-0.71875 0.46875 -1.09375 1.375q-0.359375 0.890625 -0.359375 2.203125zm9.971725 5.0l0 -0.890625l0.0625 0q0.484375 0 0.828125 -0.078125q0.359375 -0.09375 0.546875 -0.328125q0.1875 -0.234375 0.1875 -0.640625l0 -6.234375q0 -0.28125 -0.15625 -0.421875q-0.15625 -0.140625 -0.484375 -0.234375q-0.3125 -0.09375 -0.796875 -0.1875l-0.1875 -0.03125l0 -0.96875l2.984375 0l0.234375 2.125l0.0625 0.09375l0 6.71875q0 0.046875 0.21875 0.09375q0.234375 0.046875 0.546875 0.078125q0.328125 0.015625 0.578125 0.015625l0.078125 0l0 0.890625l-4.703125 0zm11.3125 0l-4.703125 0l0 -0.890625l0.046875 0q0.265625 0 0.578125 -0.015625q0.328125 -0.03125 0.5625 -0.078125q0.234375 -0.046875 0.234375 -0.09375l0 -6.109375q0 -0.609375 -0.171875 -1.0q-0.15625 -0.390625 -0.515625 -0.578125q-0.34375 -0.203125 -0.9375 -0.203125q-0.625 0 -1.21875 0.25q-0.578125 0.234375 -1.125 0.71875q-0.546875 0.484375 -1.109375 1.25l0 -1.015625q0.53125 -0.796875 1.125 -1.328125q0.609375 -0.546875 1.28125 -0.828125q0.6875 -0.28125 1.46875 -0.28125q0.921875 0 1.546875 0.3125q0.625 0.296875 0.96875 0.921875q0.34375 0.625 0.34375 1.578125l0 5.453125q0 0.40625 0.1875 0.640625q0.1875 0.234375 0.53125 0.328125q0.359375 0.078125 0.84375 0.078125l0.0625 0l0 0.890625zm0.7648468 -8.90625l0 -1.015625l0.203125 0q0.625 0 1.046875 -0.078125q0.4375 -0.09375 0.65625 -0.34375q0.21875 -0.265625 0.21875 -0.796875l1.203125 1.125l3.5625 0l0 1.109375l-6.890625 0zm3.65625 5.859375q0 0.796875 0.21875 1.25q0.21875 0.4375 0.640625 0.625q0.4375 0.1875 1.046875 0.1875q0.484375 0 0.890625 -0.0625q0.40625 -0.078125 0.5625 -0.109375l0 1.125q-0.1875 0.046875 -0.46875 0.09375q-0.28125 0.0625 -0.578125 0.09375q-0.296875 0.046875 -0.625 0.046875q-0.875 0 -1.640625 -0.25q-0.765625 -0.265625 -1.25 -0.96875q-0.46875 -0.703125 -0.46875 -2.0l0 -6.71875l0.140625 -0.15625l0 -2.984375l1.53125 0l0 9.828125zm6.432785 -1.859375q0 1.078125 0.25 1.84375q0.25 0.765625 0.71875 1.234375q0.46875 0.46875 1.078125 0.6875q0.609375 0.21875 1.3125 0.21875q0.78125 0 1.359375 -0.265625q0.578125 -0.28125 1.0 -0.703125q0.421875 -0.4375 0.71875 -0.921875l0.890625 0.71875q-0.34375 0.65625 -0.9375 1.1875q-0.578125 0.53125 -1.359375 0.828125q-0.765625 0.28125 -1.71875 0.28125q-1.40625 0 -2.546875 -0.59375q-1.140625 -0.59375 -1.8125 -1.75q-0.65625 -1.15625 -0.65625 -2.78125q0 -1.59375 0.609375 -2.765625q0.609375 -1.1875 1.65625 -1.84375q1.0625 -0.671875 2.421875 -0.671875q1.09375 0 1.890625 0.359375q0.8125 0.34375 1.34375 1.0625q0.546875 0.703125 0.828125 1.765625q0.28125 1.0625 0.28125 2.484375l-7.71875 0l0 -1.078125l6.484375 0l-0.484375 0.40625q-0.03125 -1.0625 -0.1875 -1.796875q-0.15625 -0.75 -0.46875 -1.203125q-0.3125 -0.453125 -0.796875 -0.65625q-0.484375 -0.203125 -1.171875 -0.203125q-0.65625 0 -1.203125 0.25q-0.546875 0.25 -0.953125 0.78125q-0.40625 0.515625 -0.625 1.296875q-0.203125 0.78125 -0.203125 1.828125zm19.324966 4.90625l-4.640625 0l0 -0.984375l0.03125 0q0.375 0 0.734375 0q0.375 -0.015625 0.609375 -0.046875q0.234375 -0.046875 0.234375 -0.109375l-2.96875 -3.5l-0.109375 -0.046875l-3.15625 -3.78125q-0.171875 -0.203125 -0.359375 -0.328125q-0.1875 -0.125 -0.4375 -0.171875q-0.234375 -0.0625 -0.609375 -0.0625l-0.046875 0l0 -0.984375l4.5625 0l0 0.984375l-0.03125 0q-0.359375 0 -0.71875 0.015625q-0.34375 0 -0.578125 0.03125q-0.234375 0.03125 -0.234375 0.078125l2.796875 3.390625l0.125 0.046875l3.25 3.859375q0.203125 0.203125 0.390625 0.34375q0.1875 0.140625 0.4375 0.21875q0.25 0.0625 0.671875 0.0625l0.046875 0l0 0.984375zm-10.96875 0l0 -0.984375l0.0625 0q0.5 0 0.84375 -0.171875q0.34375 -0.171875 0.6875 -0.578125l3.0 -3.546875l0.859375 0.640625l-2.734375 3.234375q0 0.125 0.234375 0.21875q0.234375 0.09375 0.59375 0.15625q0.359375 0.046875 0.734375 0.046875l0.046875 0l0 0.984375l-4.328125 0zm6.25 -4.9375l-0.8125 -0.703125l2.609375 -3.0q0 -0.109375 -0.234375 -0.203125q-0.21875 -0.09375 -0.5625 -0.140625q-0.34375 -0.046875 -0.71875 -0.046875l-0.078125 0l0 -0.984375l4.25 0l0 0.984375l-0.046875 0q-0.296875 0 -0.546875 0.0625q-0.234375 0.046875 -0.46875 0.21875q-0.21875 0.15625 -0.453125 0.421875l-2.9375 3.390625zm5.8264465 -3.96875l0 -1.015625l0.203125 0q0.625 0 1.046875 -0.078125q0.4375 -0.09375 0.65625 -0.34375q0.21875 -0.265625 0.21875 -0.796875l1.203125 1.125l3.5625 0l0 1.109375l-6.890625 0zm3.65625 5.859375q0 0.796875 0.21875 1.25q0.21875 0.4375 0.640625 0.625q0.4375 0.1875 1.046875 0.1875q0.484375 0 0.890625 -0.0625q0.40625 -0.078125 0.5625 -0.109375l0 1.125q-0.1875 0.046875 -0.46875 0.09375q-0.28125 0.0625 -0.578125 0.09375q-0.296875 0.046875 -0.625 0.046875q-0.875 0 -1.640625 -0.25q-0.765625 -0.265625 -1.25 -0.96875q-0.46875 -0.703125 -0.46875 -2.0l0 -6.71875l0.140625 -0.15625l0 -2.984375l1.53125 0l0 9.828125zm11.7357025 -2.734375q0 -1.46875 0.3125 -2.71875q0.3125 -1.25 0.859375 -2.28125q0.5625 -1.046875 1.234375 -1.828125q0.671875 -0.78125 1.359375 -1.328125l0 -0.0625l-1.328125 0q-0.796875 0.53125 -1.546875 1.34375q-0.734375 0.796875 -1.328125 1.859375q-0.578125 1.046875 -0.921875 2.3125q-0.328125 1.265625 -0.328125 2.703125q0 1.4375 0.328125 2.703125q0.34375 1.265625 0.921875 2.3125q0.59375 1.046875 1.328125 1.859375q0.75 0.8125 1.546875 1.328125l1.328125 0l0 -0.046875q-0.6875 -0.5625 -1.359375 -1.34375q-0.671875 -0.78125 -1.234375 -1.8125q-0.546875 -1.03125 -0.859375 -2.28125q-0.3125 -1.25 -0.3125 -2.71875zm16.430267 -3.125q-0.859375 -0.03125 -1.46875 -0.015625q-0.59375 0.015625 -1.015625 0.109375q-0.421875 0.09375 -0.703125 0.328125l-0.28125 -0.078125q0.25 -0.59375 0.578125 -1.015625q0.34375 -0.4375 0.75 -0.703125q0.421875 -0.265625 0.953125 -0.359375q0.53125 -0.09375 1.1875 -0.03125l0 1.765625zm-5.984375 5.859375q-1.15625 0 -2.046875 -0.4375q-0.890625 -0.4375 -1.390625 -1.234375q-0.484375 -0.796875 -0.484375 -1.890625q0 -1.0625 0.5 -1.875q0.515625 -0.8125 1.390625 -1.265625q0.890625 -0.453125 2.03125 -0.453125q1.15625 0 2.046875 0.453125q0.890625 0.453125 1.390625 1.265625q0.515625 0.8125 0.515625 1.875q0 1.09375 -0.515625 1.890625q-0.5 0.796875 -1.390625 1.234375q-0.875 0.4375 -2.046875 0.4375zm0 -1.09375q0.75 0 1.25 -0.28125q0.515625 -0.28125 0.78125 -0.828125q0.265625 -0.546875 0.265625 -1.359375q0 -0.796875 -0.265625 -1.359375q-0.265625 -0.5625 -0.78125 -0.84375q-0.5 -0.296875 -1.25 -0.296875q-0.734375 0 -1.234375 0.296875q-0.5 0.28125 -0.765625 0.84375q-0.265625 0.5625 -0.265625 1.359375q0 0.8125 0.265625 1.359375q0.265625 0.546875 0.765625 0.828125q0.5 0.28125 1.234375 0.28125zm-0.828125 8.6875q-1.203125 0 -2.15625 -0.234375q-0.9375 -0.234375 -1.484375 -0.75q-0.53125 -0.5 -0.53125 -1.34375q0 -0.546875 0.234375 -0.953125q0.25 -0.40625 0.75 -0.765625q0.5 -0.34375 1.265625 -0.75l0.5625 0.359375q-0.484375 0.34375 -0.78125 0.640625q-0.28125 0.3125 -0.40625 0.609375q-0.109375 0.296875 -0.109375 0.65625q0 0.453125 0.265625 0.75q0.265625 0.3125 0.859375 0.484375q0.609375 0.1875 1.59375 0.1875l1.578125 0q1.0 0 1.6875 -0.234375q0.6875 -0.234375 1.0625 -0.671875q0.375 -0.421875 0.375 -1.015625q0 -0.5625 -0.375 -0.84375q-0.375 -0.265625 -1.328125 -0.265625l-4.265625 0l-0.046875 0q-0.78125 -0.15625 -1.296875 -0.40625q-0.515625 -0.265625 -0.75 -0.625q-0.21875 -0.375 -0.21875 -0.84375q0 -0.515625 0.25 -0.921875q0.25 -0.421875 0.71875 -0.796875q0.484375 -0.390625 1.15625 -0.734375l0.5625 0.390625q-0.40625 0.28125 -0.65625 0.53125q-0.25 0.25 -0.375 0.484375q-0.125 0.234375 -0.125 0.515625q0 0.4375 0.359375 0.640625q0.359375 0.1875 1.0625 0.1875l3.640625 0q1.046875 0 1.75 0.265625q0.71875 0.25 1.09375 0.78125q0.390625 0.53125 0.390625 1.375q0 1.125 -0.640625 1.859375q-0.625 0.734375 -1.6875 1.078125q-1.0625 0.359375 -2.34375 0.359375l-1.640625 0zm10.184402 -16.625q-0.53125 0 -0.875 -0.296875q-0.328125 -0.296875 -0.328125 -0.890625q0 -0.578125 0.328125 -0.875q0.34375 -0.296875 0.875 -0.296875q0.53125 0 0.875 0.296875q0.34375 0.296875 0.34375 0.875q0 0.59375 -0.34375 0.890625q-0.34375 0.296875 -0.875 0.296875zm0.953125 2.0625l0 8.171875q0 0.578125 0.421875 0.765625q0.4375 0.1875 1.171875 0.1875l0.046875 0l0 0.890625l-4.921875 0l0 -0.890625l0.0625 0q0.71875 0 1.140625 -0.1875q0.4375 -0.1875 0.4375 -0.765625l0 -6.328125q0 -0.40625 -0.359375 -0.546875q-0.34375 -0.140625 -1.09375 -0.296875l-0.1875 -0.03125l0 -0.96875l3.28125 0zm10.999847 1.390625q-0.03125 -0.109375 -0.25 -0.203125q-0.21875 -0.109375 -0.5625 -0.15625q-0.328125 -0.046875 -0.703125 -0.046875l-0.09375 0l0 -0.984375l4.25 0l0 0.984375l-0.078125 0q-0.34375 0 -0.640625 0.078125q-0.28125 0.078125 -0.5 0.28125q-0.21875 0.1875 -0.359375 0.578125l-3.125 8.203125l-1.8125 0l-3.109375 -8.3125q-0.109375 -0.34375 -0.3125 -0.515625q-0.203125 -0.1875 -0.5 -0.25q-0.28125 -0.0625 -0.703125 -0.0625l-0.0625 0l0 -0.984375l4.6875 0l0 0.984375l-0.09375 0q-0.40625 0 -0.765625 0.015625q-0.359375 0 -0.59375 0.03125q-0.234375 0.03125 -0.234375 0.109375l2.96875 8.171875l-0.265625 -0.1875l2.859375 -7.734375zm5.161377 3.71875q0 1.078125 0.25 1.84375q0.25 0.765625 0.71875 1.234375q0.46875 0.46875 1.078125 0.6875q0.609375 0.21875 1.3125 0.21875q0.78125 0 1.359375 -0.265625q0.578125 -0.28125 1.0 -0.703125q0.421875 -0.4375 0.71875 -0.921875l0.890625 0.71875q-0.34375 0.65625 -0.9375 1.1875q-0.578125 0.53125 -1.359375 0.828125q-0.765625 0.28125 -1.71875 0.28125q-1.40625 0 -2.546875 -0.59375q-1.140625 -0.59375 -1.8125 -1.75q-0.65625 -1.15625 -0.65625 -2.78125q0 -1.59375 0.609375 -2.765625q0.609375 -1.1875 1.65625 -1.84375q1.0625 -0.671875 2.421875 -0.671875q1.09375 0 1.890625 0.359375q0.8125 0.34375 1.34375 1.0625q0.546875 0.703125 0.828125 1.765625q0.28125 1.0625 0.28125 2.484375l-7.71875 0l0 -1.078125l6.484375 0l-0.484375 0.40625q-0.03125 -1.0625 -0.1875 -1.796875q-0.15625 -0.75 -0.46875 -1.203125q-0.3125 -0.453125 -0.796875 -0.65625q-0.484375 -0.203125 -1.171875 -0.203125q-0.65625 0 -1.203125 0.25q-0.546875 0.25 -0.953125 0.78125q-0.40625 0.515625 -0.625 1.296875q-0.203125 0.78125 -0.203125 1.828125zm8.933502 4.90625l0 -0.890625l0.0625 0q0.484375 0 0.828125 -0.078125q0.359375 -0.09375 0.546875 -0.328125q0.1875 -0.234375 0.1875 -0.640625l0 -6.234375q0 -0.28125 -0.15625 -0.421875q-0.15625 -0.140625 -0.484375 -0.234375q-0.3125 -0.09375 -0.796875 -0.1875l-0.1875 -0.03125l0 -0.96875l2.984375 0l0.234375 2.125l0.0625 0.09375l0 6.71875q0 0.046875 0.21875 0.09375q0.234375 0.046875 0.546875 0.078125q0.328125 0.015625 0.578125 0.015625l0.078125 0l0 0.890625l-4.703125 0zm11.3125 0l-4.703125 0l0 -0.890625l0.046875 0q0.265625 0 0.578125 -0.015625q0.328125 -0.03125 0.5625 -0.078125q0.234375 -0.046875 0.234375 -0.09375l0 -6.109375q0 -0.609375 -0.171875 -1.0q-0.15625 -0.390625 -0.515625 -0.578125q-0.34375 -0.203125 -0.9375 -0.203125q-0.625 0 -1.21875 0.25q-0.578125 0.234375 -1.125 0.71875q-0.546875 0.484375 -1.109375 1.25l0 -1.015625q0.53125 -0.796875 1.125 -1.328125q0.609375 -0.546875 1.28125 -0.828125q0.6875 -0.28125 1.46875 -0.28125q0.921875 0 1.546875 0.3125q0.625 0.296875 0.96875 0.921875q0.34375 0.625 0.34375 1.578125l0 5.453125q0 0.40625 0.1875 0.640625q0.1875 0.234375 0.53125 0.328125q0.359375 0.078125 0.84375 0.078125l0.0625 0l0 0.890625zm4.453186 -5.78125q0 1.46875 -0.328125 2.71875q-0.3125 1.25 -0.859375 2.28125q-0.546875 1.03125 -1.21875 1.8125q-0.671875 0.78125 -1.359375 1.34375l0 0.046875l1.328125 0q0.796875 -0.515625 1.53125 -1.328125q0.734375 -0.8125 1.328125 -1.859375q0.59375 -1.046875 0.921875 -2.3125q0.34375 -1.265625 0.34375 -2.703125q0 -1.4375 -0.34375 -2.703125q-0.328125 -1.265625 -0.921875 -2.3125q-0.59375 -1.0625 -1.328125 -1.859375q-0.734375 -0.8125 -1.53125 -1.34375l-1.328125 0l0 0.0625q0.6875 0.546875 1.359375 1.328125q0.671875 0.78125 1.21875 1.828125q0.546875 1.03125 0.859375 2.28125q0.328125 1.25 0.328125 2.71875z" fill-rule="nonzero"/><path fill="#000000" fill-opacity="0.0" d="m600.0182 237.21785l169.7638 0l0 42.01573l-169.7638 0z" fill-rule="evenodd"/><path fill="#000000" d="m618.0289 263.21597q0.8125 0 1.40625 -0.265625q0.59375 -0.28125 1.0 -0.71875q0.421875 -0.4375 0.75 -0.921875l0.875 0.71875q-0.375 0.671875 -0.96875 1.203125q-0.578125 0.53125 -1.359375 0.828125q-0.765625 0.28125 -1.75 0.28125q-1.578125 0 -2.734375 -0.640625q-1.140625 -0.640625 -1.765625 -1.8125q-0.609375 -1.171875 -0.609375 -2.75q0 -1.609375 0.640625 -2.765625q0.640625 -1.171875 1.796875 -1.796875q1.171875 -0.640625 2.765625 -0.640625q0.984375 0 1.71875 0.171875q0.75 0.15625 1.25 0.375q0.515625 0.21875 0.734375 0.390625l0 2.828125l-1.6875 0l0 -2.40625q0.1875 0.015625 0.359375 0.09375q0.171875 0.0625 0.28125 0.171875q0.109375 0.109375 0.15625 0.25q0.0625 0.125 0.0625 0.265625q-0.40625 -0.421875 -1.171875 -0.703125q-0.765625 -0.296875 -1.703125 -0.296875q-1.171875 0 -1.9375 0.484375q-0.765625 0.46875 -1.140625 1.390625q-0.359375 0.90625 -0.359375 2.1875q0 0.984375 0.203125 1.75q0.203125 0.765625 0.625 1.296875q0.421875 0.515625 1.046875 0.78125q0.640625 0.25 1.515625 0.25zm15.652222 -4.078125q0 1.578125 -0.625 2.765625q-0.625 1.171875 -1.765625 1.8125q-1.125 0.625 -2.625 0.625q-1.53125 0 -2.671875 -0.625q-1.125 -0.640625 -1.75 -1.8125q-0.625 -1.1875 -0.625 -2.765625q0 -1.1875 0.359375 -2.140625q0.359375 -0.96875 1.03125 -1.65625q0.671875 -0.6875 1.59375 -1.046875q0.921875 -0.359375 2.0625 -0.359375q1.140625 0 2.046875 0.359375q0.921875 0.359375 1.59375 1.046875q0.671875 0.6875 1.015625 1.65625q0.359375 0.953125 0.359375 2.140625zm-8.296875 0q0 1.34375 0.359375 2.265625q0.375 0.90625 1.09375 1.359375q0.734375 0.453125 1.828125 0.453125q1.078125 0 1.796875 -0.453125q0.734375 -0.453125 1.09375 -1.359375q0.375 -0.921875 0.375 -2.265625q0 -1.3125 -0.375 -2.203125q-0.359375 -0.90625 -1.09375 -1.375q-0.71875 -0.484375 -1.796875 -0.484375q-1.09375 0 -1.828125 0.484375q-0.71875 0.46875 -1.09375 1.375q-0.359375 0.890625 -0.359375 2.203125zm9.971741 5.0l0 -0.890625l0.0625 0q0.484375 0 0.828125 -0.078125q0.359375 -0.09375 0.546875 -0.328125q0.1875 -0.234375 0.1875 -0.640625l0 -6.234375q0 -0.28125 -0.15625 -0.421875q-0.15625 -0.140625 -0.484375 -0.234375q-0.3125 -0.09375 -0.796875 -0.1875l-0.1875 -0.03125l0 -0.96875l2.984375 0l0.234375 2.125l0.0625 0.09375l0 6.71875q0 0.046875 0.21875 0.09375q0.234375 0.046875 0.546875 0.078125q0.328125 0.015625 0.578125 0.015625l0.078125 0l0 0.890625l-4.703125 0zm11.3125 0l-4.703125 0l0 -0.890625l0.046875 0q0.265625 0 0.578125 -0.015625q0.328125 -0.03125 0.5625 -0.078125q0.234375 -0.046875 0.234375 -0.09375l0 -6.109375q0 -0.609375 -0.171875 -1.0q-0.15625 -0.390625 -0.515625 -0.578125q-0.34375 -0.203125 -0.9375 -0.203125q-0.625 0 -1.21875 0.25q-0.578125 0.234375 -1.125 0.71875q-0.546875 0.484375 -1.109375 1.25l0 -1.015625q0.53125 -0.796875 1.125 -1.328125q0.609375 -0.546875 1.28125 -0.828125q0.6875 -0.28125 1.46875 -0.28125q0.921875 0 1.546875 0.3125q0.625 0.296875 0.96875 0.921875q0.34375 0.625 0.34375 1.578125l0 5.453125q0 0.40625 0.1875 0.640625q0.1875 0.234375 0.53125 0.328125q0.359375 0.078125 0.84375 0.078125l0.0625 0l0 0.890625zm0.76483154 -8.90625l0 -1.015625l0.203125 0q0.625 0 1.046875 -0.078125q0.4375 -0.09375 0.65625 -0.34375q0.21875 -0.265625 0.21875 -0.796875l1.203125 1.125l3.5625 0l0 1.109375l-6.890625 0zm3.65625 5.859375q0 0.796875 0.21875 1.25q0.21875 0.4375 0.640625 0.625q0.4375 0.1875 1.046875 0.1875q0.484375 0 0.890625 -0.0625q0.40625 -0.078125 0.5625 -0.109375l0 1.125q-0.1875 0.046875 -0.46875 0.09375q-0.28125 0.0625 -0.578125 0.09375q-0.296875 0.046875 -0.625 0.046875q-0.875 0 -1.640625 -0.25q-0.765625 -0.265625 -1.25 -0.96875q-0.46875 -0.703125 -0.46875 -2.0l0 -6.71875l0.140625 -0.15625l0 -2.984375l1.53125 0l0 9.828125zm6.4328003 -1.859375q0 1.078125 0.25 1.84375q0.25 0.765625 0.71875 1.234375q0.46875 0.46875 1.078125 0.6875q0.609375 0.21875 1.3125 0.21875q0.78125 0 1.359375 -0.265625q0.578125 -0.28125 1.0 -0.703125q0.421875 -0.4375 0.71875 -0.921875l0.890625 0.71875q-0.34375 0.65625 -0.9375 1.1875q-0.578125 0.53125 -1.359375 0.828125q-0.765625 0.28125 -1.71875 0.28125q-1.40625 0 -2.546875 -0.59375q-1.140625 -0.59375 -1.8125 -1.75q-0.65625 -1.15625 -0.65625 -2.78125q0 -1.59375 0.609375 -2.765625q0.609375 -1.1875 1.65625 -1.84375q1.0625 -0.671875 2.421875 -0.671875q1.09375 0 1.890625 0.359375q0.8125 0.34375 1.34375 1.0625q0.546875 0.703125 0.828125 1.765625q0.28125 1.0625 0.28125 2.484375l-7.71875 0l0 -1.078125l6.484375 0l-0.484375 0.40625q-0.03125 -1.0625 -0.1875 -1.796875q-0.15625 -0.75 -0.46875 -1.203125q-0.3125 -0.453125 -0.796875 -0.65625q-0.484375 -0.203125 -1.171875 -0.203125q-0.65625 0 -1.203125 0.25q-0.546875 0.25 -0.953125 0.78125q-0.40625 0.515625 -0.625 1.296875q-0.203125 0.78125 -0.203125 1.828125zm19.324951 4.90625l-4.640625 0l0 -0.984375l0.03125 0q0.375 0 0.734375 0q0.375 -0.015625 0.609375 -0.046875q0.234375 -0.046875 0.234375 -0.109375l-2.96875 -3.5l-0.109375 -0.046875l-3.15625 -3.78125q-0.171875 -0.203125 -0.359375 -0.328125q-0.1875 -0.125 -0.4375 -0.171875q-0.234375 -0.0625 -0.609375 -0.0625l-0.046875 0l0 -0.984375l4.5625 0l0 0.984375l-0.03125 0q-0.359375 0 -0.71875 0.015625q-0.34375 0 -0.578125 0.03125q-0.234375 0.03125 -0.234375 0.078125l2.796875 3.390625l0.125 0.046875l3.25 3.859375q0.203125 0.203125 0.390625 0.34375q0.1875 0.140625 0.4375 0.21875q0.25 0.0625 0.671875 0.0625l0.046875 0l0 0.984375zm-10.96875 0l0 -0.984375l0.0625 0q0.5 0 0.84375 -0.171875q0.34375 -0.171875 0.6875 -0.578125l3.0 -3.546875l0.859375 0.640625l-2.734375 3.234375q0 0.125 0.234375 0.21875q0.234375 0.09375 0.59375 0.15625q0.359375 0.046875 0.734375 0.046875l0.046875 0l0 0.984375l-4.328125 0zm6.25 -4.9375l-0.8125 -0.703125l2.609375 -3.0q0 -0.109375 -0.234375 -0.203125q-0.21875 -0.09375 -0.5625 -0.140625q-0.34375 -0.046875 -0.71875 -0.046875l-0.078125 0l0 -0.984375l4.25 0l0 0.984375l-0.046875 0q-0.296875 0 -0.546875 0.0625q-0.234375 0.046875 -0.46875 0.21875q-0.21875 0.15625 -0.453125 0.421875l-2.9375 3.390625zm5.826477 -3.96875l0 -1.015625l0.203125 0q0.625 0 1.046875 -0.078125q0.4375 -0.09375 0.65625 -0.34375q0.21875 -0.265625 0.21875 -0.796875l1.203125 1.125l3.5625 0l0 1.109375l-6.890625 0zm3.65625 5.859375q0 0.796875 0.21875 1.25q0.21875 0.4375 0.640625 0.625q0.4375 0.1875 1.046875 0.1875q0.484375 0 0.890625 -0.0625q0.40625 -0.078125 0.5625 -0.109375l0 1.125q-0.1875 0.046875 -0.46875 0.09375q-0.28125 0.0625 -0.578125 0.09375q-0.296875 0.046875 -0.625 0.046875q-0.875 0 -1.640625 -0.25q-0.765625 -0.265625 -1.25 -0.96875q-0.46875 -0.703125 -0.46875 -2.0l0 -6.71875l0.140625 -0.15625l0 -2.984375l1.53125 0l0 9.828125zm11.735718 -2.734375q0 -1.46875 0.3125 -2.71875q0.3125 -1.25 0.859375 -2.28125q0.5625 -1.046875 1.234375 -1.828125q0.671875 -0.78125 1.359375 -1.328125l0 -0.0625l-1.328125 0q-0.796875 0.53125 -1.546875 1.34375q-0.734375 0.796875 -1.328125 1.859375q-0.578125 1.046875 -0.921875 2.3125q-0.328125 1.265625 -0.328125 2.703125q0 1.4375 0.328125 2.703125q0.34375 1.265625 0.921875 2.3125q0.59375 1.046875 1.328125 1.859375q0.75 0.8125 1.546875 1.328125l1.328125 0l0 -0.046875q-0.6875 -0.5625 -1.359375 -1.34375q-0.671875 -0.78125 -1.234375 -1.8125q-0.546875 -1.03125 -0.859375 -2.28125q-0.3125 -1.25 -0.3125 -2.71875zm16.430237 -3.125q-0.859375 -0.03125 -1.46875 -0.015625q-0.59375 0.015625 -1.015625 0.109375q-0.421875 0.09375 -0.703125 0.328125l-0.28125 -0.078125q0.25 -0.59375 0.578125 -1.015625q0.34375 -0.4375 0.75 -0.703125q0.421875 -0.265625 0.953125 -0.359375q0.53125 -0.09375 1.1875 -0.03125l0 1.765625zm-5.984375 5.859375q-1.15625 0 -2.046875 -0.4375q-0.890625 -0.4375 -1.390625 -1.234375q-0.484375 -0.796875 -0.484375 -1.890625q0 -1.0625 0.5 -1.875q0.515625 -0.8125 1.390625 -1.265625q0.890625 -0.453125 2.03125 -0.453125q1.15625 0 2.046875 0.453125q0.890625 0.453125 1.390625 1.265625q0.515625 0.8125 0.515625 1.875q0 1.09375 -0.515625 1.890625q-0.5 0.796875 -1.390625 1.234375q-0.875 0.4375 -2.046875 0.4375zm0 -1.09375q0.75 0 1.25 -0.28125q0.515625 -0.28125 0.78125 -0.828125q0.265625 -0.546875 0.265625 -1.359375q0 -0.796875 -0.265625 -1.359375q-0.265625 -0.5625 -0.78125 -0.84375q-0.5 -0.296875 -1.25 -0.296875q-0.734375 0 -1.234375 0.296875q-0.5 0.28125 -0.765625 0.84375q-0.265625 0.5625 -0.265625 1.359375q0 0.8125 0.265625 1.359375q0.265625 0.546875 0.765625 0.828125q0.5 0.28125 1.234375 0.28125zm-0.828125 8.6875q-1.203125 0 -2.15625 -0.234375q-0.9375 -0.234375 -1.484375 -0.75q-0.53125 -0.5 -0.53125 -1.34375q0 -0.546875 0.234375 -0.953125q0.25 -0.40625 0.75 -0.765625q0.5 -0.34375 1.265625 -0.75l0.5625 0.359375q-0.484375 0.34375 -0.78125 0.640625q-0.28125 0.3125 -0.40625 0.609375q-0.109375 0.296875 -0.109375 0.65625q0 0.453125 0.265625 0.75q0.265625 0.3125 0.859375 0.484375q0.609375 0.1875 1.59375 0.1875l1.578125 0q1.0 0 1.6875 -0.234375q0.6875 -0.234375 1.0625 -0.671875q0.375 -0.421875 0.375 -1.015625q0 -0.5625 -0.375 -0.84375q-0.375 -0.265625 -1.328125 -0.265625l-4.265625 0l-0.046875 0q-0.78125 -0.15625 -1.296875 -0.40625q-0.515625 -0.265625 -0.75 -0.625q-0.21875 -0.375 -0.21875 -0.84375q0 -0.515625 0.25 -0.921875q0.25 -0.421875 0.71875 -0.796875q0.484375 -0.390625 1.15625 -0.734375l0.5625 0.390625q-0.40625 0.28125 -0.65625 0.53125q-0.25 0.25 -0.375 0.484375q-0.125 0.234375 -0.125 0.515625q0 0.4375 0.359375 0.640625q0.359375 0.1875 1.0625 0.1875l3.640625 0q1.046875 0 1.75 0.265625q0.71875 0.25 1.09375 0.78125q0.390625 0.53125 0.390625 1.375q0 1.125 -0.640625 1.859375q-0.625 0.734375 -1.6875 1.078125q-1.0625 0.359375 -2.34375 0.359375l-1.640625 0zm10.184387 -16.625q-0.53125 0 -0.875 -0.296875q-0.328125 -0.296875 -0.328125 -0.890625q0 -0.578125 0.328125 -0.875q0.34375 -0.296875 0.875 -0.296875q0.53125 0 0.875 0.296875q0.34375 0.296875 0.34375 0.875q0 0.59375 -0.34375 0.890625q-0.34375 0.296875 -0.875 0.296875zm0.953125 2.0625l0 8.171875q0 0.578125 0.421875 0.765625q0.4375 0.1875 1.171875 0.1875l0.046875 0l0 0.890625l-4.921875 0l0 -0.890625l0.0625 0q0.71875 0 1.140625 -0.1875q0.4375 -0.1875 0.4375 -0.765625l0 -6.328125q0 -0.40625 -0.359375 -0.546875q-0.34375 -0.140625 -1.09375 -0.296875l-0.1875 -0.03125l0 -0.96875l3.28125 0zm10.999878 1.390625q-0.03125 -0.109375 -0.25 -0.203125q-0.21875 -0.109375 -0.5625 -0.15625q-0.328125 -0.046875 -0.703125 -0.046875l-0.09375 0l0 -0.984375l4.25 0l0 0.984375l-0.078125 0q-0.34375 0 -0.640625 0.078125q-0.28125 0.078125 -0.5 0.28125q-0.21875 0.1875 -0.359375 0.578125l-3.125 8.203125l-1.8125 0l-3.109375 -8.3125q-0.109375 -0.34375 -0.3125 -0.515625q-0.203125 -0.1875 -0.5 -0.25q-0.28125 -0.0625 -0.703125 -0.0625l-0.0625 0l0 -0.984375l4.6875 0l0 0.984375l-0.09375 0q-0.40625 0 -0.765625 0.015625q-0.359375 0 -0.59375 0.03125q-0.234375 0.03125 -0.234375 0.109375l2.96875 8.171875l-0.265625 -0.1875l2.859375 -7.734375zm5.161377 3.71875q0 1.078125 0.25 1.84375q0.25 0.765625 0.71875 1.234375q0.46875 0.46875 1.078125 0.6875q0.609375 0.21875 1.3125 0.21875q0.78125 0 1.359375 -0.265625q0.578125 -0.28125 1.0 -0.703125q0.421875 -0.4375 0.71875 -0.921875l0.890625 0.71875q-0.34375 0.65625 -0.9375 1.1875q-0.578125 0.53125 -1.359375 0.828125q-0.765625 0.28125 -1.71875 0.28125q-1.40625 0 -2.546875 -0.59375q-1.140625 -0.59375 -1.8125 -1.75q-0.65625 -1.15625 -0.65625 -2.78125q0 -1.59375 0.609375 -2.765625q0.609375 -1.1875 1.65625 -1.84375q1.0625 -0.671875 2.421875 -0.671875q1.09375 0 1.890625 0.359375q0.8125 0.34375 1.34375 1.0625q0.546875 0.703125 0.828125 1.765625q0.28125 1.0625 0.28125 2.484375l-7.71875 0l0 -1.078125l6.484375 0l-0.484375 0.40625q-0.03125 -1.0625 -0.1875 -1.796875q-0.15625 -0.75 -0.46875 -1.203125q-0.3125 -0.453125 -0.796875 -0.65625q-0.484375 -0.203125 -1.171875 -0.203125q-0.65625 0 -1.203125 0.25q-0.546875 0.25 -0.953125 0.78125q-0.40625 0.515625 -0.625 1.296875q-0.203125 0.78125 -0.203125 1.828125zm8.933472 4.90625l0 -0.890625l0.0625 0q0.484375 0 0.828125 -0.078125q0.359375 -0.09375 0.546875 -0.328125q0.1875 -0.234375 0.1875 -0.640625l0 -6.234375q0 -0.28125 -0.15625 -0.421875q-0.15625 -0.140625 -0.484375 -0.234375q-0.3125 -0.09375 -0.796875 -0.1875l-0.1875 -0.03125l0 -0.96875l2.984375 0l0.234375 2.125l0.0625 0.09375l0 6.71875q0 0.046875 0.21875 0.09375q0.234375 0.046875 0.546875 0.078125q0.328125 0.015625 0.578125 0.015625l0.078125 0l0 0.890625l-4.703125 0zm11.3125 0l-4.703125 0l0 -0.890625l0.046875 0q0.265625 0 0.578125 -0.015625q0.328125 -0.03125 0.5625 -0.078125q0.234375 -0.046875 0.234375 -0.09375l0 -6.109375q0 -0.609375 -0.171875 -1.0q-0.15625 -0.390625 -0.515625 -0.578125q-0.34375 -0.203125 -0.9375 -0.203125q-0.625 0 -1.21875 0.25q-0.578125 0.234375 -1.125 0.71875q-0.546875 0.484375 -1.109375 1.25l0 -1.015625q0.53125 -0.796875 1.125 -1.328125q0.609375 -0.546875 1.28125 -0.828125q0.6875 -0.28125 1.46875 -0.28125q0.921875 0 1.546875 0.3125q0.625 0.296875 0.96875 0.921875q0.34375 0.625 0.34375 1.578125l0 5.453125q0 0.40625 0.1875 0.640625q0.1875 0.234375 0.53125 0.328125q0.359375 0.078125 0.84375 0.078125l0.0625 0l0 0.890625zm4.453186 -5.78125q0 1.46875 -0.328125 2.71875q-0.3125 1.25 -0.859375 2.28125q-0.546875 1.03125 -1.21875 1.8125q-0.671875 0.78125 -1.359375 1.34375l0 0.046875l1.328125 0q0.796875 -0.515625 1.53125 -1.328125q0.734375 -0.8125 1.328125 -1.859375q0.59375 -1.046875 0.921875 -2.3125q0.34375 -1.265625 0.34375 -2.703125q0 -1.4375 -0.34375 -2.703125q-0.328125 -1.265625 -0.921875 -2.3125q-0.59375 -1.0625 -1.328125 -1.859375q-0.734375 -0.8125 -1.53125 -1.34375l-1.328125 0l0 0.0625q0.6875 0.546875 1.359375 1.328125q0.671875 0.78125 1.21875 1.828125q0.546875 1.03125 0.859375 2.28125q0.328125 1.25 0.328125 2.71875z" fill-rule="nonzero"/><path fill="#93c47d" d="m3.5924745 132.70024l0 0c0 -5.618561 4.5547385 -10.173294 10.173294 -10.173294l94.177124 0c2.69812 0 5.285736 1.0718231 7.1936035 2.979683c1.9078598 1.9078674 2.9796906 4.495476 2.9796906 7.193611l0 40.691956c0 5.6185455 -4.554741 10.173294 -10.173294 10.173294l-94.177124 0c-5.618555 0 -10.173294 -4.5547485 -10.173294 -10.173294z" fill-rule="evenodd"/><path stroke="#000000" stroke-width="1.0" stroke-linejoin="round" stroke-linecap="butt" d="m3.5924745 132.70024l0 0c0 -5.618561 4.5547385 -10.173294 10.173294 -10.173294l94.177124 0c2.69812 0 5.285736 1.0718231 7.1936035 2.979683c1.9078598 1.9078674 2.9796906 4.495476 2.9796906 7.193611l0 40.691956c0 5.6185455 -4.554741 10.173294 -10.173294 10.173294l-94.177124 0c-5.618555 0 -10.173294 -4.5547485 -10.173294 -10.173294z" fill-rule="evenodd"/><path fill="#000000" d="m45.476685 151.05997l0 -1.015625l0.203125 0q0.625 0 1.046875 -0.078125q0.4375 -0.09375 0.65625 -0.34375q0.21875 -0.265625 0.21875 -0.796875l1.203125 1.125l3.5625 0l0 1.109375l-6.890625 0zm3.65625 5.859375q0 0.796875 0.21875 1.25q0.21875 0.4375 0.640625 0.625q0.4375 0.1875 1.046875 0.1875q0.484375 0 0.890625 -0.0625q0.40625 -0.078125 0.5625 -0.109375l0 1.125q-0.1875 0.046875 -0.46875 0.09375q-0.28125 0.0625 -0.578125 0.09375q-0.296875 0.046875 -0.625 0.046875q-0.875 0 -1.640625 -0.25q-0.765625 -0.265625 -1.25 -0.96875q-0.46875 -0.703125 -0.46875 -2.0l0 -6.71875l0.140625 -0.15625l0 -2.984375l1.53125 0l0 9.828125zm8.103821 -11.09375l0 13.0625q0 0.046875 0.21875 0.09375q0.234375 0.046875 0.546875 0.078125q0.328125 0.015625 0.578125 0.015625l0.078125 0l0 0.890625l-4.71875 0l0 -0.890625l0.0625 0q0.484375 0 0.828125 -0.078125q0.359375 -0.09375 0.546875 -0.328125q0.203125 -0.234375 0.203125 -0.640625l0 -10.359375q0 -0.28125 -0.15625 -0.421875q-0.15625 -0.140625 -0.484375 -0.234375q-0.3125 -0.09375 -0.8125 -0.1875l-0.1875 -0.03125l0 -0.96875l3.296875 0zm8.03125 14.140625l-4.71875 0l0 -0.890625l0.078125 0q0.25 0 0.5625 -0.015625q0.328125 -0.03125 0.546875 -0.078125q0.234375 -0.046875 0.234375 -0.09375l0 -6.109375q0 -0.609375 -0.15625 -1.0q-0.15625 -0.390625 -0.515625 -0.578125q-0.34375 -0.203125 -0.953125 -0.203125q-0.625 0 -1.21875 0.25q-0.578125 0.234375 -1.125 0.71875q-0.546875 0.484375 -1.109375 1.234375l0 -1.0q0.53125 -0.796875 1.125 -1.328125q0.609375 -0.546875 1.28125 -0.828125q0.6875 -0.28125 1.46875 -0.28125q0.921875 0 1.546875 0.3125q0.640625 0.296875 0.96875 0.921875q0.34375 0.625 0.34375 1.578125l0 5.453125q0 0.40625 0.1875 0.640625q0.203125 0.234375 0.546875 0.328125q0.359375 0.078125 0.84375 0.078125l0.0625 0l0 0.890625zm3.0773468 -4.90625q0 1.078125 0.25 1.84375q0.25 0.765625 0.71875 1.234375q0.46875 0.46875 1.078125 0.6875q0.609375 0.21875 1.3125 0.21875q0.78125 0 1.359375 -0.265625q0.578125 -0.28125 1.0 -0.703125q0.421875 -0.4375 0.71875 -0.921875l0.890625 0.71875q-0.34375 0.65625 -0.9375 1.1875q-0.578125 0.53125 -1.359375 0.828125q-0.765625 0.28125 -1.71875 0.28125q-1.40625 0 -2.546875 -0.59375q-1.140625 -0.59375 -1.8125 -1.75q-0.65625 -1.15625 -0.65625 -2.78125q0 -1.59375 0.609375 -2.765625q0.609375 -1.1875 1.65625 -1.84375q1.0625 -0.671875 2.421875 -0.671875q1.09375 0 1.890625 0.359375q0.8125 0.34375 1.34375 1.0625q0.546875 0.703125 0.828125 1.765625q0.28125 1.0625 0.28125 2.484375l-7.71875 0l0 -1.078125l6.484375 0l-0.484375 0.40625q-0.03125 -1.0625 -0.1875 -1.796875q-0.15625 -0.75 -0.46875 -1.203125q-0.3125 -0.453125 -0.796875 -0.65625q-0.484375 -0.203125 -1.171875 -0.203125q-0.65625 0 -1.203125 0.25q-0.546875 0.25 -0.953125 0.78125q-0.40625 0.515625 -0.625 1.296875q-0.203125 0.78125 -0.203125 1.828125z" fill-rule="nonzero"/><path fill="#000000" fill-opacity="0.0" d="m867.035 109.002075c0 -11.080818 -8.982788 -20.063599 -20.063599 -20.063599l-391.1276 0c-11.080811 0 -20.063599 -8.982773 -20.063599 -20.063591l0 0c0 11.080818 -8.982758 20.063591 -20.063599 20.063591l-391.1276 0l0 0c-11.080817 0 -20.063595 8.98278 -20.063595 20.063599z" fill-rule="evenodd"/><path fill="#000000" fill-opacity="0.0" d="m867.035 109.002075c0 -11.080818 -8.982788 -20.063599 -20.063599 -20.063599l-391.1276 0c-11.080811 0 -20.063599 -8.982773 -20.063599 -20.063591l0 0c0 11.080818 -8.982758 20.063591 -20.063599 20.063591l-391.1276 0l0 0c-11.080817 0 -20.063595 8.98278 -20.063595 20.063599" fill-rule="evenodd"/><path stroke="#000000" stroke-width="1.0" stroke-linejoin="round" stroke-linecap="butt" d="m867.035 109.002075c0 -11.080818 -8.982788 -20.063599 -20.063599 -20.063599l-391.1276 0c-11.080811 0 -20.063599 -8.982773 -20.063599 -20.063591l0 0c0 11.080818 -8.982758 20.063591 -20.063599 20.063591l-391.1276 0l0 0c-11.080817 0 -20.063595 8.98278 -20.063595 20.063599" fill-rule="evenodd"/><path fill="#000000" fill-opacity="0.0" d="m320.96188 4.272626l229.63779 0l0 64.62992l-229.63779 0z" fill-rule="evenodd"/><path fill="#000000" d="m352.10046 30.27075q0.8125 0 1.40625 -0.265625q0.59375 -0.28125 1.0 -0.71875q0.421875 -0.4375 0.75 -0.921875l0.875 0.71875q-0.375 0.671875 -0.96875 1.203125q-0.578125 0.53125 -1.359375 0.828125q-0.765625 0.28125 -1.75 0.28125q-1.578125 0 -2.734375 -0.640625q-1.140625 -0.640625 -1.765625 -1.8125q-0.609375 -1.171875 -0.609375 -2.75q0 -1.609375 0.640625 -2.765625q0.640625 -1.171875 1.796875 -1.796875q1.171875 -0.640625 2.765625 -0.640625q0.984375 0 1.71875 0.171875q0.75 0.15625 1.25 0.375q0.515625 0.21875 0.734375 0.390625l0 2.828125l-1.6875 0l0 -2.40625q0.1875 0.015625 0.359375 0.09375q0.171875 0.0625 0.28125 0.171875q0.109375 0.109375 0.15625 0.25q0.0625 0.125 0.0625 0.265625q-0.40625 -0.421875 -1.171875 -0.703125q-0.765625 -0.296875 -1.703125 -0.296875q-1.171875 0 -1.9375 0.484375q-0.765625 0.46875 -1.140625 1.390625q-0.359375 0.90625 -0.359375 2.1875q0 0.984375 0.203125 1.75q0.203125 0.765625 0.625 1.296875q0.421875 0.515625 1.046875 0.78125q0.640625 0.25 1.515625 0.25zm15.652252 -4.078125q0 1.578125 -0.625 2.765625q-0.625 1.171875 -1.765625 1.8125q-1.125 0.625 -2.625 0.625q-1.53125 0 -2.671875 -0.625q-1.125 -0.640625 -1.75 -1.8125q-0.625 -1.1875 -0.625 -2.765625q0 -1.1875 0.359375 -2.140625q0.359375 -0.96875 1.03125 -1.65625q0.671875 -0.6875 1.59375 -1.046875q0.921875 -0.359375 2.0625 -0.359375q1.140625 0 2.046875 0.359375q0.921875 0.359375 1.59375 1.046875q0.671875 0.6875 1.015625 1.65625q0.359375 0.953125 0.359375 2.140625zm-8.296875 0q0 1.34375 0.359375 2.265625q0.375 0.90625 1.09375 1.359375q0.734375 0.453125 1.828125 0.453125q1.078125 0 1.796875 -0.453125q0.734375 -0.453125 1.09375 -1.359375q0.375 -0.921875 0.375 -2.265625q0 -1.3125 -0.375 -2.203125q-0.359375 -0.90625 -1.09375 -1.375q-0.71875 -0.484375 -1.796875 -0.484375q-1.09375 0 -1.828125 0.484375q-0.71875 0.46875 -1.09375 1.375q-0.359375 0.890625 -0.359375 2.203125zm9.971741 5.0l0 -0.890625l0.0625 0q0.484375 0 0.828125 -0.078125q0.359375 -0.09375 0.546875 -0.328125q0.1875 -0.234375 0.1875 -0.640625l0 -6.234375q0 -0.28125 -0.15625 -0.421875q-0.15625 -0.140625 -0.484375 -0.234375q-0.3125 -0.09375 -0.796875 -0.1875l-0.1875 -0.03125l0 -0.96875l2.984375 0l0.234375 2.125l0.0625 0.09375l0 6.71875q0 0.046875 0.21875 0.09375q0.234375 0.046875 0.546875 0.078125q0.328125 0.015625 0.578125 0.015625l0.078125 0l0 0.890625l-4.703125 0zm11.3125 0l-4.703125 0l0 -0.890625l0.046875 0q0.265625 0 0.578125 -0.015625q0.328125 -0.03125 0.5625 -0.078125q0.234375 -0.046875 0.234375 -0.09375l0 -6.109375q0 -0.609375 -0.171875 -1.0q-0.15625 -0.390625 -0.515625 -0.578125q-0.34375 -0.203125 -0.9375 -0.203125q-0.625 0 -1.21875 0.25q-0.578125 0.234375 -1.125 0.71875q-0.546875 0.484375 -1.109375 1.25l0 -1.015625q0.53125 -0.796875 1.125 -1.328125q0.609375 -0.546875 1.28125 -0.828125q0.6875 -0.28125 1.46875 -0.28125q0.921875 0 1.546875 0.3125q0.625 0.296875 0.96875 0.921875q0.34375 0.625 0.34375 1.578125l0 5.453125q0 0.40625 0.1875 0.640625q0.1875 0.234375 0.53125 0.328125q0.359375 0.078125 0.84375 0.078125l0.0625 0l0 0.890625zm0.76483154 -8.90625l0 -1.015625l0.203125 0q0.625 0 1.046875 -0.078125q0.4375 -0.09375 0.65625 -0.34375q0.21875 -0.265625 0.21875 -0.796875l1.203125 1.125l3.5625 0l0 1.109375l-6.890625 0zm3.65625 5.859375q0 0.796875 0.21875 1.25q0.21875 0.4375 0.640625 0.625q0.4375 0.1875 1.046875 0.1875q0.484375 0 0.890625 -0.0625q0.40625 -0.078125 0.5625 -0.109375l0 1.125q-0.1875 0.046875 -0.46875 0.09375q-0.28125 0.0625 -0.578125 0.09375q-0.296875 0.046875 -0.625 0.046875q-0.875 0 -1.640625 -0.25q-0.765625 -0.265625 -1.25 -0.96875q-0.46875 -0.703125 -0.46875 -2.0l0 -6.71875l0.140625 -0.15625l0 -2.984375l1.53125 0l0 9.828125zm6.4328003 -1.859375q0 1.078125 0.25 1.84375q0.25 0.765625 0.71875 1.234375q0.46875 0.46875 1.078125 0.6875q0.609375 0.21875 1.3125 0.21875q0.78125 0 1.359375 -0.265625q0.578125 -0.28125 1.0 -0.703125q0.421875 -0.4375 0.71875 -0.921875l0.890625 0.71875q-0.34375 0.65625 -0.9375 1.1875q-0.578125 0.53125 -1.359375 0.828125q-0.765625 0.28125 -1.71875 0.28125q-1.40625 0 -2.546875 -0.59375q-1.140625 -0.59375 -1.8125 -1.75q-0.65625 -1.15625 -0.65625 -2.78125q0 -1.59375 0.609375 -2.765625q0.609375 -1.1875 1.65625 -1.84375q1.0625 -0.671875 2.421875 -0.671875q1.09375 0 1.890625 0.359375q0.8125 0.34375 1.34375 1.0625q0.546875 0.703125 0.828125 1.765625q0.28125 1.0625 0.28125 2.484375l-7.71875 0l0 -1.078125l6.484375 0l-0.484375 0.40625q-0.03125 -1.0625 -0.1875 -1.796875q-0.15625 -0.75 -0.46875 -1.203125q-0.3125 -0.453125 -0.796875 -0.65625q-0.484375 -0.203125 -1.171875 -0.203125q-0.65625 0 -1.203125 0.25q-0.546875 0.25 -0.953125 0.78125q-0.40625 0.515625 -0.625 1.296875q-0.203125 0.78125 -0.203125 1.828125zm19.324951 4.90625l-4.640625 0l0 -0.984375l0.03125 0q0.375 0 0.734375 0q0.375 -0.015625 0.609375 -0.046875q0.234375 -0.046875 0.234375 -0.109375l-2.96875 -3.5l-0.109375 -0.046875l-3.15625 -3.78125q-0.171875 -0.203125 -0.359375 -0.328125q-0.1875 -0.125 -0.4375 -0.171875q-0.234375 -0.0625 -0.609375 -0.0625l-0.046875 0l0 -0.984375l4.5625 0l0 0.984375l-0.03125 0q-0.359375 0 -0.71875 0.015625q-0.34375 0 -0.578125 0.03125q-0.234375 0.03125 -0.234375 0.078125l2.796875 3.390625l0.125 0.046875l3.25 3.859375q0.203125 0.203125 0.390625 0.34375q0.1875 0.140625 0.4375 0.21875q0.25 0.0625 0.671875 0.0625l0.046875 0l0 0.984375zm-10.96875 0l0 -0.984375l0.0625 0q0.5 0 0.84375 -0.171875q0.34375 -0.171875 0.6875 -0.578125l3.0 -3.546875l0.859375 0.640625l-2.734375 3.234375q0 0.125 0.234375 0.21875q0.234375 0.09375 0.59375 0.15625q0.359375 0.046875 0.734375 0.046875l0.046875 0l0 0.984375l-4.328125 0zm6.25 -4.9375l-0.8125 -0.703125l2.609375 -3.0q0 -0.109375 -0.234375 -0.203125q-0.21875 -0.09375 -0.5625 -0.140625q-0.34375 -0.046875 -0.71875 -0.046875l-0.078125 0l0 -0.984375l4.25 0l0 0.984375l-0.046875 0q-0.296875 0 -0.546875 0.0625q-0.234375 0.046875 -0.46875 0.21875q-0.21875 0.15625 -0.453125 0.421875l-2.9375 3.390625zm5.8264465 -3.96875l0 -1.015625l0.203125 0q0.625 0 1.046875 -0.078125q0.4375 -0.09375 0.65625 -0.34375q0.21875 -0.265625 0.21875 -0.796875l1.203125 1.125l3.5625 0l0 1.109375l-6.890625 0zm3.65625 5.859375q0 0.796875 0.21875 1.25q0.21875 0.4375 0.640625 0.625q0.4375 0.1875 1.046875 0.1875q0.484375 0 0.890625 -0.0625q0.40625 -0.078125 0.5625 -0.109375l0 1.125q-0.1875 0.046875 -0.46875 0.09375q-0.28125 0.0625 -0.578125 0.09375q-0.296875 0.046875 -0.625 0.046875q-0.875 0 -1.640625 -0.25q-0.765625 -0.265625 -1.25 -0.96875q-0.46875 -0.703125 -0.46875 -2.0l0 -6.71875l0.140625 -0.15625l0 -2.984375l1.53125 0l0 9.828125zm17.470093 -5.71875l-0.390625 0.125l2.578125 8.75l1.8125 0l2.390625 -8.203125q0.109375 -0.375 0.3125 -0.5625q0.21875 -0.203125 0.53125 -0.28125q0.3125 -0.09375 0.65625 -0.09375l0.078125 0l0 -0.984375l-4.28125 0l0 0.984375l0.09375 0q0.40625 0 0.734375 0.046875q0.34375 0.046875 0.546875 0.140625q0.21875 0.09375 0.21875 0.21875l-2.109375 7.671875l0.234375 0.1875l-2.609375 -9.25l-1.625 0l-2.640625 9.0625l0.265625 0.203125l-2.1875 -8.125q0 -0.078125 0.21875 -0.109375q0.234375 -0.03125 0.59375 -0.03125q0.375 -0.015625 0.796875 -0.015625l0.09375 0l0 -0.984375l-4.65625 0l0 0.984375l0.0625 0q0.375 0 0.65625 0.0625q0.296875 0.0625 0.5 0.234375q0.203125 0.171875 0.296875 0.5l2.359375 8.34375l1.8125 0l2.65625 -8.875zm11.306244 -3.3125q-0.53125 0 -0.875 -0.296875q-0.328125 -0.296875 -0.328125 -0.890625q0 -0.578125 0.328125 -0.875q0.34375 -0.296875 0.875 -0.296875q0.53125 0 0.875 0.296875q0.34375 0.296875 0.34375 0.875q0 0.59375 -0.34375 0.890625q-0.34375 0.296875 -0.875 0.296875zm0.953125 2.0625l0 8.171875q0 0.578125 0.421875 0.765625q0.4375 0.1875 1.171875 0.1875l0.046875 0l0 0.890625l-4.921875 0l0 -0.890625l0.0625 0q0.71875 0 1.140625 -0.1875q0.4375 -0.1875 0.4375 -0.765625l0 -6.328125q0 -0.40625 -0.359375 -0.546875q-0.34375 -0.140625 -1.09375 -0.296875l-0.1875 -0.03125l0 -0.96875l3.28125 0zm2.9685974 10.015625l0 -0.890625l0.0625 0q0.484375 0 0.8281555 -0.078125q0.359375 -0.09375 0.546875 -0.328125q0.1875 -0.234375 0.1875 -0.640625l0 -6.234375q0 -0.28125 -0.15625 -0.421875q-0.15625 -0.140625 -0.484375 -0.234375q-0.3125 -0.09375 -0.7969055 -0.1875l-0.1875 -0.03125l0 -0.96875l2.9844055 0l0.234375 2.125l0.0625 0.09375l0 6.71875q0 0.046875 0.21875 0.09375q0.234375 0.046875 0.546875 0.078125q0.328125 0.015625 0.578125 0.015625l0.078125 0l0 0.890625l-4.7031555 0zm11.3125305 0l-4.703125 0l0 -0.890625l0.046875 0q0.265625 0 0.578125 -0.015625q0.328125 -0.03125 0.5625 -0.078125q0.234375 -0.046875 0.234375 -0.09375l0 -6.109375q0 -0.609375 -0.171875 -1.0q-0.15625 -0.390625 -0.515625 -0.578125q-0.34375 -0.203125 -0.9375 -0.203125q-0.625 0 -1.21875 0.25q-0.578125 0.234375 -1.125 0.71875q-0.546875 0.484375 -1.109375 1.25l0 -1.015625q0.53125 -0.796875 1.125 -1.328125q0.609375 -0.546875 1.28125 -0.828125q0.6875 -0.28125 1.46875 -0.28125q0.921875 0 1.546875 0.3125q0.625 0.296875 0.96875 0.921875q0.34375 0.625 0.34375 1.578125l0 5.453125q0 0.40625 0.1875 0.640625q0.1875 0.234375 0.53125 0.328125q0.359375 0.078125 0.84375 0.078125l0.0625 0l0 0.890625zm10.967957 -1.734375q0 0.40625 0.421875 0.546875q0.421875 0.125 1.109375 0.203125l0.09375 0.015625l0 0.96875l-2.984375 0l-0.234375 -2.1875l-0.0625 -0.015625l0 -10.09375q0 -0.28125 -0.171875 -0.421875q-0.15625 -0.140625 -0.484375 -0.234375q-0.328125 -0.09375 -0.828125 -0.1875l-0.1875 -0.03125l0 -0.96875l3.328125 0l0 12.40625zm-4.953125 -8.46875q0.828125 0 1.46875 0.28125q0.640625 0.28125 1.171875 0.8125q0.53125 0.515625 0.984375 1.296875l-0.0625 1.234375q-0.453125 -0.84375 -0.984375 -1.390625q-0.515625 -0.5625 -1.125 -0.8125q-0.609375 -0.265625 -1.359375 -0.265625q-0.71875 0 -1.28125 0.28125q-0.5625 0.265625 -0.9375 0.78125q-0.375 0.515625 -0.5625 1.296875q-0.171875 0.78125 -0.171875 1.765625q0 0.953125 0.171875 1.703125q0.171875 0.734375 0.515625 1.25q0.34375 0.515625 0.890625 0.78125q0.546875 0.25 1.265625 0.25q0.78125 0 1.421875 -0.265625q0.640625 -0.265625 1.171875 -0.8125q0.546875 -0.5625 1.03125 -1.375l0.015625 1.140625q-0.484375 0.78125 -1.03125 1.328125q-0.53125 0.546875 -1.21875 0.84375q-0.671875 0.28125 -1.53125 0.28125q-1.421875 0 -2.421875 -0.640625q-0.984375 -0.640625 -1.515625 -1.796875q-0.53125 -1.15625 -0.53125 -2.6875q0 -1.546875 0.546875 -2.734375q0.5625 -1.1875 1.59375 -1.859375q1.046875 -0.6875 2.484375 -0.6875zm17.993164 5.203125q0 1.578125 -0.625 2.765625q-0.625 1.171875 -1.765625 1.8125q-1.125 0.625 -2.625 0.625q-1.53125 0 -2.671875 -0.625q-1.125 -0.640625 -1.75 -1.8125q-0.625 -1.1875 -0.625 -2.765625q0 -1.1875 0.359375 -2.140625q0.359375 -0.96875 1.03125 -1.65625q0.671875 -0.6875 1.59375 -1.046875q0.921875 -0.359375 2.0625 -0.359375q1.140625 0 2.046875 0.359375q0.921875 0.359375 1.59375 1.046875q0.671875 0.6875 1.015625 1.65625q0.359375 0.953125 0.359375 2.140625zm-8.296875 0q0 1.34375 0.359375 2.265625q0.375 0.90625 1.09375 1.359375q0.734375 0.453125 1.828125 0.453125q1.078125 0 1.796875 -0.453125q0.734375 -0.453125 1.09375 -1.359375q0.375 -0.921875 0.375 -2.265625q0 -1.3125 -0.375 -2.203125q-0.359375 -0.90625 -1.09375 -1.375q-0.71875 -0.484375 -1.796875 -0.484375q-1.09375 0 -1.828125 0.484375q-0.71875 0.46875 -1.09375 1.375q-0.359375 0.890625 -0.359375 2.203125zm17.466888 -3.765625l-0.390625 0.125l2.578125 8.75l1.8125 0l2.390625 -8.203125q0.109375 -0.375 0.3125 -0.5625q0.21875 -0.203125 0.53125 -0.28125q0.3125 -0.09375 0.65625 -0.09375l0.078125 0l0 -0.984375l-4.28125 0l0 0.984375l0.09375 0q0.40625 0 0.734375 0.046875q0.34375 0.046875 0.546875 0.140625q0.21875 0.09375 0.21875 0.21875l-2.109375 7.671875l0.234375 0.1875l-2.609375 -9.25l-1.625 0l-2.640625 9.0625l0.265625 0.203125l-2.1875 -8.125q0 -0.078125 0.21875 -0.109375q0.234375 -0.03125 0.59375 -0.03125q0.375 -0.015625 0.796875 -0.015625l0.09375 0l0 -0.984375l-4.65625 0l0 0.984375l0.0625 0q0.375 0 0.65625 0.0625q0.296875 0.0625 0.5 0.234375q0.203125 0.171875 0.296875 0.5l2.359375 8.34375l1.8125 0l2.65625 -8.875zm24.00061 3.765625q0 1.578125 -0.625 2.765625q-0.625 1.171875 -1.765625 1.8125q-1.125 0.625 -2.6249695 0.625q-1.53125 0 -2.671875 -0.625q-1.125 -0.640625 -1.75 -1.8125q-0.625 -1.1875 -0.625 -2.765625q0 -1.1875 0.359375 -2.140625q0.359375 -0.96875 1.03125 -1.65625q0.671875 -0.6875 1.59375 -1.046875q0.921875 -0.359375 2.0625 -0.359375q1.1405945 0 2.0468445 0.359375q0.921875 0.359375 1.59375 1.046875q0.671875 0.6875 1.015625 1.65625q0.359375 0.953125 0.359375 2.140625zm-8.2968445 0q0 1.34375 0.359375 2.265625q0.375 0.90625 1.09375 1.359375q0.734375 0.453125 1.828125 0.453125q1.0780945 0 1.7968445 -0.453125q0.734375 -0.453125 1.09375 -1.359375q0.375 -0.921875 0.375 -2.265625q0 -1.3125 -0.375 -2.203125q-0.359375 -0.90625 -1.09375 -1.375q-0.71875 -0.484375 -1.7968445 -0.484375q-1.09375 0 -1.828125 0.484375q-0.71875 0.46875 -1.09375 1.375q-0.359375 0.890625 -0.359375 2.203125zm9.80069 -5.015625l6.671875 0l0 1.109375l-6.671875 0l0 -1.109375zm7.484375 -4.1875l0 1.234375q-0.28125 -0.078125 -0.75 -0.171875q-0.453125 -0.09375 -1.015625 -0.09375q-0.625 0 -1.078125 0.1875q-0.4375 0.1875 -0.6875 0.65625q-0.234375 0.453125 -0.234375 1.296875l0 10.015625q0 0.046875 0.265625 0.09375q0.28125 0.046875 0.671875 0.078125q0.40625 0.015625 0.796875 0.015625l0.453125 0l0 0.890625l-5.84375 0l0 -0.890625l0.3125 0q0.8125 0 1.25 -0.203125q0.4375 -0.21875 0.4375 -0.84375l0 -9.25q0 -1.28125 0.5 -1.953125q0.515625 -0.6875 1.34375 -0.96875q0.84375 -0.28125 1.796875 -0.28125q0.546875 0 1.046875 0.0625q0.515625 0.0625 0.734375 0.125z" fill-rule="nonzero"/><path fill="#000000" d="m417.19138 50.96762q0 -0.453125 -0.21875 -0.75q-0.203125 -0.296875 -0.578125 -0.484375q-0.375 -0.1875 -0.859375 -0.3125q-0.46875 -0.125 -0.96875 -0.234375q-0.609375 -0.140625 -1.21875 -0.328125q-0.59375 -0.1875 -1.078125 -0.5q-0.484375 -0.328125 -0.78125 -0.828125q-0.28125 -0.515625 -0.28125 -1.28125q0 -0.859375 0.421875 -1.5q0.4375 -0.65625 1.25 -1.0q0.828125 -0.359375 1.984375 -0.359375q0.921875 0 1.59375 0.109375q0.6875 0.109375 1.140625 0.265625q0.453125 0.140625 0.6875 0.28125l0 2.34375l-1.640625 0l0 -1.9375q0.1875 0 0.328125 0.0625q0.140625 0.046875 0.21875 0.15625q0.078125 0.09375 0.125 0.265625q0.046875 0.171875 0.03125 0.375q-0.21875 -0.265625 -0.59375 -0.453125q-0.375 -0.1875 -0.859375 -0.265625q-0.46875 -0.078125 -1.03125 -0.078125q-1.09375 0 -1.609375 0.40625q-0.515625 0.40625 -0.515625 1.109375q0 0.46875 0.21875 0.765625q0.21875 0.296875 0.578125 0.484375q0.375 0.1875 0.875 0.328125q0.5 0.140625 1.03125 0.25q0.59375 0.140625 1.1875 0.34375q0.609375 0.1875 1.078125 0.5q0.484375 0.3125 0.765625 0.828125q0.296875 0.5 0.296875 1.265625q0 0.875 -0.453125 1.5625q-0.453125 0.671875 -1.328125 1.0625q-0.875 0.375 -2.15625 0.375q-0.9375 0 -1.671875 -0.125q-0.734375 -0.109375 -1.3125 -0.328125q-0.5625 -0.21875 -0.96875 -0.453125l0 -2.453125l1.671875 0l0 2.578125q-0.296875 -0.15625 -0.453125 -0.296875q-0.15625 -0.15625 -0.21875 -0.296875q-0.046875 -0.15625 -0.046875 -0.3125q0 -0.171875 0.03125 -0.34375q0.296875 0.28125 0.734375 0.484375q0.4375 0.203125 1.0 0.328125q0.5625 0.125 1.234375 0.125q0.78125 0 1.296875 -0.1875q0.53125 -0.203125 0.796875 -0.578125q0.265625 -0.390625 0.265625 -0.96875zm5.5238037 -9.453125q-0.53125 0 -0.875 -0.296875q-0.328125 -0.296875 -0.328125 -0.890625q0 -0.578125 0.328125 -0.875q0.34375 -0.296875 0.875 -0.296875q0.53125 0 0.875 0.296875q0.34375 0.296875 0.34375 0.875q0 0.59375 -0.34375 0.890625q-0.34375 0.296875 -0.875 0.296875zm0.953125 2.0625l0 8.171875q0 0.578125 0.421875 0.765625q0.4375 0.1875 1.171875 0.1875l0.046875 0l0 0.890625l-4.921875 0l0 -0.890625l0.0625 0q0.71875 0 1.140625 -0.1875q0.4375 -0.1875 0.4375 -0.765625l0 -6.328125q0 -0.40625 -0.359375 -0.546875q-0.34375 -0.140625 -1.09375 -0.296875l-0.1875 -0.03125l0 -0.96875l3.28125 0zm4.4842224 9.15625l-0.203125 -0.265625l3.40625 0q0.5625 0 0.953125 -0.015625q0.40625 -0.03125 0.671875 -0.109375q0.28125 -0.09375 0.40625 -0.25q0.140625 -0.171875 0.171875 -0.4375l0.21875 -1.609375l1.09375 0l0 3.546875l-8.234375 0l0 -1.25l6.421875 -7.859375l0.28125 0.1875l-2.984375 0q-0.578125 0 -0.984375 0.03125q-0.40625 0.03125 -0.65625 0.125q-0.25 0.078125 -0.390625 0.234375q-0.140625 0.15625 -0.171875 0.421875l-0.203125 1.359375l-1.0625 0l0 -3.265625l7.734375 0l0 1.171875l-6.46875 7.984375zm9.923492 -4.046875q0 1.078125 0.25 1.84375q0.25 0.765625 0.71875 1.234375q0.46875 0.46875 1.078125 0.6875q0.609375 0.21875 1.3125 0.21875q0.78125 0 1.359375 -0.265625q0.578125 -0.28125 1.0 -0.703125q0.421875 -0.4375 0.71875 -0.921875l0.890625 0.71875q-0.34375 0.65625 -0.9375 1.1875q-0.578125 0.53125 -1.359375 0.828125q-0.765625 0.28125 -1.71875 0.28125q-1.40625 0 -2.546875 -0.59375q-1.140625 -0.59375 -1.8125 -1.75q-0.65625 -1.15625 -0.65625 -2.78125q0 -1.59375 0.609375 -2.765625q0.609375 -1.1875 1.65625 -1.84375q1.0625 -0.671875 2.421875 -0.671875q1.09375 0 1.890625 0.359375q0.8125 0.34375 1.34375 1.0625q0.546875 0.703125 0.828125 1.765625q0.28125 1.0625 0.28125 2.484375l-7.71875 0l0 -1.078125l6.484375 0l-0.484375 0.40625q-0.03125 -1.0625 -0.1875 -1.796875q-0.15625 -0.75 -0.46875 -1.203125q-0.3125 -0.453125 -0.796875 -0.65625q-0.484375 -0.203125 -1.171875 -0.203125q-0.65625 0 -1.203125 0.25q-0.546875 0.25 -0.953125 0.78125q-0.40625 0.515625 -0.625 1.296875q-0.203125 0.78125 -0.203125 1.828125zm17.7529 -0.921875l0.8125 0.328125l0 -0.484375l-1.140625 0.34375q1.3125 0 2.375 -0.40625q1.078125 -0.40625 1.71875 -1.171875q0.640625 -0.765625 0.640625 -1.8125q0 -0.96875 -0.5 -1.671875q-0.484375 -0.703125 -1.390625 -1.0625q-0.890625 -0.375 -2.109375 -0.375q-0.953125 0 -1.71875 0.25q-0.75 0.25 -1.28125 0.625q-0.515625 0.359375 -0.796875 0.703125l0 2.03125l1.640625 0l0 -2.125q-0.1875 0.015625 -0.328125 0.109375q-0.140625 0.078125 -0.234375 0.1875q-0.09375 0.109375 -0.15625 0.28125q-0.0625 0.171875 -0.0625 0.359375q0.390625 -0.53125 1.0625 -0.921875q0.6875 -0.40625 1.828125 -0.40625q0.6875 0 1.21875 0.21875q0.53125 0.21875 0.828125 0.703125q0.3125 0.46875 0.3125 1.296875q0 0.90625 -0.375 1.46875q-0.359375 0.5625 -1.03125 0.84375q-0.65625 0.265625 -1.578125 0.265625l-1.3125 0l0 1.125l1.53125 0q1.15625 0 1.84375 0.3125q0.6875 0.296875 1.0 0.890625q0.328125 0.59375 0.328125 1.484375q0 0.96875 -0.34375 1.5625q-0.328125 0.59375 -0.953125 0.875q-0.625 0.265625 -1.5 0.265625q-0.78125 0 -1.375 -0.234375q-0.59375 -0.21875 -1.0 -0.578125q-0.390625 -0.375 -0.65625 -0.828125q-0.25 -0.453125 -0.46875 -0.90625l-1.03125 0.671875q0.34375 0.875 0.9375 1.546875q0.59375 0.671875 1.46875 1.046875q0.890625 0.390625 2.140625 0.390625q1.34375 0 2.359375 -0.453125q1.03125 -0.453125 1.59375 -1.3125q0.578125 -0.859375 0.578125 -2.078125q0 -0.71875 -0.265625 -1.328125q-0.25 -0.625 -0.828125 -1.0625q-0.578125 -0.453125 -1.515625 -0.703125q-0.921875 -0.265625 -2.265625 -0.265625z" fill-rule="nonzero"/><path fill="#000000" fill-opacity="0.0" d="m493.1128 197.08923c0 11.08049 -8.982513 20.063004 -20.062988 20.063004l-16.425201 0c-11.080475 0 -20.062988 8.982498 -20.062988 20.062988l0 0c0 -11.08049 -8.982513 -20.062988 -20.062988 -20.062988l-16.425201 0l0 0c-11.080475 0 -20.062988 -8.982513 -20.062988 -20.063004z" fill-rule="evenodd"/><path fill="#000000" fill-opacity="0.0" d="m493.1128 197.08923c0 11.08049 -8.982513 20.063004 -20.062988 20.063004l-16.425201 0c-11.080475 0 -20.062988 8.982498 -20.062988 20.062988l0 0c0 -11.08049 -8.982513 -20.062988 -20.062988 -20.062988l-16.425201 0l0 0c-11.080475 0 -20.062988 -8.982513 -20.062988 -20.063004" fill-rule="evenodd"/><path stroke="#000000" stroke-width="1.0" stroke-linejoin="round" stroke-linecap="butt" d="m493.1128 197.08923c0 11.08049 -8.982513 20.063004 -20.062988 20.063004l-16.425201 0c-11.080475 0 -20.062988 8.982498 -20.062988 20.062988l0 0c0 -11.08049 -8.982513 -20.062988 -20.062988 -20.062988l-16.425201 0l0 0c-11.080475 0 -20.062988 -8.982513 -20.062988 -20.063004" fill-rule="evenodd"/><path fill="#000000" fill-opacity="0.0" d="m352.6914 237.18898l169.7638 0l0 42.01573l-169.7638 0z" fill-rule="evenodd"/><path fill="#000000" d="m365.24765 255.20273l0 -1.015625l0.203125 0q0.625 0 1.046875 -0.078125q0.4375 -0.09375 0.65625 -0.34375q0.21875 -0.265625 0.21875 -0.796875l1.203125 1.125l3.5625 0l0 1.109375l-6.890625 0zm3.65625 5.859375q0 0.796875 0.21875 1.25q0.21875 0.4375 0.640625 0.625q0.4375 0.1875 1.046875 0.1875q0.484375 0 0.890625 -0.0625q0.40625 -0.078125 0.5625 -0.109375l0 1.125q-0.1875 0.046875 -0.46875 0.09375q-0.28125 0.0625 -0.578125 0.09375q-0.296875 0.046875 -0.625 0.046875q-0.875 0 -1.640625 -0.25q-0.765625 -0.265625 -1.25 -0.96875q-0.46875 -0.703125 -0.46875 -2.0l0 -6.71875l0.140625 -0.15625l0 -2.984375l1.53125 0l0 9.828125zm11.4328 -3.046875l0 0.984375q-1.140625 0.140625 -1.96875 0.328125q-0.8125 0.1875 -1.359375 0.421875q-0.53125 0.21875 -0.859375 0.5q-0.3125 0.28125 -0.453125 0.640625q-0.125 0.34375 -0.125 0.75q0 0.53125 0.21875 0.890625q0.21875 0.34375 0.609375 0.53125q0.390625 0.171875 0.921875 0.171875q0.59375 0 1.09375 -0.28125q0.5 -0.28125 0.96875 -0.84375q0.46875 -0.5625 0.921875 -1.390625l0.015625 1.09375q-0.375 0.765625 -0.875 1.328125q-0.484375 0.5625 -1.109375 0.875q-0.625 0.296875 -1.421875 0.296875q-0.890625 0 -1.578125 -0.296875q-0.6875 -0.3125 -1.078125 -0.90625q-0.390625 -0.609375 -0.390625 -1.4375q0 -0.796875 0.34375 -1.375q0.359375 -0.578125 1.125 -1.0q0.78125 -0.4375 2.015625 -0.75q1.234375 -0.3125 2.984375 -0.53125zm-0.03125 6.09375l-0.234375 -2.171875l-0.09375 -0.109375l0 -4.859375q0 -0.71875 -0.1875 -1.140625q-0.1875 -0.4375 -0.625 -0.609375q-0.4375 -0.1875 -1.171875 -0.1875q-1.125 0 -1.84375 0.3125q-0.703125 0.3125 -1.0625 0.671875q0 -0.15625 0.078125 -0.3125q0.078125 -0.15625 0.203125 -0.296875q0.140625 -0.140625 0.3125 -0.234375q0.171875 -0.09375 0.40625 -0.125l0 2.15625l-1.640625 0l0 -2.265625q0.25 -0.21875 0.75 -0.4375q0.5 -0.234375 1.21875 -0.40625q0.734375 -0.1875 1.640625 -0.1875q0.75 0 1.40625 0.15625q0.65625 0.140625 1.140625 0.484375q0.484375 0.328125 0.765625 0.875q0.28125 0.53125 0.28125 1.3125l0 5.640625q0 0.265625 0.171875 0.421875q0.1875 0.140625 0.515625 0.203125q0.34375 0.0625 0.828125 0.125l0.09375 0.015625l0 0.96875l-2.953125 0zm11.126587 -10.15625l0 1.796875q-0.125 -0.03125 -0.3125 -0.046875q-0.1875 -0.03125 -0.390625 -0.046875q-0.1875 -0.015625 -0.375 -0.015625q-0.515625 0 -0.9375 0.109375q-0.40625 0.09375 -0.75 0.3125q-0.34375 0.21875 -0.65625 0.5625q-0.3125 0.328125 -0.65625 0.8125l0 -0.859375q0.46875 -0.875 0.953125 -1.46875q0.5 -0.609375 1.09375 -0.90625q0.59375 -0.3125 1.34375 -0.3125q0.21875 0 0.421875 0.015625q0.203125 0.015625 0.265625 0.046875zm-7.03125 10.15625l0 -0.890625l0.0625 0q0.71875 0 1.140625 -0.203125q0.421875 -0.21875 0.421875 -0.84375l0 -6.234375q0 -0.28125 -0.15625 -0.421875q-0.15625 -0.140625 -0.484375 -0.234375q-0.3125 -0.09375 -0.796875 -0.1875l-0.1875 -0.03125l0 -0.96875l2.984375 0l0.234375 2.5l0.0625 -0.078125l0 6.28125q0 0.171875 0.265625 0.265625q0.265625 0.09375 0.609375 0.125q0.359375 0.03125 0.625 0.03125l0.40625 0l0 0.890625l-5.1875 0zm18.619598 -8.90625q-0.859375 -0.03125 -1.46875 -0.015625q-0.59375 0.015625 -1.015625 0.109375q-0.421875 0.09375 -0.703125 0.328125l-0.28125 -0.078125q0.25 -0.59375 0.578125 -1.015625q0.34375 -0.4375 0.75 -0.703125q0.421875 -0.265625 0.953125 -0.359375q0.53125 -0.09375 1.1875 -0.03125l0 1.765625zm-5.984375 5.859375q-1.15625 0 -2.046875 -0.4375q-0.890625 -0.4375 -1.390625 -1.234375q-0.484375 -0.796875 -0.484375 -1.890625q0 -1.0625 0.5 -1.875q0.515625 -0.8125 1.390625 -1.265625q0.890625 -0.453125 2.03125 -0.453125q1.15625 0 2.046875 0.453125q0.890625 0.453125 1.390625 1.265625q0.515625 0.8125 0.515625 1.875q0 1.09375 -0.515625 1.890625q-0.5 0.796875 -1.390625 1.234375q-0.875 0.4375 -2.046875 0.4375zm0 -1.09375q0.75 0 1.25 -0.28125q0.515625 -0.28125 0.78125 -0.828125q0.265625 -0.546875 0.265625 -1.359375q0 -0.796875 -0.265625 -1.359375q-0.265625 -0.5625 -0.78125 -0.84375q-0.5 -0.296875 -1.25 -0.296875q-0.734375 0 -1.234375 0.296875q-0.5 0.28125 -0.765625 0.84375q-0.265625 0.5625 -0.265625 1.359375q0 0.8125 0.265625 1.359375q0.265625 0.546875 0.765625 0.828125q0.5 0.28125 1.234375 0.28125zm-0.828125 8.6875q-1.203125 0 -2.15625 -0.234375q-0.9375 -0.234375 -1.484375 -0.75q-0.53125 -0.5 -0.53125 -1.34375q0 -0.546875 0.234375 -0.953125q0.25 -0.40625 0.75 -0.765625q0.5 -0.34375 1.265625 -0.75l0.5625 0.359375q-0.484375 0.34375 -0.78125 0.640625q-0.28125 0.3125 -0.40625 0.609375q-0.109375 0.296875 -0.109375 0.65625q0 0.453125 0.265625 0.75q0.265625 0.3125 0.859375 0.484375q0.609375 0.1875 1.59375 0.1875l1.578125 0q1.0 0 1.6875 -0.234375q0.6875 -0.234375 1.0625 -0.671875q0.375 -0.421875 0.375 -1.015625q0 -0.5625 -0.375 -0.84375q-0.375 -0.265625 -1.328125 -0.265625l-4.265625 0l-0.046875 0q-0.78125 -0.15625 -1.296875 -0.40625q-0.515625 -0.265625 -0.75 -0.625q-0.21875 -0.375 -0.21875 -0.84375q0 -0.515625 0.25 -0.921875q0.25 -0.421875 0.71875 -0.796875q0.484375 -0.390625 1.15625 -0.734375l0.5625 0.390625q-0.40625 0.28125 -0.65625 0.53125q-0.25 0.25 -0.375 0.484375q-0.125 0.234375 -0.125 0.515625q0 0.4375 0.359375 0.640625q0.359375 0.1875 1.0625 0.1875l3.640625 0q1.046875 0 1.75 0.265625q0.71875 0.25 1.09375 0.78125q0.390625 0.53125 0.390625 1.375q0 1.125 -0.640625 1.859375q-0.625 0.734375 -1.6875 1.078125q-1.0625 0.359375 -2.34375 0.359375l-1.640625 0zm9.202118 -9.453125q0 1.078125 0.25 1.84375q0.25 0.765625 0.71875 1.234375q0.46875 0.46875 1.078125 0.6875q0.609375 0.21875 1.3125 0.21875q0.78125 0 1.359375 -0.265625q0.578125 -0.28125 1.0 -0.703125q0.421875 -0.4375 0.71875 -0.921875l0.890625 0.71875q-0.34375 0.65625 -0.9375 1.1875q-0.578125 0.53125 -1.359375 0.828125q-0.765625 0.28125 -1.71875 0.28125q-1.40625 0 -2.546875 -0.59375q-1.140625 -0.59375 -1.8125 -1.75q-0.65625 -1.15625 -0.65625 -2.78125q0 -1.59375 0.609375 -2.765625q0.609375 -1.1875 1.65625 -1.84375q1.0625 -0.671875 2.421875 -0.671875q1.09375 0 1.890625 0.359375q0.8125 0.34375 1.34375 1.0625q0.546875 0.703125 0.828125 1.765625q0.28125 1.0625 0.28125 2.484375l-7.71875 0l0 -1.078125l6.484375 0l-0.484375 0.40625q-0.03125 -1.0625 -0.1875 -1.796875q-0.15625 -0.75 -0.46875 -1.203125q-0.3125 -0.453125 -0.796875 -0.65625q-0.484375 -0.203125 -1.171875 -0.203125q-0.65625 0 -1.203125 0.25q-0.546875 0.25 -0.953125 0.78125q-0.40625 0.515625 -0.625 1.296875q-0.203125 0.78125 -0.203125 1.828125zm8.417877 -4.0l0 -1.015625l0.203125 0q0.625 0 1.046875 -0.078125q0.4375 -0.09375 0.65625 -0.34375q0.21875 -0.265625 0.21875 -0.796875l1.203125 1.125l3.5625 0l0 1.109375l-6.890625 0zm3.65625 5.859375q0 0.796875 0.21875 1.25q0.21875 0.4375 0.640625 0.625q0.4375 0.1875 1.046875 0.1875q0.484375 0 0.890625 -0.0625q0.40625 -0.078125 0.5625 -0.109375l0 1.125q-0.1875 0.046875 -0.46875 0.09375q-0.28125 0.0625 -0.578125 0.09375q-0.296875 0.046875 -0.625 0.046875q-0.875 0 -1.640625 -0.25q-0.765625 -0.265625 -1.25 -0.96875q-0.46875 -0.703125 -0.46875 -2.0l0 -6.71875l0.140625 -0.15625l0 -2.984375l1.53125 0l0 9.828125zm11.735718 -2.734375q0 -1.46875 0.3125 -2.71875q0.3125 -1.25 0.859375 -2.28125q0.5625 -1.046875 1.234375 -1.828125q0.671875 -0.78125 1.359375 -1.328125l0 -0.0625l-1.328125 0q-0.796875 0.53125 -1.546875 1.34375q-0.734375 0.796875 -1.328125 1.859375q-0.578125 1.046875 -0.921875 2.3125q-0.328125 1.265625 -0.328125 2.703125q0 1.4375 0.328125 2.703125q0.34375 1.265625 0.921875 2.3125q0.59375 1.046875 1.328125 1.859375q0.75 0.8125 1.546875 1.328125l1.328125 0l0 -0.046875q-0.6875 -0.5625 -1.359375 -1.34375q-0.671875 -0.78125 -1.234375 -1.8125q-0.546875 -1.03125 -0.859375 -2.28125q-0.3125 -1.25 -0.3125 -2.71875zm10.276489 9.9375l-5.171875 0l0 -0.890625l0.0625 0q0.46875 0 0.8125 -0.09375q0.34375 -0.078125 0.53125 -0.3125q0.1875 -0.234375 0.1875 -0.640625l0 -10.390625q0 -0.28125 -0.171875 -0.421875q-0.15625 -0.140625 -0.484375 -0.234375q-0.3125 -0.09375 -0.796875 -0.1875l-0.1875 -0.03125l0 -0.96875l2.984375 0l0.21875 2.3125l0.09375 0.109375l0 10.671875q0 0.0625 0.234375 0.109375q0.25 0.046875 0.578125 0.0625q0.34375 0.015625 0.609375 0.015625l0.5 0l0 0.890625zm1.359375 -3.953125q-0.8125 0 -1.46875 -0.28125q-0.640625 -0.28125 -1.171875 -0.8125q-0.53125 -0.53125 -1.0 -1.296875l0.0625 -1.203125q0.484375 0.8125 1.0 1.359375q0.53125 0.53125 1.140625 0.8125q0.625 0.28125 1.34375 0.28125q0.734375 0 1.28125 -0.265625q0.5625 -0.265625 0.921875 -0.796875q0.375 -0.53125 0.5625 -1.296875q0.1875 -0.765625 0.1875 -1.765625q0 -0.96875 -0.171875 -1.703125q-0.171875 -0.734375 -0.515625 -1.25q-0.34375 -0.515625 -0.890625 -0.765625q-0.53125 -0.265625 -1.265625 -0.265625q-0.765625 0 -1.40625 0.28125q-0.625 0.265625 -1.171875 0.8125q-0.53125 0.546875 -1.03125 1.375l-0.046875 -1.171875q0.5 -0.78125 1.046875 -1.328125q0.546875 -0.546875 1.21875 -0.828125q0.6875 -0.296875 1.5625 -0.296875q1.40625 0 2.390625 0.65625q0.984375 0.640625 1.5 1.796875q0.53125 1.140625 0.53125 2.6875q0 1.53125 -0.546875 2.71875q-0.53125 1.1875 -1.578125 1.875q-1.03125 0.671875 -2.484375 0.671875zm13.316864 -10.359375l0 1.796875q-0.125 -0.03125 -0.3125 -0.046875q-0.1875 -0.03125 -0.390625 -0.046875q-0.1875 -0.015625 -0.375 -0.015625q-0.515625 0 -0.9375 0.109375q-0.40625 0.09375 -0.75 0.3125q-0.34375 0.21875 -0.65625 0.5625q-0.3125 0.328125 -0.65625 0.8125l0 -0.859375q0.46875 -0.875 0.953125 -1.46875q0.5 -0.609375 1.09375 -0.90625q0.59375 -0.3125 1.34375 -0.3125q0.21875 0 0.421875 0.015625q0.203125 0.015625 0.265625 0.046875zm-7.03125 10.15625l0 -0.890625l0.0625 0q0.71875 0 1.140625 -0.203125q0.421875 -0.21875 0.421875 -0.84375l0 -6.234375q0 -0.28125 -0.15625 -0.421875q-0.15625 -0.140625 -0.484375 -0.234375q-0.3125 -0.09375 -0.796875 -0.1875l-0.1875 -0.03125l0 -0.96875l2.984375 0l0.234375 2.5l0.0625 -0.078125l0 6.28125q0 0.171875 0.265625 0.265625q0.265625 0.09375 0.609375 0.125q0.359375 0.03125 0.625 0.03125l0.40625 0l0 0.890625l-5.1875 0zm10.002472 -4.90625q0 1.078125 0.25 1.84375q0.25 0.765625 0.71875 1.234375q0.46875 0.46875 1.078125 0.6875q0.609375 0.21875 1.3125 0.21875q0.78125 0 1.359375 -0.265625q0.578125 -0.28125 1.0 -0.703125q0.421875 -0.4375 0.71875 -0.921875l0.890625 0.71875q-0.34375 0.65625 -0.9375 1.1875q-0.578125 0.53125 -1.359375 0.828125q-0.765625 0.28125 -1.71875 0.28125q-1.40625 0 -2.546875 -0.59375q-1.140625 -0.59375 -1.8125 -1.75q-0.65625 -1.15625 -0.65625 -2.78125q0 -1.59375 0.609375 -2.765625q0.609375 -1.1875 1.65625 -1.84375q1.0625 -0.671875 2.421875 -0.671875q1.09375 0 1.890625 0.359375q0.8125 0.34375 1.34375 1.0625q0.546875 0.703125 0.828125 1.765625q0.28125 1.0625 0.28125 2.484375l-7.71875 0l0 -1.078125l6.484375 0l-0.484375 0.40625q-0.03125 -1.0625 -0.1875 -1.796875q-0.15625 -0.75 -0.46875 -1.203125q-0.3125 -0.453125 -0.796875 -0.65625q-0.484375 -0.203125 -1.171875 -0.203125q-0.65625 0 -1.203125 0.25q-0.546875 0.25 -0.953125 0.78125q-0.40625 0.515625 -0.625 1.296875q-0.203125 0.78125 -0.203125 1.828125zm18.714325 3.171875q0 0.40625 0.421875 0.546875q0.421875 0.125 1.109375 0.203125l0.09375 0.015625l0 0.96875l-2.984375 0l-0.234375 -2.1875l-0.0625 -0.015625l0 -10.09375q0 -0.28125 -0.171875 -0.421875q-0.15625 -0.140625 -0.484375 -0.234375q-0.328125 -0.09375 -0.828125 -0.1875l-0.1875 -0.03125l0 -0.96875l3.328125 0l0 12.40625zm-4.953125 -8.46875q0.828125 0 1.46875 0.28125q0.640625 0.28125 1.171875 0.8125q0.53125 0.515625 0.984375 1.296875l-0.0625 1.234375q-0.453125 -0.84375 -0.984375 -1.390625q-0.515625 -0.5625 -1.125 -0.8125q-0.609375 -0.265625 -1.359375 -0.265625q-0.71875 0 -1.28125 0.28125q-0.5625 0.265625 -0.9375 0.78125q-0.375 0.515625 -0.5625 1.296875q-0.171875 0.78125 -0.171875 1.765625q0 0.953125 0.171875 1.703125q0.171875 0.734375 0.515625 1.25q0.34375 0.515625 0.890625 0.78125q0.546875 0.25 1.265625 0.25q0.78125 0 1.421875 -0.265625q0.640625 -0.265625 1.171875 -0.8125q0.546875 -0.5625 1.03125 -1.375l0.015625 1.140625q-0.484375 0.78125 -1.03125 1.328125q-0.53125 0.546875 -1.21875 0.84375q-0.671875 0.28125 -1.53125 0.28125q-1.421875 0 -2.421875 -0.640625q-0.984375 -0.640625 -1.515625 -1.796875q-0.53125 -1.15625 -0.53125 -2.6875q0 -1.546875 0.546875 -2.734375q0.5625 -1.1875 1.59375 -1.859375q1.046875 -0.6875 2.484375 -0.6875zm10.149414 -1.875q-0.53125 0 -0.875 -0.296875q-0.328125 -0.296875 -0.328125 -0.890625q0 -0.578125 0.328125 -0.875q0.34375 -0.296875 0.875 -0.296875q0.53125 0 0.875 0.296875q0.34375 0.296875 0.34375 0.875q0 0.59375 -0.34375 0.890625q-0.34375 0.296875 -0.875 0.296875zm0.953125 2.0625l0 8.171875q0 0.578125 0.421875 0.765625q0.4375 0.1875 1.171875 0.1875l0.046875 0l0 0.890625l-4.921875 0l0 -0.890625l0.0625 0q0.71875 0 1.140625 -0.1875q0.4375 -0.1875 0.4375 -0.765625l0 -6.328125q0 -0.40625 -0.359375 -0.546875q-0.34375 -0.140625 -1.09375 -0.296875l-0.1875 -0.03125l0 -0.96875l3.28125 0zm8.234222 9.09375q0.8125 0 1.40625 -0.265625q0.59375 -0.28125 1.0 -0.71875q0.421875 -0.4375 0.75 -0.921875l0.875 0.71875q-0.375 0.671875 -0.96875 1.203125q-0.578125 0.53125 -1.359375 0.828125q-0.765625 0.28125 -1.75 0.28125q-1.578125 0 -2.734375 -0.640625q-1.140625 -0.640625 -1.765625 -1.8125q-0.609375 -1.171875 -0.609375 -2.75q0 -1.609375 0.640625 -2.765625q0.640625 -1.171875 1.796875 -1.796875q1.171875 -0.640625 2.765625 -0.640625q0.984375 0 1.71875 0.171875q0.75 0.15625 1.25 0.375q0.515625 0.21875 0.734375 0.390625l0 2.828125l-1.6875 0l0 -2.40625q0.1875 0.015625 0.359375 0.09375q0.171875 0.0625 0.28125 0.171875q0.109375 0.109375 0.15625 0.25q0.0625 0.125 0.0625 0.265625q-0.40625 -0.421875 -1.171875 -0.703125q-0.765625 -0.296875 -1.703125 -0.296875q-1.171875 0 -1.9375 0.484375q-0.765625 0.46875 -1.140625 1.390625q-0.359375 0.90625 -0.359375 2.1875q0 0.984375 0.203125 1.75q0.203125 0.765625 0.625 1.296875q0.421875 0.515625 1.046875 0.78125q0.640625 0.25 1.515625 0.25zm5.0581055 -7.984375l0 -1.015625l0.203125 0q0.625 0 1.046875 -0.078125q0.4375 -0.09375 0.65625 -0.34375q0.21875 -0.265625 0.21875 -0.796875l1.203125 1.125l3.5625 0l0 1.109375l-6.890625 0zm3.65625 5.859375q0 0.796875 0.21875 1.25q0.21875 0.4375 0.640625 0.625q0.4375 0.1875 1.046875 0.1875q0.484375 0 0.890625 -0.0625q0.40625 -0.078125 0.5625 -0.109375l0 1.125q-0.1875 0.046875 -0.46875 0.09375q-0.28125 0.0625 -0.578125 0.09375q-0.296875 0.046875 -0.625 0.046875q-0.875 0 -1.640625 -0.25q-0.765625 -0.265625 -1.25 -0.96875q-0.46875 -0.703125 -0.46875 -2.0l0 -6.71875l0.140625 -0.15625l0 -2.984375l1.53125 0l0 9.828125zm8.352966 -2.734375q0 1.46875 -0.328125 2.71875q-0.3125 1.25 -0.859375 2.28125q-0.546875 1.03125 -1.21875 1.8125q-0.671875 0.78125 -1.359375 1.34375l0 0.046875l1.328125 0q0.796875 -0.515625 1.53125 -1.328125q0.734375 -0.8125 1.328125 -1.859375q0.59375 -1.046875 0.921875 -2.3125q0.34375 -1.265625 0.34375 -2.703125q0 -1.4375 -0.34375 -2.703125q-0.328125 -1.265625 -0.921875 -2.3125q-0.59375 -1.0625 -1.328125 -1.859375q-0.734375 -0.8125 -1.53125 -1.34375l-1.328125 0l0 0.0625q0.6875 0.546875 1.359375 1.328125q0.671875 0.78125 1.21875 1.828125q0.546875 1.03125 0.859375 2.28125q0.328125 1.25 0.328125 2.71875z" fill-rule="nonzero"/></g></svg>