<svg version="1.1" viewBox="0.0 0.0 702.3805774278215 408.36745406824144" fill="none" stroke="none" stroke-linecap="square" stroke-miterlimit="10" xmlns:xlink="http://www.w3.org/1999/xlink" xmlns="http://www.w3.org/2000/svg"><clipPath id="p.0"><path d="m0 0l702.38055 0l0 408.36746l-702.38055 0l0 -408.36746z" clip-rule="nonzero"/></clipPath><g clip-path="url(#p.0)"><path fill="#000000" fill-opacity="0.0" d="m0 0l702.38055 0l0 408.36746l-702.38055 0z" fill-rule="evenodd"/><path fill="#93c47d" d="m122.35958 48.372704l0 0c0 -13.359203 10.829765 -24.188976 24.188972 -24.188976l0 0c6.4153137 0 12.567886 2.5484734 17.104187 7.0847874c4.536316 4.536314 7.084793 10.688875 7.084793 17.104189l0 0c0 13.359203 -10.829773 24.188972 -24.18898 24.188972l0 0c-13.359207 0 -24.188972 -10.829769 -24.188972 -24.188972z" fill-rule="evenodd"/><path stroke="#000000" stroke-width="1.0" stroke-linejoin="round" stroke-linecap="butt" d="m122.35958 48.372704l0 0c0 -13.359203 10.829765 -24.188976 24.188972 -24.188976l0 0c6.4153137 0 12.567886 2.5484734 17.104187 7.0847874c4.536316 4.536314 7.084793 10.688875 7.084793 17.104189l0 0c0 13.359203 -10.829773 24.188972 -24.18898 24.188972l0 0c-13.359207 0 -24.188972 -10.829769 -24.188972 -24.188972z" fill-rule="evenodd"/><path fill="#93c47d" d="m122.35958 351.48294l0 0c0 -13.359192 10.829765 -24.188965 24.188972 -24.188965l0 0c6.4153137 0 12.567886 2.548462 17.104187 7.084778c4.536316 4.536316 7.084793 10.688873 7.084793 17.104187l0 0c0 13.359192 -10.829773 24.188965 -24.18898 24.188965l0 0c-13.359207 0 -24.188972 -10.829773 -24.188972 -24.188965z" fill-rule="evenodd"/><path stroke="#000000" stroke-width="1.0" stroke-linejoin="round" stroke-linecap="butt" d="m122.35958 351.48294l0 0c0 -13.359192 10.829765 -24.188965 24.188972 -24.188965l0 0c6.4153137 0 12.567886 2.548462 17.104187 7.084778c4.536316 4.536316 7.084793 10.688873 7.084793 17.104187l0 0c0 13.359192 -10.829773 24.188965 -24.18898 24.188965l0 0c-13.359207 0 -24.188972 -10.829773 -24.188972 -24.188965z" fill-rule="evenodd"/><path fill="#93c47d" d="m122.35958 108.99344l0 0c0 -13.3592 10.829765 -24.18898 24.188972 -24.18898l0 0c6.4153137 0 12.567886 2.5484772 17.104187 7.084793c4.536316 4.5363083 7.084793 10.688873 7.084793 17.104187l0 0c0 13.3592 -10.829773 24.18898 -24.18898 24.18898l0 0c-13.359207 0 -24.188972 -10.829781 -24.188972 -24.18898z" fill-rule="evenodd"/><path stroke="#000000" stroke-width="1.0" stroke-linejoin="round" stroke-linecap="butt" d="m122.35958 108.99344l0 0c0 -13.3592 10.829765 -24.18898 24.188972 -24.18898l0 0c6.4153137 0 12.567886 2.5484772 17.104187 7.084793c4.536316 4.5363083 7.084793 10.688873 7.084793 17.104187l0 0c0 13.3592 -10.829773 24.18898 -24.18898 24.18898l0 0c-13.359207 0 -24.188972 -10.829781 -24.188972 -24.18898z" fill-rule="evenodd"/><path fill="#93c47d" d="m122.35958 169.61679l0 0c0 -13.359192 10.829765 -24.188965 24.188972 -24.188965l0 0c6.4153137 0 12.567886 2.5484772 17.104187 7.084778c4.536316 4.536316 7.084793 10.688873 7.084793 17.104187l0 0c0 13.359207 -10.829773 24.18898 -24.18898 24.18898l0 0c-13.359207 0 -24.188972 -10.829773 -24.188972 -24.18898z" fill-rule="evenodd"/><path stroke="#000000" stroke-width="1.0" stroke-linejoin="round" stroke-linecap="butt" d="m122.35958 169.61679l0 0c0 -13.359192 10.829765 -24.188965 24.188972 -24.188965l0 0c6.4153137 0 12.567886 2.5484772 17.104187 7.084778c4.536316 4.536316 7.084793 10.688873 7.084793 17.104187l0 0c0 13.359207 -10.829773 24.18898 -24.18898 24.18898l0 0c-13.359207 0 -24.188972 -10.829773 -24.188972 -24.18898z" fill-rule="evenodd"/><path fill="#93c47d" d="m122.35958 230.23885l0 0c0 -13.359207 10.829765 -24.18898 24.188972 -24.18898l0 0c6.4153137 0 12.567886 2.5484772 17.104187 7.084793c4.536316 4.536316 7.084793 10.688873 7.084793 17.104187l0 0c0 13.359207 -10.829773 24.18898 -24.18898 24.18898l0 0c-13.359207 0 -24.188972 -10.829773 -24.188972 -24.18898z" fill-rule="evenodd"/><path stroke="#000000" stroke-width="1.0" stroke-linejoin="round" stroke-linecap="butt" d="m122.35958 230.23885l0 0c0 -13.359207 10.829765 -24.18898 24.188972 -24.18898l0 0c6.4153137 0 12.567886 2.5484772 17.104187 7.084793c4.536316 4.536316 7.084793 10.688873 7.084793 17.104187l0 0c0 13.359207 -10.829773 24.18898 -24.18898 24.18898l0 0c-13.359207 0 -24.188972 -10.829773 -24.188972 -24.18898z" fill-rule="evenodd"/><path fill="#93c47d" d="m122.35958 290.8609l0 0c0 -13.359222 10.829765 -24.188995 24.188972 -24.188995l0 0c6.4153137 0 12.567886 2.5484924 17.104187 7.0848083c4.536316 4.536316 7.084793 10.688873 7.084793 17.104187l0 0c0 13.359192 -10.829773 24.188965 -24.18898 24.188965l0 0c-13.359207 0 -24.188972 -10.829773 -24.188972 -24.188965z" fill-rule="evenodd"/><path stroke="#000000" stroke-width="1.0" stroke-linejoin="round" stroke-linecap="butt" d="m122.35958 290.8609l0 0c0 -13.359222 10.829765 -24.188995 24.188972 -24.188995l0 0c6.4153137 0 12.567886 2.5484924 17.104187 7.0848083c4.536316 4.536316 7.084793 10.688873 7.084793 17.104187l0 0c0 13.359192 -10.829773 24.188965 -24.18898 24.188965l0 0c-13.359207 0 -24.188972 -10.829773 -24.188972 -24.188965z" fill-rule="evenodd"/><path fill="#666666" d="m532.21783 48.372704l0 0c0 -13.359203 10.829773 -24.188976 24.188965 -24.188976l0 0c6.415344 0 12.567871 2.5484734 17.104187 7.0847874c4.536316 4.536314 7.084839 10.688875 7.084839 17.104189l0 0c0 13.359203 -10.829773 24.188972 -24.189026 24.188972l0 0c-13.359192 0 -24.188965 -10.829769 -24.188965 -24.188972z" fill-rule="evenodd"/><path stroke="#000000" stroke-width="1.0" stroke-linejoin="round" stroke-linecap="butt" d="m532.21783 48.372704l0 0c0 -13.359203 10.829773 -24.188976 24.188965 -24.188976l0 0c6.415344 0 12.567871 2.5484734 17.104187 7.0847874c4.536316 4.536314 7.084839 10.688875 7.084839 17.104189l0 0c0 13.359203 -10.829773 24.188972 -24.189026 24.188972l0 0c-13.359192 0 -24.188965 -10.829769 -24.188965 -24.188972z" fill-rule="evenodd"/><path fill="#666666" d="m532.21783 351.48294l0 0c0 -13.359192 10.829773 -24.188965 24.188965 -24.188965l0 0c6.415344 0 12.567871 2.548462 17.104187 7.084778c4.536316 4.536316 7.084839 10.688873 7.084839 17.104187l0 0c0 13.359192 -10.829773 24.188965 -24.189026 24.188965l0 0c-13.359192 0 -24.188965 -10.829773 -24.188965 -24.188965z" fill-rule="evenodd"/><path stroke="#000000" stroke-width="1.0" stroke-linejoin="round" stroke-linecap="butt" d="m532.21783 351.48294l0 0c0 -13.359192 10.829773 -24.188965 24.188965 -24.188965l0 0c6.415344 0 12.567871 2.548462 17.104187 7.084778c4.536316 4.536316 7.084839 10.688873 7.084839 17.104187l0 0c0 13.359192 -10.829773 24.188965 -24.189026 24.188965l0 0c-13.359192 0 -24.188965 -10.829773 -24.188965 -24.188965z" fill-rule="evenodd"/><path fill="#666666" d="m532.21783 108.99344l0 0c0 -13.3592 10.829773 -24.18898 24.188965 -24.18898l0 0c6.415344 0 12.567871 2.5484772 17.104187 7.084793c4.536316 4.5363083 7.084839 10.688873 7.084839 17.104187l0 0c0 13.3592 -10.829773 24.18898 -24.189026 24.18898l0 0c-13.359192 0 -24.188965 -10.829781 -24.188965 -24.18898z" fill-rule="evenodd"/><path stroke="#000000" stroke-width="1.0" stroke-linejoin="round" stroke-linecap="butt" d="m532.21783 108.99344l0 0c0 -13.3592 10.829773 -24.18898 24.188965 -24.18898l0 0c6.415344 0 12.567871 2.5484772 17.104187 7.084793c4.536316 4.5363083 7.084839 10.688873 7.084839 17.104187l0 0c0 13.3592 -10.829773 24.18898 -24.189026 24.18898l0 0c-13.359192 0 -24.188965 -10.829781 -24.188965 -24.18898z" fill-rule="evenodd"/><path fill="#666666" d="m532.21783 169.61679l0 0c0 -13.359192 10.829773 -24.188965 24.188965 -24.188965l0 0c6.415344 0 12.567871 2.5484772 17.104187 7.084778c4.536316 4.536316 7.084839 10.688873 7.084839 17.104187l0 0c0 13.359207 -10.829773 24.18898 -24.189026 24.18898l0 0c-13.359192 0 -24.188965 -10.829773 -24.188965 -24.18898z" fill-rule="evenodd"/><path stroke="#000000" stroke-width="1.0" stroke-linejoin="round" stroke-linecap="butt" d="m532.21783 169.61679l0 0c0 -13.359192 10.829773 -24.188965 24.188965 -24.188965l0 0c6.415344 0 12.567871 2.5484772 17.104187 7.084778c4.536316 4.536316 7.084839 10.688873 7.084839 17.104187l0 0c0 13.359207 -10.829773 24.18898 -24.189026 24.18898l0 0c-13.359192 0 -24.188965 -10.829773 -24.188965 -24.18898z" fill-rule="evenodd"/><path fill="#666666" d="m532.21783 230.23885l0 0c0 -13.359207 10.829773 -24.18898 24.188965 -24.18898l0 0c6.415344 0 12.567871 2.5484772 17.104187 7.084793c4.536316 4.536316 7.084839 10.688873 7.084839 17.104187l0 0c0 13.359207 -10.829773 24.18898 -24.189026 24.18898l0 0c-13.359192 0 -24.188965 -10.829773 -24.188965 -24.18898z" fill-rule="evenodd"/><path stroke="#000000" stroke-width="1.0" stroke-linejoin="round" stroke-linecap="butt" d="m532.21783 230.23885l0 0c0 -13.359207 10.829773 -24.18898 24.188965 -24.18898l0 0c6.415344 0 12.567871 2.5484772 17.104187 7.084793c4.536316 4.536316 7.084839 10.688873 7.084839 17.104187l0 0c0 13.359207 -10.829773 24.18898 -24.189026 24.18898l0 0c-13.359192 0 -24.188965 -10.829773 -24.188965 -24.18898z" fill-rule="evenodd"/><path fill="#666666" d="m532.21783 290.8609l0 0c0 -13.359222 10.829773 -24.188995 24.188965 -24.188995l0 0c6.415344 0 12.567871 2.5484924 17.104187 7.0848083c4.536316 4.536316 7.084839 10.688873 7.084839 17.104187l0 0c0 13.359192 -10.829773 24.188965 -24.189026 24.188965l0 0c-13.359192 0 -24.188965 -10.829773 -24.188965 -24.188965z" fill-rule="evenodd"/><path stroke="#000000" stroke-width="1.0" stroke-linejoin="round" stroke-linecap="butt" d="m532.21783 290.8609l0 0c0 -13.359222 10.829773 -24.188995 24.188965 -24.188995l0 0c6.415344 0 12.567871 2.5484924 17.104187 7.0848083c4.536316 4.536316 7.084839 10.688873 7.084839 17.104187l0 0c0 13.359192 -10.829773 24.188965 -24.189026 24.188965l0 0c-13.359192 0 -24.188965 -10.829773 -24.188965 -24.188965z" fill-rule="evenodd"/><path fill="#ff0000" d="m327.28873 267.51968l0 0c0 -13.359207 10.829773 -24.18898 24.188965 -24.18898l0 0c6.4153137 0 12.567871 2.5484772 17.104187 7.084793c4.536316 4.536316 7.084778 10.688873 7.084778 17.104187l0 0c0 13.359192 -10.829773 24.188965 -24.188965 24.188965l0 0c-13.359192 0 -24.188965 -10.829773 -24.188965 -24.188965z" fill-rule="evenodd"/><path stroke="#000000" stroke-width="1.0" stroke-linejoin="round" stroke-linecap="butt" d="m327.28873 267.51968l0 0c0 -13.359207 10.829773 -24.18898 24.188965 -24.18898l0 0c6.4153137 0 12.567871 2.5484772 17.104187 7.084793c4.536316 4.536316 7.084778 10.688873 7.084778 17.104187l0 0c0 13.359192 -10.829773 24.188965 -24.188965 24.188965l0 0c-13.359192 0 -24.188965 -10.829773 -24.188965 -24.188965z" fill-rule="evenodd"/><path fill="#ff0000" d="m327.28873 206.13124l0 0c0 -13.359207 10.829773 -24.18898 24.188965 -24.18898l0 0c6.4153137 0 12.567871 2.5484772 17.104187 7.084778c4.536316 4.536316 7.084778 10.688873 7.084778 17.104202l0 0c0 13.359192 -10.829773 24.188965 -24.188965 24.188965l0 0c-13.359192 0 -24.188965 -10.829773 -24.188965 -24.188965z" fill-rule="evenodd"/><path stroke="#000000" stroke-width="1.0" stroke-linejoin="round" stroke-linecap="butt" d="m327.28873 206.13124l0 0c0 -13.359207 10.829773 -24.18898 24.188965 -24.18898l0 0c6.4153137 0 12.567871 2.5484772 17.104187 7.084778c4.536316 4.536316 7.084778 10.688873 7.084778 17.104202l0 0c0 13.359192 -10.829773 24.188965 -24.188965 24.188965l0 0c-13.359192 0 -24.188965 -10.829773 -24.188965 -24.188965z" fill-rule="evenodd"/><path fill="#ff0000" d="m327.28873 144.74278l0 0c0 -13.359207 10.829773 -24.18898 24.188965 -24.18898l0 0c6.4153137 0 12.567871 2.5484772 17.104187 7.084793c4.536316 4.536316 7.084778 10.688873 7.084778 17.104187l0 0c0 13.359207 -10.829773 24.18898 -24.188965 24.18898l0 0c-13.359192 0 -24.188965 -10.829773 -24.188965 -24.18898z" fill-rule="evenodd"/><path stroke="#000000" stroke-width="1.0" stroke-linejoin="round" stroke-linecap="butt" d="m327.28873 144.74278l0 0c0 -13.359207 10.829773 -24.18898 24.188965 -24.18898l0 0c6.4153137 0 12.567871 2.5484772 17.104187 7.084793c4.536316 4.536316 7.084778 10.688873 7.084778 17.104187l0 0c0 13.359207 -10.829773 24.18898 -24.188965 24.18898l0 0c-13.359192 0 -24.188965 -10.829773 -24.188965 -24.18898z" fill-rule="evenodd"/><path fill="#000000" fill-opacity="0.0" d="m170.73753 48.372704l156.56694 96.37795" fill-rule="evenodd"/><path stroke="#000000" stroke-width="1.0" stroke-linejoin="round" stroke-linecap="butt" d="m170.73753 48.372704l151.45741 93.23269" fill-rule="evenodd"/><path fill="#000000" stroke="#000000" stroke-width="1.0" stroke-linecap="butt" d="m321.32907 143.01198l4.730438 0.9723358l-2.9987183 -3.7855225z" fill-rule="evenodd"/><path fill="#000000" fill-opacity="0.0" d="m170.73753 108.99344l156.56694 35.74803" fill-rule="evenodd"/><path stroke="#000000" stroke-width="1.0" stroke-linejoin="round" stroke-linecap="butt" d="m170.73753 108.99344l150.71745 34.412445" fill-rule="evenodd"/><path fill="#000000" stroke="#000000" stroke-width="1.0" stroke-linecap="butt" d="m321.08734 145.01619l4.7919006 -0.6001282l-4.0565796 -2.620453z" fill-rule="evenodd"/><path fill="#000000" fill-opacity="0.0" d="m170.73753 169.61679l156.56694 -24.881882" fill-rule="evenodd"/><path stroke="#000000" stroke-width="1.0" stroke-linejoin="round" stroke-linecap="butt" d="m170.73753 169.61679l150.64131 -23.94017" fill-rule="evenodd"/><path fill="#000000" stroke="#000000" stroke-width="1.0" stroke-linecap="butt" d="m321.63806 147.30788l4.2226257 -2.343521l-4.7411194 -0.9189911z" fill-rule="evenodd"/><path fill="#000000" fill-opacity="0.0" d="m170.73753 230.23885l156.56694 -85.51181" fill-rule="evenodd"/><path stroke="#000000" stroke-width="1.0" stroke-linejoin="round" stroke-linecap="butt" d="m170.73753 230.23885l151.30113 -82.6358" fill-rule="evenodd"/><path fill="#000000" stroke="#000000" stroke-width="1.0" stroke-linecap="butt" d="m322.8304 149.05266l3.19104 -3.624878l-4.7745056 0.725647z" fill-rule="evenodd"/><path fill="#000000" fill-opacity="0.0" d="m170.73753 290.8609l156.56694 -146.11024" fill-rule="evenodd"/><path stroke="#000000" stroke-width="1.0" stroke-linejoin="round" stroke-linecap="butt" d="m170.73753 290.8609l152.18034 -142.01662" fill-rule="evenodd"/><path fill="#000000" stroke="#000000" stroke-width="1.0" stroke-linecap="butt" d="m324.0448 150.05186l2.190857 -4.303787l-4.4447327 1.8886261z" fill-rule="evenodd"/><path fill="#000000" fill-opacity="0.0" d="m170.73753 351.48294l156.56694 -206.74016" fill-rule="evenodd"/><path stroke="#000000" stroke-width="1.0" stroke-linejoin="round" stroke-linecap="butt" d="m170.73753 351.48294l152.94456 -201.957" fill-rule="evenodd"/><path fill="#000000" stroke="#000000" stroke-width="1.0" stroke-linecap="butt" d="m324.99887 150.52313l1.4230042 -4.614929l-4.0565186 2.6205444z" fill-rule="evenodd"/><path fill="#000000" fill-opacity="0.0" d="m170.73753 108.99344l156.56694 97.133865" fill-rule="evenodd"/><path stroke="#000000" stroke-width="1.0" stroke-linejoin="round" stroke-linecap="butt" d="m170.73753 108.99344l151.46843 93.970764" fill-rule="evenodd"/><path fill="#000000" stroke="#000000" stroke-width="1.0" stroke-linecap="butt" d="m321.33517 204.36775l4.7270203 0.9888458l-2.9854736 -3.7959747z" fill-rule="evenodd"/><path fill="#000000" fill-opacity="0.0" d="m170.73753 108.99344l156.56694 158.51968" fill-rule="evenodd"/><path stroke="#000000" stroke-width="1.0" stroke-linejoin="round" stroke-linecap="butt" d="m170.73753 108.99344l152.35066 154.25085" fill-rule="evenodd"/><path fill="#000000" stroke="#000000" stroke-width="1.0" stroke-linecap="butt" d="m321.91302 264.40497l4.3641357 2.0680542l-2.013794 -4.389435z" fill-rule="evenodd"/><path fill="#000000" fill-opacity="0.0" d="m170.73753 169.61679l156.56694 36.503937" fill-rule="evenodd"/><path stroke="#000000" stroke-width="1.0" stroke-linejoin="round" stroke-linecap="butt" d="m170.73753 169.61679l150.72365 35.14157" fill-rule="evenodd"/><path fill="#000000" stroke="#000000" stroke-width="1.0" stroke-linecap="butt" d="m321.08612 206.36694l4.7946167 -0.5781555l-4.044525 -2.6390228z" fill-rule="evenodd"/><path fill="#000000" fill-opacity="0.0" d="m170.73753 169.61679l156.56694 97.88977" fill-rule="evenodd"/><path stroke="#000000" stroke-width="1.0" stroke-linejoin="round" stroke-linecap="butt" d="m170.73753 169.61679l151.47945 94.708954" fill-rule="evenodd"/><path fill="#000000" stroke="#000000" stroke-width="1.0" stroke-linecap="butt" d="m321.34134 265.72626l4.723572 1.00531l-2.97229 -3.806366z" fill-rule="evenodd"/><path fill="#000000" fill-opacity="0.0" d="m170.73753 230.23885l156.56694 -24.094482" fill-rule="evenodd"/><path stroke="#000000" stroke-width="1.0" stroke-linejoin="round" stroke-linecap="butt" d="m170.73753 230.23885l150.63673 -23.181885" fill-rule="evenodd"/><path fill="#000000" stroke="#000000" stroke-width="1.0" stroke-linecap="butt" d="m321.62552 208.68948l4.2340393 -2.3227692l-4.736511 -0.94226074z" fill-rule="evenodd"/><path fill="#000000" fill-opacity="0.0" d="m170.73753 230.23885l156.56694 37.291336" fill-rule="evenodd"/><path stroke="#000000" stroke-width="1.0" stroke-linejoin="round" stroke-linecap="butt" d="m170.73753 230.23885l150.73021 35.90114" fill-rule="evenodd"/><path fill="#000000" stroke="#000000" stroke-width="1.0" stroke-linecap="butt" d="m321.08502 267.74677l4.797333 -0.55529785l-4.0319214 -2.6582642z" fill-rule="evenodd"/><path fill="#000000" fill-opacity="0.0" d="m170.73753 290.8609l156.56694 -84.72441" fill-rule="evenodd"/><path stroke="#000000" stroke-width="1.0" stroke-linejoin="round" stroke-linecap="butt" d="m170.73753 290.8609l151.29 -81.86888" fill-rule="evenodd"/><path fill="#000000" stroke="#000000" stroke-width="1.0" stroke-linecap="butt" d="m322.81363 210.4447l3.2051086 -3.6124573l-4.7772827 0.70710754z" fill-rule="evenodd"/><path fill="#000000" fill-opacity="0.0" d="m170.73753 290.8609l156.56694 -23.338593" fill-rule="evenodd"/><path stroke="#000000" stroke-width="1.0" stroke-linejoin="round" stroke-linecap="butt" d="m170.73753 290.8609l150.63249 -22.45398" fill-rule="evenodd"/><path fill="#000000" stroke="#000000" stroke-width="1.0" stroke-linecap="butt" d="m321.61356 270.04062l4.244995 -2.302765l-4.7320557 -0.9645996z" fill-rule="evenodd"/><path fill="#000000" fill-opacity="0.0" d="m170.73753 351.48294l156.56694 -145.35432" fill-rule="evenodd"/><path stroke="#000000" stroke-width="1.0" stroke-linejoin="round" stroke-linecap="butt" d="m170.73753 351.48294l152.16975 -141.27206" fill-rule="evenodd"/><path fill="#000000" stroke="#000000" stroke-width="1.0" stroke-linecap="butt" d="m324.0311 211.42137l2.2019958 -4.298111l-4.4496155 1.877121z" fill-rule="evenodd"/><path fill="#000000" fill-opacity="0.0" d="m170.73753 351.48294l156.56694 -83.968506" fill-rule="evenodd"/><path stroke="#000000" stroke-width="1.0" stroke-linejoin="round" stroke-linecap="butt" d="m170.73753 351.48294l151.27937 -81.13272" fill-rule="evenodd"/><path fill="#000000" stroke="#000000" stroke-width="1.0" stroke-linecap="butt" d="m322.79755 271.80582l3.2185974 -3.6004333l-4.779907 0.689209z" fill-rule="evenodd"/><path fill="#000000" fill-opacity="0.0" d="m170.73753 48.372704l156.56694 157.7638" fill-rule="evenodd"/><path stroke="#000000" stroke-width="1.0" stroke-linejoin="round" stroke-linecap="butt" d="m170.73753 48.372704l152.34047 153.50504" fill-rule="evenodd"/><path fill="#000000" stroke="#000000" stroke-width="1.0" stroke-linecap="butt" d="m321.9056 203.04121l4.3690796 2.0576172l-2.024292 -4.384613z" fill-rule="evenodd"/><path fill="#000000" fill-opacity="0.0" d="m170.73753 48.372704l156.56694 219.1496" fill-rule="evenodd"/><path stroke="#000000" stroke-width="1.0" stroke-linejoin="round" stroke-linecap="butt" d="m170.73753 48.372704l153.07903 214.26752" fill-rule="evenodd"/><path fill="#000000" stroke="#000000" stroke-width="1.0" stroke-linecap="butt" d="m322.4726 263.60043l3.9820251 2.7323608l-1.2940674 -4.6527405z" fill-rule="evenodd"/><path fill="#000000" fill-opacity="0.0" d="m375.66666 144.74278l156.56693 -96.37795" fill-rule="evenodd"/><path stroke="#000000" stroke-width="1.0" stroke-linejoin="round" stroke-linecap="butt" d="m375.66666 144.74278l151.45743 -93.23268" fill-rule="evenodd"/><path fill="#000000" stroke="#000000" stroke-width="1.0" stroke-linecap="butt" d="m527.9899 52.9167l2.9987183 -3.7855225l-4.7304077 0.972332z" fill-rule="evenodd"/><path fill="#000000" fill-opacity="0.0" d="m375.66666 144.74278l156.56693 -35.74803" fill-rule="evenodd"/><path stroke="#000000" stroke-width="1.0" stroke-linejoin="round" stroke-linecap="butt" d="m375.66666 144.74278l150.7175 -34.412453" fill-rule="evenodd"/><path fill="#000000" stroke="#000000" stroke-width="1.0" stroke-linecap="butt" d="m526.7518 111.94062l4.0565796 -2.620453l-4.79187 -0.6001358z" fill-rule="evenodd"/><path fill="#000000" fill-opacity="0.0" d="m375.66666 144.74278l156.56693 24.881882" fill-rule="evenodd"/><path stroke="#000000" stroke-width="1.0" stroke-linejoin="round" stroke-linecap="butt" d="m375.66666 144.74278l150.64127 23.94017" fill-rule="evenodd"/><path fill="#000000" stroke="#000000" stroke-width="1.0" stroke-linecap="butt" d="m526.0487 170.31422l4.741089 -0.91900635l-4.222595 -2.343521z" fill-rule="evenodd"/><path fill="#000000" fill-opacity="0.0" d="m375.66666 144.74278l156.56693 85.51181" fill-rule="evenodd"/><path stroke="#000000" stroke-width="1.0" stroke-linejoin="round" stroke-linecap="butt" d="m375.66666 144.74278l151.30118 82.6358" fill-rule="evenodd"/><path fill="#000000" stroke="#000000" stroke-width="1.0" stroke-linecap="butt" d="m526.1761 228.8282l4.774475 0.725647l-3.19104 -3.624878z" fill-rule="evenodd"/><path fill="#000000" fill-opacity="0.0" d="m375.66666 144.74278l156.56693 146.11024" fill-rule="evenodd"/><path stroke="#000000" stroke-width="1.0" stroke-linejoin="round" stroke-linecap="butt" d="m375.66666 144.74278l152.18033 142.01662" fill-rule="evenodd"/><path fill="#000000" stroke="#000000" stroke-width="1.0" stroke-linecap="butt" d="m526.7201 287.96698l4.444702 1.8886108l-2.190857 -4.303772z" fill-rule="evenodd"/><path fill="#000000" fill-opacity="0.0" d="m375.66666 144.74278l156.56693 206.74016" fill-rule="evenodd"/><path stroke="#000000" stroke-width="1.0" stroke-linejoin="round" stroke-linecap="butt" d="m375.66666 144.74278l152.94461 201.95699" fill-rule="evenodd"/><path fill="#000000" stroke="#000000" stroke-width="1.0" stroke-linecap="butt" d="m527.2945 347.69696l4.0565186 2.620575l-1.4230347 -4.6149597z" fill-rule="evenodd"/><path fill="#000000" fill-opacity="0.0" d="m375.66666 206.13124l156.56693 -157.7638" fill-rule="evenodd"/><path stroke="#000000" stroke-width="1.0" stroke-linejoin="round" stroke-linecap="butt" d="m375.66666 206.13124l152.34048 -153.50502" fill-rule="evenodd"/><path fill="#000000" stroke="#000000" stroke-width="1.0" stroke-linecap="butt" d="m529.1795 53.789715l2.024292 -4.384613l-4.3690186 2.057621z" fill-rule="evenodd"/><path fill="#000000" fill-opacity="0.0" d="m375.66666 206.13124l156.56693 -97.133865" fill-rule="evenodd"/><path stroke="#000000" stroke-width="1.0" stroke-linejoin="round" stroke-linecap="butt" d="m375.66666 206.13124l151.46841 -93.97076" fill-rule="evenodd"/><path fill="#000000" stroke="#000000" stroke-width="1.0" stroke-linecap="butt" d="m528.00586 113.56404l2.9854736 -3.7959747l-4.7269897 0.98885345z" fill-rule="evenodd"/><path fill="#000000" fill-opacity="0.0" d="m375.66666 206.13124l156.56693 -36.503937" fill-rule="evenodd"/><path stroke="#000000" stroke-width="1.0" stroke-linejoin="round" stroke-linecap="butt" d="m375.66666 206.13124l150.72366 -35.14157" fill-rule="evenodd"/><path fill="#000000" stroke="#000000" stroke-width="1.0" stroke-linecap="butt" d="m526.7654 172.59827l4.0444946 -2.6390228l-4.7946167 -0.5781555z" fill-rule="evenodd"/><path fill="#000000" fill-opacity="0.0" d="m375.66666 206.13124l156.56693 24.094482" fill-rule="evenodd"/><path stroke="#000000" stroke-width="1.0" stroke-linejoin="round" stroke-linecap="butt" d="m375.66666 206.13124l150.63675 23.18187" fill-rule="evenodd"/><path fill="#000000" stroke="#000000" stroke-width="1.0" stroke-linecap="butt" d="m526.0522 230.94562l4.736511 -0.94226074l-4.23407 -2.322754z" fill-rule="evenodd"/><path fill="#000000" fill-opacity="0.0" d="m375.66666 206.13124l156.56693 84.72441" fill-rule="evenodd"/><path stroke="#000000" stroke-width="1.0" stroke-linejoin="round" stroke-linecap="butt" d="m375.66666 206.13124l151.29001 81.86885" fill-rule="evenodd"/><path fill="#000000" stroke="#000000" stroke-width="1.0" stroke-linecap="butt" d="m526.1706 289.4528l4.7772827 0.7070923l-3.2050781 -3.6124573z" fill-rule="evenodd"/><path fill="#000000" fill-opacity="0.0" d="m375.66666 206.13124l156.56693 145.35432" fill-rule="evenodd"/><path stroke="#000000" stroke-width="1.0" stroke-linejoin="round" stroke-linecap="butt" d="m375.66666 206.13124l152.16977 141.27205" fill-rule="evenodd"/><path fill="#000000" stroke="#000000" stroke-width="1.0" stroke-linecap="butt" d="m526.71265 348.6138l4.449585 1.8771057l-2.2020264 -4.2980957z" fill-rule="evenodd"/><path fill="#000000" fill-opacity="0.0" d="m375.66666 267.51968l156.56693 -219.1496" fill-rule="evenodd"/><path stroke="#000000" stroke-width="1.0" stroke-linejoin="round" stroke-linecap="butt" d="m375.66666 267.51968l153.07901 -214.26753" fill-rule="evenodd"/><path fill="#000000" stroke="#000000" stroke-width="1.0" stroke-linecap="butt" d="m530.08966 54.212326l1.2941284 -4.652729l-3.9820557 2.7323723z" fill-rule="evenodd"/><path fill="#000000" fill-opacity="0.0" d="m375.66666 267.51968l156.56693 -158.51968" fill-rule="evenodd"/><path stroke="#000000" stroke-width="1.0" stroke-linejoin="round" stroke-linecap="butt" d="m375.66666 267.51968l152.35068 -154.25082" fill-rule="evenodd"/><path fill="#000000" stroke="#000000" stroke-width="1.0" stroke-linecap="butt" d="m529.1925 114.42954l2.013794 -4.389435l-4.3641357 2.0680542z" fill-rule="evenodd"/><path fill="#000000" fill-opacity="0.0" d="m375.66666 267.51968l156.56693 -97.889755" fill-rule="evenodd"/><path stroke="#000000" stroke-width="1.0" stroke-linejoin="round" stroke-linecap="butt" d="m375.66666 267.51968l151.47946 -94.708954" fill-rule="evenodd"/><path fill="#000000" stroke="#000000" stroke-width="1.0" stroke-linecap="butt" d="m528.0218 174.21127l2.972229 -3.8063507l-4.7235107 1.0052948z" fill-rule="evenodd"/><path fill="#000000" fill-opacity="0.0" d="m375.66666 267.51968l156.56693 -37.291336" fill-rule="evenodd"/><path stroke="#000000" stroke-width="1.0" stroke-linejoin="round" stroke-linecap="butt" d="m375.66666 267.51968l150.7302 -35.90114" fill-rule="evenodd"/><path fill="#000000" stroke="#000000" stroke-width="1.0" stroke-linecap="butt" d="m526.7796 233.22533l4.0318604 -2.6582642l-4.7973022 -0.55529785z" fill-rule="evenodd"/><path fill="#000000" fill-opacity="0.0" d="m375.66666 267.51968l156.56693 23.338593" fill-rule="evenodd"/><path stroke="#000000" stroke-width="1.0" stroke-linejoin="round" stroke-linecap="butt" d="m375.66666 267.51968l150.63254 22.45398" fill-rule="evenodd"/><path fill="#000000" stroke="#000000" stroke-width="1.0" stroke-linecap="butt" d="m526.05566 291.60733l4.7319946 -0.9645996l-4.244995 -2.302765z" fill-rule="evenodd"/><path fill="#000000" fill-opacity="0.0" d="m375.66666 267.51968l156.56693 83.968506" fill-rule="evenodd"/><path stroke="#000000" stroke-width="1.0" stroke-linejoin="round" stroke-linecap="butt" d="m375.66666 267.51968l151.27939 81.13272" fill-rule="evenodd"/><path fill="#000000" stroke="#000000" stroke-width="1.0" stroke-linecap="butt" d="m526.16534 350.10803l4.779907 0.689209l-3.218567 -3.6004333z" fill-rule="evenodd"/><path fill="#000000" fill-opacity="0.0" d="m597.3517 24.183727l0 0c4.2142334 0 8.255859 1.6740952 11.235779 4.654003c2.9799194 2.97991 4.6539917 7.021534 4.6539917 11.23576l0 143.9685c0 8.775681 7.1140747 15.8897705 15.8897705 15.8897705l0 0c-8.775696 0 -15.8897705 7.11409 -15.8897705 15.889755l0 143.96852c0 8.775665 -7.1140747 15.88974 -15.8897705 15.88974z" fill-rule="evenodd"/><path fill="#000000" fill-opacity="0.0" d="m597.3517 24.183727l0 0c4.2142334 0 8.255859 1.6740952 11.235779 4.654003c2.9799194 2.97991 4.6539917 7.021534 4.6539917 11.23576l0 143.9685c0 8.775681 7.1140747 15.8897705 15.8897705 15.8897705l0 0c-8.775696 0 -15.8897705 7.11409 -15.8897705 15.889755l0 143.96852c0 8.775665 -7.1140747 15.88974 -15.8897705 15.88974" fill-rule="evenodd"/><path stroke="#000000" stroke-width="1.0" stroke-linejoin="round" stroke-linecap="butt" d="m597.3517 24.183727l0 0c4.2142334 0 8.255859 1.6740952 11.235779 4.654003c2.9799194 2.97991 4.6539917 7.021534 4.6539917 11.23576l0 143.9685c0 8.775681 7.1140747 15.8897705 15.8897705 15.8897705l0 0c-8.775696 0 -15.8897705 7.11409 -15.8897705 15.889755l0 143.96852c0 8.775665 -7.1140747 15.88974 -15.8897705 15.88974" fill-rule="evenodd"/><path fill="#000000" fill-opacity="0.0" d="m106.08137 24.183727l0 0c-4.2142334 0 -8.255852 1.6740952 -11.235764 4.654003c-2.9799042 2.97991 -4.6539993 7.021534 -4.6539993 11.23576l0 143.9685c0 8.775681 -7.11409 15.8897705 -15.8897705 15.8897705l0 0c8.775681 0 15.8897705 7.11409 15.8897705 15.889755l0 143.96852c0 8.775665 7.1140823 15.88974 15.889763 15.88974z" fill-rule="evenodd"/><path fill="#000000" fill-opacity="0.0" d="m106.08137 24.183727l0 0c-4.2142334 0 -8.255852 1.6740952 -11.235764 4.654003c-2.9799042 2.97991 -4.6539993 7.021534 -4.6539993 11.23576l0 143.9685c0 8.775681 -7.11409 15.8897705 -15.8897705 15.8897705l0 0c8.775681 0 15.8897705 7.11409 15.8897705 15.889755l0 143.96852c0 8.775665 7.1140823 15.88974 15.889763 15.88974" fill-rule="evenodd"/><path stroke="#000000" stroke-width="1.0" stroke-linejoin="round" stroke-linecap="butt" d="m106.08137 24.183727l0 0c-4.2142334 0 -8.255852 1.6740952 -11.235764 4.654003c-2.9799042 2.97991 -4.6539993 7.021534 -4.6539993 11.23576l0 143.9685c0 8.775681 -7.11409 15.8897705 -15.8897705 15.8897705l0 0c8.775681 0 15.8897705 7.11409 15.8897705 15.889755l0 143.96852c0 8.775665 7.1140823 15.88974 15.889763 15.88974" fill-rule="evenodd"/><path fill="#000000" fill-opacity="0.0" d="m22.868767 323.6168l0 -247.37007l42.015747 0l0 247.37007z" fill-rule="evenodd"/><path fill="#000000" d="m41.02314 306.02304l0.125 0.390625l8.75 -2.578125l0 -1.8125l-8.203125 -2.390625q-0.375 -0.109375 -0.5625 -0.3125q-0.203125 -0.21875 -0.28125 -0.53125q-0.09375 -0.3125 -0.09375 -0.65625l0 -0.078125l-0.984375 0l0 4.28125l0.984375 0l0 -0.09375q0 -0.40625 0.046875 -0.734375q0.046875 -0.34375 0.140625 -0.546875q0.09375 -0.21875 0.21875 -0.21875l7.671875 2.109375l0.1875 -0.234375l-9.25 2.609375l0 1.625l9.0625 2.640625l0.203125 -0.265625l-8.125 2.1875q-0.078125 0 -0.109375 -0.21875q-0.03125 -0.234375 -0.03125 -0.59375q-0.015625 -0.375 -0.015625 -0.796875l0 -0.09375l-0.984375 0l0 4.65625l0.984375 0l0 -0.0625q0 -0.375 0.0625 -0.65625q0.0625 -0.296875 0.234375 -0.5q0.171875 -0.203125 0.5 -0.296875l8.34375 -2.359375l0 -1.8125l-8.875 -2.65625zm3.765625 -18.832672q1.578125 0 2.765625 0.625q1.171875 0.625 1.8125 1.765625q0.625 1.125 0.625 2.625q0 1.53125 -0.625 2.671875q-0.640625 1.125 -1.8125 1.75q-1.1875 0.625 -2.765625 0.625q-1.1875 0 -2.140625 -0.359375q-0.96875 -0.359375 -1.65625 -1.03125q-0.6875 -0.671875 -1.046875 -1.59375q-0.359375 -0.921875 -0.359375 -2.0625q0 -1.140625 0.359375 -2.046875q0.359375 -0.921875 1.046875 -1.59375q0.6875 -0.671875 1.65625 -1.015625q0.953125 -0.359375 2.140625 -0.359375zm0 8.296875q1.34375 0 2.265625 -0.359375q0.90625 -0.375 1.359375 -1.09375q0.453125 -0.734375 0.453125 -1.828125q0 -1.078125 -0.453125 -1.796875q-0.453125 -0.734375 -1.359375 -1.09375q-0.921875 -0.375 -2.265625 -0.375q-1.3125 0 -2.203125 0.375q-0.90625 0.359375 -1.375 1.09375q-0.484375 0.71875 -0.484375 1.796875q0 1.09375 0.484375 1.828125q0.46875 0.71875 1.375 1.09375q0.890625 0.359375 2.203125 0.359375zm-5.15625 -17.00296l1.796875 0q-0.03125 0.125 -0.046875 0.3125q-0.03125 0.1875 -0.046875 0.390625q-0.015625 0.1875 -0.015625 0.375q0 0.515625 0.109375 0.9375q0.09375 0.40625 0.3125 0.75q0.21875 0.34375 0.5625 0.65625q0.328125 0.3125 0.8125 0.65625l-0.859375 0q-0.875 -0.46875 -1.46875 -0.953125q-0.609375 -0.5 -0.90625 -1.09375q-0.3125 -0.59375 -0.3125 -1.34375q0 -0.21875 0.015625 -0.421875q0.015625 -0.203125 0.046875 -0.265625zm10.15625 7.03125l-0.890625 0l0 -0.0625q0 -0.71875 -0.203125 -1.140625q-0.21875 -0.421875 -0.84375 -0.421875l-6.234375 0q-0.28125 0 -0.421875 0.15625q-0.140625 0.15625 -0.234375 0.484375q-0.09375 0.3125 -0.1875 0.796875l-0.03125 0.1875l-0.96875 0l0 -2.984375l2.5 -0.234375l-0.078125 -0.0625l6.28125 0q0.171875 0 0.265625 -0.265625q0.09375 -0.265625 0.125 -0.609375q0.03125 -0.359375 0.03125 -0.625l0 -0.40625l0.890625 0l0 5.1875zm-1.734375 -17.877472q0.40625 0 0.546875 -0.421875q0.125 -0.421875 0.203125 -1.109375l0.015625 -0.09375l0.96875 0l0 2.984375l-2.1875 0.234375l-0.015625 0.0625l-10.09375 0q-0.28125 0 -0.421875 0.171875q-0.140625 0.15625 -0.234375 0.484375q-0.09375 0.328125 -0.1875 0.828125l-0.03125 0.1875l-0.96875 0l0 -3.328125l12.40625 0zm-8.46875 4.953125q0 -0.828125 0.28125 -1.46875q0.28125 -0.640625 0.8125 -1.171875q0.515625 -0.53125 1.296875 -0.984375l1.234375 0.0625q-0.84375 0.453125 -1.390625 0.984375q-0.5625 0.515625 -0.8125 1.125q-0.265625 0.609375 -0.265625 1.359375q0 0.71875 0.28125 1.28125q0.265625 0.5625 0.78125 0.9375q0.515625 0.375 1.296875 0.5625q0.78125 0.171875 1.765625 0.171875q0.953125 0 1.703125 -0.171875q0.734375 -0.171875 1.25 -0.515625q0.515625 -0.34375 0.78125 -0.890625q0.25 -0.546875 0.25 -1.265625q0 -0.78125 -0.265625 -1.421875q-0.265625 -0.640625 -0.8125 -1.171875q-0.5625 -0.546875 -1.375 -1.03125l1.140625 -0.015625q0.78125 0.484375 1.328125 1.03125q0.546875 0.53125 0.84375 1.21875q0.28125 0.671875 0.28125 1.53125q0 1.421875 -0.640625 2.421875q-0.640625 0.984375 -1.796875 1.515625q-1.15625 0.53125 -2.6875 0.53125q-1.546875 0 -2.734375 -0.546875q-1.1875 -0.5625 -1.859375 -1.59375q-0.6875 -1.046875 -0.6875 -2.484375zm4.109375 -19.484436l0.984375 0q0.140625 1.140625 0.328125 1.96875q0.1875 0.8125 0.421875 1.359375q0.21875 0.53125 0.5 0.859375q0.28125 0.3125 0.640625 0.453125q0.34375 0.125 0.75 0.125q0.53125 0 0.890625 -0.21875q0.34375 -0.21875 0.53125 -0.609375q0.171875 -0.390625 0.171875 -0.921875q0 -0.59375 -0.28125 -1.09375q-0.28125 -0.5 -0.84375 -0.96875q-0.5625 -0.46875 -1.390625 -0.921875l1.09375 -0.015625q0.765625 0.375 1.328125 0.875q0.5625 0.484375 0.875 1.109375q0.296875 0.625 0.296875 1.421875q0 0.890625 -0.296875 1.578125q-0.3125 0.6875 -0.90625 1.078125q-0.609375 0.390625 -1.4375 0.390625q-0.796875 0 -1.375 -0.34375q-0.578125 -0.359375 -1.0 -1.125q-0.4375 -0.78125 -0.75 -2.015625q-0.3125 -1.234375 -0.53125 -2.984375zm6.09375 0.03125l-2.171875 0.234375l-0.109375 0.09375l-4.859375 0q-0.71875 0 -1.140625 0.1875q-0.4375 0.1875 -0.609375 0.625q-0.1875 0.4375 -0.1875 1.171875q0 1.125 0.3125 1.84375q0.3125 0.703125 0.671875 1.0625q-0.15625 0 -0.3125 -0.078125q-0.15625 -0.078125 -0.296875 -0.203125q-0.140625 -0.140625 -0.234375 -0.3125q-0.09375 -0.171875 -0.125 -0.40625l2.15625 0l0 1.640625l-2.265625 0q-0.21875 -0.25 -0.4375 -0.75q-0.234375 -0.5 -0.40625 -1.21875q-0.1875 -0.734375 -0.1875 -1.640625q0 -0.75 0.15625 -1.40625q0.140625 -0.65625 0.484375 -1.140625q0.328125 -0.484375 0.875 -0.765625q0.53125 -0.28125 1.3125 -0.28125l5.640625 0q0.265625 0 0.421875 -0.171875q0.140625 -0.1875 0.203125 -0.515625q0.0625 -0.34375 0.125 -0.828125l0.015625 -0.09375l0.96875 0l0 2.953125zm-2.625 -10.470352q-0.453125 0 -0.75 0.21875q-0.296875 0.203125 -0.484375 0.578125q-0.1875 0.375 -0.3125 0.859375q-0.125 0.46875 -0.234375 0.96875q-0.140625 0.609375 -0.328125 1.21875q-0.1875 0.59375 -0.5 1.078125q-0.328125 0.484375 -0.828125 0.78125q-0.515625 0.28125 -1.28125 0.28125q-0.859375 0 -1.5 -0.421875q-0.65625 -0.4375 -1.0 -1.25q-0.359375 -0.828125 -0.359375 -1.984375q0 -0.921875 0.109375 -1.59375q0.109375 -0.6875 0.265625 -1.140625q0.140625 -0.453125 0.28125 -0.6875l2.34375 0l0 1.640625l-1.9375 0q0 -0.1875 0.0625 -0.328125q0.046875 -0.140625 0.15625 -0.21875q0.09375 -0.078125 0.265625 -0.125q0.171875 -0.046875 0.375 -0.03125q-0.265625 0.21875 -0.453125 0.59375q-0.1875 0.375 -0.265625 0.859375q-0.078125 0.46875 -0.078125 1.03125q0 1.09375 0.40625 1.609375q0.40625 0.515625 1.109375 0.515625q0.46875 0 0.765625 -0.21875q0.296875 -0.21875 0.484375 -0.578125q0.1875 -0.375 0.328125 -0.875q0.140625 -0.5 0.25 -1.03125q0.140625 -0.59375 0.34375 -1.1875q0.1875 -0.609375 0.5 -1.078125q0.3125 -0.484375 0.828125 -0.765625q0.5 -0.296875 1.265625 -0.296875q0.875 0 1.5625 0.453125q0.671875 0.453125 1.0625 1.328125q0.375 0.875 0.375 2.15625q0 0.9375 -0.125 1.671875q-0.109375 0.734375 -0.328125 1.3125q-0.21875 0.5625 -0.453125 0.96875l-2.453125 0l0 -1.671875l2.578125 0q-0.15625 0.296875 -0.296875 0.453125q-0.15625 0.15625 -0.296875 0.21875q-0.15625 0.046875 -0.3125 0.046875q-0.171875 0 -0.34375 -0.03125q0.28125 -0.296875 0.484375 -0.734375q0.203125 -0.4375 0.328125 -1.0q0.125 -0.5625 0.125 -1.234375q0 -0.78125 -0.1875 -1.296875q-0.203125 -0.53125 -0.578125 -0.796875q-0.390625 -0.265625 -0.96875 -0.265625zm-2.375 -18.21817q1.578125 0 2.765625 0.625q1.171875 0.625 1.8125 1.765625q0.625 1.125 0.625 2.625q0 1.53125 -0.625 2.671875q-0.640625 1.125 -1.8125 1.75q-1.1875 0.625 -2.765625 0.625q-1.1875 0 -2.140625 -0.359375q-0.96875 -0.359375 -1.65625 -1.03125q-0.6875 -0.671875 -1.046875 -1.59375q-0.359375 -0.921875 -0.359375 -2.0625q0 -1.140625 0.359375 -2.046875q0.359375 -0.921875 1.046875 -1.59375q0.6875 -0.671875 1.65625 -1.015625q0.953125 -0.359375 2.140625 -0.359375zm0 8.296875q1.34375 0 2.265625 -0.359375q0.90625 -0.375 1.359375 -1.09375q0.453125 -0.734375 0.453125 -1.828125q0 -1.078125 -0.453125 -1.796875q-0.453125 -0.734375 -1.359375 -1.09375q-0.921875 -0.375 -2.265625 -0.375q-1.3125 0 -2.203125 0.375q-0.90625 0.359375 -1.375 1.09375q-0.484375 0.71875 -0.484375 1.796875q0 1.09375 0.484375 1.828125q0.46875 0.71875 1.375 1.09375q0.890625 0.359375 2.203125 0.359375zm5.0 -9.971725l-0.890625 0l0 -0.0625q0 -0.484375 -0.078125 -0.828125q-0.09375 -0.359375 -0.328125 -0.546875q-0.234375 -0.1875 -0.640625 -0.1875l-6.234375 0q-0.28125 0 -0.421875 0.15625q-0.140625 0.15625 -0.234375 0.484375q-0.09375 0.3125 -0.1875 0.796875l-0.03125 0.1875l-0.96875 0l0 -2.984375l2.125 -0.234375l0.09375 -0.0625l6.71875 0q0.046875 0 0.09375 -0.21875q0.046875 -0.234375 0.078125 -0.546875q0.015625 -0.328125 0.015625 -0.578125l0 -0.078125l0.890625 0l0 4.703125zm0 -11.3125l0 4.703125l-0.890625 0l0 -0.046875q0 -0.265625 -0.015625 -0.578125q-0.03125 -0.328125 -0.078125 -0.5625q-0.046875 -0.234375 -0.09375 -0.234375l-6.109375 0q-0.609375 0 -1.0 0.171875q-0.390625 0.15625 -0.578125 0.515625q-0.203125 0.34375 -0.203125 0.9375q0 0.625 0.25 1.21875q0.234375 0.578125 0.71875 1.125q0.484375 0.546875 1.25 1.109375l-1.015625 0q-0.796875 -0.53125 -1.328125 -1.125q-0.546875 -0.609375 -0.828125 -1.28125q-0.28125 -0.6875 -0.28125 -1.46875q0 -0.921875 0.3125 -1.546875q0.296875 -0.625 0.921875 -0.96875q0.625 -0.34375 1.578125 -0.34375l5.453125 0q0.40625 0 0.640625 -0.1875q0.234375 -0.1875 0.328125 -0.53125q0.078125 -0.359375 0.078125 -0.84375l0 -0.0625l0.890625 0zm-4.90625 -3.0929718q1.078125 0 1.84375 -0.25q0.765625 -0.25 1.234375 -0.71875q0.46875 -0.46875 0.6875 -1.078125q0.21875 -0.609375 0.21875 -1.3125q0 -0.78125 -0.265625 -1.359375q-0.28125 -0.578125 -0.703125 -1.0q-0.4375 -0.421875 -0.921875 -0.71875l0.71875 -0.890625q0.65625 0.34375 1.1875 0.9375q0.53125 0.578125 0.828125 1.359375q0.28125 0.765625 0.28125 1.71875q0 1.40625 -0.59375 2.546875q-0.59375 1.140625 -1.75 1.8125q-1.15625 0.65625 -2.78125 0.65625q-1.59375 0 -2.765625 -0.609375q-1.1875 -0.609375 -1.84375 -1.65625q-0.671875 -1.0625 -0.671875 -2.421875q0 -1.09375 0.359375 -1.890625q0.34375 -0.8125 1.0625 -1.34375q0.703125 -0.546875 1.765625 -0.828125q1.0625 -0.28125 2.484375 -0.28125l0 7.71875l-1.078125 0l0 -6.484375l0.40625 0.484375q-1.0625 0.03125 -1.796875 0.1875q-0.75 0.15625 -1.203125 0.46875q-0.453125 0.3125 -0.65625 0.796875q-0.203125 0.484375 -0.203125 1.171875q0 0.65625 0.25 1.203125q0.25 0.546875 0.78125 0.953125q0.515625 0.40625 1.296875 0.625q0.78125 0.203125 1.828125 0.203125zm-1.3125 -9.683502l0 -5.6875l1.40625 0l0 5.6875l-1.40625 0zm-7.921875 -11.278l13.0625 0q0.046875 0 0.09375 -0.21875q0.046875 -0.234375 0.078125 -0.546875q0.015625 -0.328125 0.015625 -0.578125l0 -0.078125l0.890625 0l0 4.71875l-0.890625 0l0 -0.0625q0 -0.484375 -0.078125 -0.828125q-0.09375 -0.359375 -0.328125 -0.546875q-0.234375 -0.203125 -0.640625 -0.203125l-10.359375 0q-0.28125 0 -0.421875 0.15625q-0.140625 0.15625 -0.234375 0.484375q-0.09375 0.3125 -0.1875 0.8125l-0.03125 0.1875l-0.96875 0l0 -3.296875zm14.140625 -8.03125l0 4.71875l-0.890625 0l0 -0.078125q0 -0.25 -0.015625 -0.5625q-0.03125 -0.328125 -0.078125 -0.546875q-0.046875 -0.234375 -0.09375 -0.234375l-6.109375 0q-0.609375 0 -1.0 0.15625q-0.390625 0.15625 -0.578125 0.515625q-0.203125 0.34375 -0.203125 0.953125q0 0.625 0.25 1.21875q0.234375 0.578125 0.71875 1.125q0.484375 0.546875 1.234375 1.109375l-1.0 0q-0.796875 -0.53125 -1.328125 -1.125q-0.546875 -0.609375 -0.828125 -1.28125q-0.28125 -0.6875 -0.28125 -1.46875q0 -0.921875 0.3125 -1.546875q0.296875 -0.640625 0.921875 -0.96875q0.625 -0.34375 1.578125 -0.34375l5.453125 0q0.40625 0 0.640625 -0.1875q0.234375 -0.203125 0.328125 -0.546875q0.078125 -0.359375 0.078125 -0.84375l0 -0.0625l0.890625 0zm-5.0 -11.436722q1.578125 0 2.765625 0.625q1.171875 0.625 1.8125 1.765625q0.625 1.125 0.625 2.625q0 1.53125 -0.625 2.671875q-0.640625 1.125 -1.8125 1.75q-1.1875 0.625 -2.765625 0.625q-1.1875 0 -2.140625 -0.359375q-0.96875 -0.359375 -1.65625 -1.03125q-0.6875 -0.671875 -1.046875 -1.59375q-0.359375 -0.921875 -0.359375 -2.0625q0 -1.140625 0.359375 -2.046875q0.359375 -0.921875 1.046875 -1.59375q0.6875 -0.671875 1.65625 -1.015625q0.953125 -0.359375 2.140625 -0.359375zm0 8.296875q1.34375 0 2.265625 -0.359375q0.90625 -0.375 1.359375 -1.09375q0.453125 -0.734375 0.453125 -1.828125q0 -1.078125 -0.453125 -1.796875q-0.453125 -0.734375 -1.359375 -1.09375q-0.921875 -0.375 -2.265625 -0.375q-1.3125 0 -2.203125 0.375q-0.90625 0.359375 -1.375 1.09375q-0.484375 0.71875 -0.484375 1.796875q0 1.09375 0.484375 1.828125q0.46875 0.71875 1.375 1.09375q0.890625 0.359375 2.203125 0.359375zm-3.90625 -9.4561l-1.015625 0l0 -0.203125q0 -0.625 -0.078125 -1.046875q-0.09375 -0.4375 -0.34375 -0.65625q-0.265625 -0.21875 -0.796875 -0.21875l1.125 -1.203125l0 -3.5625l1.109375 0l0 6.890625zm5.859375 -3.65625q0.796875 0 1.25 -0.21875q0.4375 -0.21875 0.625 -0.640625q0.1875 -0.4375 0.1875 -1.046875q0 -0.484375 -0.0625 -0.890625q-0.078125 -0.40625 -0.109375 -0.5625l1.125 0q0.046875 0.1875 0.09375 0.46875q0.0625 0.28125 0.09375 0.578125q0.046875 0.296875 0.046875 0.625q0 0.875 -0.25 1.640625q-0.265625 0.765625 -0.96875 1.25q-0.703125 0.46875 -2.0 0.46875l-6.71875 0l-0.15625 -0.140625l-2.984375 0l0 -1.53125l9.828125 0zm-5.578125 -17.688828q-0.109375 0.03125 -0.203125 0.25q-0.109375 0.21875 -0.15625 0.5625q-0.046875 0.328125 -0.046875 0.703125l0 0.09375l-0.984375 0l0 -4.25l0.984375 0l0 0.078125q0 0.34375 0.078125 0.640625q0.078125 0.28125 0.28125 0.5q0.1875 0.21875 0.578125 0.359375l8.203125 3.125l0 1.8125l-8.3125 3.109375q-0.34375 0.109375 -0.515625 0.3125q-0.1875 0.203125 -0.25 0.5q-0.0625 0.28125 -0.0625 0.703125l0 0.0625l-0.984375 0l0 -4.6875l0.984375 0l0 0.09375q0 0.40625 0.015625 0.765625q0 0.359375 0.03125 0.59375q0.03125 0.234375 0.109375 0.234375l8.171875 -2.96875l-0.1875 0.265625l-7.734375 -2.859375zm3.71875 -5.161377q1.078125 0 1.84375 -0.25q0.765625 -0.25 1.234375 -0.71875q0.46875 -0.46875 0.6875 -1.078125q0.21875 -0.609375 0.21875 -1.3125q0 -0.78125 -0.265625 -1.359375q-0.28125 -0.578125 -0.703125 -1.0q-0.4375 -0.421875 -0.921875 -0.71875l0.71875 -0.890625q0.65625 0.34375 1.1875 0.9375q0.53125 0.578125 0.828125 1.359375q0.28125 0.765625 0.28125 1.71875q0 1.40625 -0.59375 2.546875q-0.59375 1.140625 -1.75 1.8125q-1.15625 0.65625 -2.78125 0.65625q-1.59375 0 -2.765625 -0.609375q-1.1875 -0.609375 -1.84375 -1.65625q-0.671875 -1.0625 -0.671875 -2.421875q0 -1.09375 0.359375 -1.890625q0.34375 -0.8125 1.0625 -1.34375q0.703125 -0.546875 1.765625 -0.828125q1.0625 -0.28125 2.484375 -0.28125l0 7.71875l-1.078125 0l0 -6.484375l0.40625 0.484375q-1.0625 0.03125 -1.796875 0.1875q-0.75 0.15625 -1.203125 0.46875q-0.453125 0.3125 -0.65625 0.796875q-0.203125 0.484375 -0.203125 1.171875q0 0.65625 0.25 1.203125q0.25 0.546875 0.78125 0.953125q0.515625 0.40625 1.296875 0.625q0.78125 0.203125 1.828125 0.203125zm3.984375 -14.292458q0 -0.8125 -0.265625 -1.40625q-0.28125 -0.59375 -0.71875 -1.0q-0.4375 -0.421875 -0.921875 -0.75l0.71875 -0.875q0.671875 0.375 1.203125 0.96875q0.53125 0.578125 0.828125 1.359375q0.28125 0.765625 0.28125 1.75q0 1.578125 -0.640625 2.7343674q-0.640625 1.140625 -1.8125 1.765625q-1.171875 0.609375 -2.75 0.609375q-1.609375 0 -2.765625 -0.640625q-1.171875 -0.640625 -1.796875 -1.796875q-0.640625 -1.1718674 -0.640625 -2.7656174q0 -0.984375 0.171875 -1.71875q0.15625 -0.75 0.375 -1.25q0.21875 -0.515625 0.390625 -0.734375l2.828125 0l0 1.6875l-2.40625 0q0.015625 -0.1875 0.09375 -0.359375q0.0625 -0.171875 0.171875 -0.28125q0.109375 -0.109375 0.25 -0.15625q0.125 -0.0625 0.265625 -0.0625q-0.421875 0.40625 -0.703125 1.171875q-0.296875 0.765625 -0.296875 1.703125q0 1.171875 0.484375 1.9375q0.46875 0.7656174 1.390625 1.1406174q0.90625 0.359375 2.1875 0.359375q0.984375 0 1.75 -0.203125q0.765625 -0.203125 1.296875 -0.625q0.515625 -0.421875 0.78125 -1.0468674q0.25 -0.640625 0.25 -1.515625zm-7.984375 -5.05809l-1.015625 0l0 -0.203125q0 -0.625 -0.078125 -1.046875q-0.09375 -0.4375 -0.34375 -0.65625q-0.265625 -0.21875 -0.796875 -0.21875l1.125 -1.203125l0 -3.5625l1.109375 0l0 6.890625zm5.859375 -3.65625q0.796875 0 1.25 -0.21875q0.4375 -0.21875 0.625 -0.640625q0.1875 -0.4375 0.1875 -1.046875q0 -0.484375 -0.0625 -0.890625q-0.078125 -0.40625 -0.109375 -0.5625l1.125 0q0.046875 0.1875 0.09375 0.46875q0.0625 0.28125 0.09375 0.578125q0.046875 0.296875 0.046875 0.625q0 0.875 -0.25 1.640625q-0.265625 0.765625 -0.96875 1.25q-0.703125 0.46875 -2.0 0.46875l-6.71875 0l-0.15625 -0.140625l-2.984375 0l0 -1.53125l9.828125 0zm-1.953125 -14.79216q1.578125 0 2.765625 0.625q1.171875 0.625 1.8125 1.765625q0.625 1.125 0.625 2.625q0 1.53125 -0.625 2.671875q-0.640625 1.125 -1.8125 1.75q-1.1875 0.625 -2.765625 0.625q-1.1875 0 -2.140625 -0.359375q-0.96875 -0.359375 -1.65625 -1.03125q-0.6875 -0.671875 -1.046875 -1.59375q-0.359375 -0.921875 -0.359375 -2.0625q0 -1.140625 0.359375 -2.046875q0.359375 -0.921875 1.046875 -1.59375q0.6875 -0.671875 1.65625 -1.015625q0.953125 -0.359375 2.140625 -0.359375zm0 8.296875q1.34375 0 2.265625 -0.359375q0.90625 -0.375 1.359375 -1.09375q0.453125 -0.734375 0.453125 -1.828125q0 -1.078125 -0.453125 -1.796875q-0.453125 -0.734375 -1.359375 -1.09375q-0.921875 -0.375 -2.265625 -0.375q-1.3125 0 -2.203125 0.375q-0.90625 0.359375 -1.375 1.09375q-0.484375 0.71875 -0.484375 1.796875q0 1.09375 0.484375 1.828125q0.46875 0.71875 1.375 1.09375q0.890625 0.359375 2.203125 0.359375zm-5.15625 -17.002975l1.796875 0q-0.03125 0.125 -0.046875 0.3125q-0.03125 0.1875 -0.046875 0.390625q-0.015625 0.1875 -0.015625 0.375q0 0.515625 0.109375 0.9375q0.09375 0.40625 0.3125 0.75q0.21875 0.34375 0.5625 0.65625q0.328125 0.3125 0.8125 0.65625l-0.859375 0q-0.875 -0.46875 -1.46875 -0.953125q-0.609375 -0.5 -0.90625 -1.09375q-0.3125 -0.59375 -0.3125 -1.34375q0 -0.21875 0.015625 -0.421875q0.015625 -0.203125 0.046875 -0.265625zm10.15625 7.03125l-0.890625 0l0 -0.0625q0 -0.71875 -0.203125 -1.140625q-0.21875 -0.421875 -0.84375 -0.421875l-6.234375 0q-0.28125 0 -0.421875 0.15625q-0.140625 0.15625 -0.234375 0.484375q-0.09375 0.3125 -0.1875 0.796875l-0.03125 0.1875l-0.96875 0l0 -2.984375l2.5 -0.234375l-0.078125 -0.0625l6.28125 0q0.171875 0 0.265625 -0.265625q0.09375 -0.265625 0.125 -0.609375q0.03125 -0.359375 0.03125 -0.625l0 -0.40625l0.890625 0l0 5.1875z" fill-rule="nonzero"/><path fill="#000000" fill-opacity="0.0" d="m638.07086 323.6168l0 -247.37007l42.015747 0l0 247.37007z" fill-rule="evenodd"/><path fill="#000000" d="m662.36584 307.46054q-0.453125 0 -0.75 0.21875q-0.296875 0.203125 -0.484375 0.578125q-0.1875 0.375 -0.3125 0.859375q-0.125 0.46875 -0.234375 0.96875q-0.140625 0.609375 -0.328125 1.21875q-0.1875 0.59375 -0.5 1.078125q-0.328125 0.484375 -0.828125 0.78125q-0.515625 0.28125 -1.28125 0.28125q-0.859375 0 -1.5 -0.421875q-0.65625 -0.4375 -1.0 -1.25q-0.359375 -0.828125 -0.359375 -1.984375q0 -0.921875 0.109375 -1.59375q0.109375 -0.6875 0.265625 -1.140625q0.140625 -0.453125 0.28125 -0.6875l2.34375 0l0 1.640625l-1.9375 0q0 -0.1875 0.0625 -0.328125q0.046875 -0.140625 0.15625 -0.21875q0.09375 -0.078125 0.265625 -0.125q0.171875 -0.046875 0.375 -0.03125q-0.265625 0.21875 -0.453125 0.59375q-0.1875 0.375 -0.265625 0.859375q-0.078125 0.46875 -0.078125 1.03125q0 1.09375 0.40625 1.609375q0.40625 0.515625 1.109375 0.515625q0.46875 0 0.765625 -0.21875q0.296875 -0.21875 0.484375 -0.578125q0.1875 -0.375 0.328125 -0.875q0.140625 -0.5 0.25 -1.03125q0.140625 -0.59375 0.34375 -1.1875q0.1875 -0.609375 0.5 -1.078125q0.3125 -0.484375 0.828125 -0.765625q0.5 -0.296875 1.265625 -0.296875q0.875 0 1.5625 0.453125q0.671875 0.453125 1.0625 1.328125q0.375 0.875 0.375 2.15625q0 0.9375 -0.125 1.671875q-0.109375 0.734375 -0.328125 1.3125q-0.21875 0.5625 -0.453125 0.96875l-2.453125 0l0 -1.671875l2.578125 0q-0.15625 0.296875 -0.296875 0.453125q-0.15625 0.15625 -0.296875 0.21875q-0.15625 0.046875 -0.3125 0.046875q-0.171875 0 -0.34375 -0.03125q0.28125 -0.296875 0.484375 -0.734375q0.203125 -0.4375 0.328125 -1.0q0.125 -0.5625 0.125 -1.234375q0 -0.78125 -0.1875 -1.296875q-0.203125 -0.53125 -0.578125 -0.796875q-0.390625 -0.265625 -0.96875 -0.265625zm-9.453125 -5.523773q0 0.53125 -0.296875 0.875q-0.296875 0.328125 -0.890625 0.328125q-0.578125 0 -0.875 -0.328125q-0.296875 -0.34375 -0.296875 -0.875q0 -0.53125 0.296875 -0.875q0.296875 -0.34375 0.875 -0.34375q0.59375 0 0.890625 0.34375q0.296875 0.34375 0.296875 0.875zm2.0625 -0.953125l8.171875 0q0.578125 0 0.765625 -0.421875q0.1875 -0.4375 0.1875 -1.171875l0 -0.046875l0.890625 0l0 4.921875l-0.890625 0l0 -0.0625q0 -0.71875 -0.1875 -1.140625q-0.1875 -0.4375 -0.765625 -0.4375l-6.328125 0q-0.40625 0 -0.546875 0.359375q-0.140625 0.34375 -0.296875 1.09375l-0.03125 0.1875l-0.96875 0l0 -3.28125zm9.15625 -4.4842224l-0.265625 0.203125l0 -3.40625q0 -0.5625 -0.015625 -0.953125q-0.03125 -0.40625 -0.109375 -0.671875q-0.09375 -0.28125 -0.25 -0.40625q-0.171875 -0.140625 -0.4375 -0.171875l-1.609375 -0.21875l0 -1.09375l3.546875 0l0 8.234375l-1.25 0l-7.859375 -6.421875l0.1875 -0.28125l0 2.984375q0 0.578125 0.03125 0.984375q0.03125 0.40625 0.125 0.65625q0.078125 0.25 0.234375 0.390625q0.15625 0.140625 0.421875 0.171875l1.359375 0.203125l0 1.0625l-3.265625 0l0 -7.734375l1.171875 0l7.984375 6.46875zm-4.046875 -9.923523q1.078125 0 1.84375 -0.25q0.765625 -0.25 1.234375 -0.71875q0.46875 -0.46875 0.6875 -1.078125q0.21875 -0.609375 0.21875 -1.3125q0 -0.78125 -0.265625 -1.359375q-0.28125 -0.578125 -0.703125 -1.0q-0.4375 -0.421875 -0.921875 -0.71875l0.71875 -0.890625q0.65625 0.34375 1.1875 0.9375q0.53125 0.578125 0.828125 1.359375q0.28125 0.765625 0.28125 1.71875q0 1.40625 -0.59375 2.546875q-0.59375 1.140625 -1.75 1.8125q-1.15625 0.65625 -2.78125 0.65625q-1.59375 0 -2.765625 -0.609375q-1.1875 -0.609375 -1.84375 -1.65625q-0.671875 -1.0625 -0.671875 -2.421875q0 -1.09375 0.359375 -1.890625q0.34375 -0.8125 1.0625 -1.34375q0.703125 -0.546875 1.765625 -0.828125q1.0625 -0.28125 2.484375 -0.28125l0 7.71875l-1.078125 0l0 -6.484375l0.40625 0.484375q-1.0625 0.03125 -1.796875 0.1875q-0.75 0.15625 -1.203125 0.46875q-0.453125 0.3125 -0.65625 0.796875q-0.203125 0.484375 -0.203125 1.171875q0 0.65625 0.25 1.203125q0.25 0.546875 0.78125 0.953125q0.515625 0.40625 1.296875 0.625q0.78125 0.203125 1.828125 0.203125zm-0.09375 -23.955994q1.578125 0 2.765625 0.625q1.171875 0.625 1.8125 1.765625q0.625 1.125 0.625 2.625q0 1.53125 -0.625 2.671875q-0.640625 1.125 -1.8125 1.75q-1.1875 0.625 -2.765625 0.625q-1.1875 0 -2.140625 -0.359375q-0.96875 -0.359375 -1.65625 -1.03125q-0.6875 -0.671875 -1.046875 -1.59375q-0.359375 -0.921875 -0.359375 -2.0625q0 -1.140625 0.359375 -2.046875q0.359375 -0.921875 1.046875 -1.59375q0.6875 -0.671875 1.65625 -1.015625q0.953125 -0.359375 2.140625 -0.359375zm0 8.296875q1.34375 0 2.265625 -0.359375q0.90625 -0.375 1.359375 -1.09375q0.453125 -0.734375 0.453125 -1.828125q0 -1.078125 -0.453125 -1.796875q-0.453125 -0.734375 -1.359375 -1.09375q-0.921875 -0.375 -2.265625 -0.375q-1.3125 0 -2.203125 0.375q-0.90625 0.359375 -1.375 1.09375q-0.484375 0.71875 -0.484375 1.796875q0 1.09375 0.484375 1.828125q0.46875 0.71875 1.375 1.09375q0.890625 0.359375 2.203125 0.359375zm-5.015625 -9.80069l0 -6.6718903l1.109375 0l0 6.6718903l-1.109375 0zm-4.1875 -7.4843903l1.234375 0q-0.078125 0.28125 -0.171875 0.75q-0.09375 0.453125 -0.09375 1.015625q0 0.62501526 0.1875 1.0781403q0.1875 0.4375 0.65625 0.6875q0.453125 0.234375 1.296875 0.234375l10.015625 0q0.046875 0 0.09375 -0.265625q0.046875 -0.28125 0.078125 -0.671875q0.015625 -0.40625 0.015625 -0.79689026l0 -0.453125l0.890625 0l0 5.8437653l-0.890625 0l0 -0.3125q0 -0.8125 -0.203125 -1.25q-0.21875 -0.4375 -0.84375 -0.4375l-9.25 0q-1.28125 0 -1.953125 -0.5q-0.6875 -0.515625 -0.96875 -1.34375q-0.28125 -0.84375 -0.28125 -1.7968903q0 -0.546875 0.0625 -1.046875q0.0625 -0.515625 0.125 -0.734375zm5.296875 -4.763916l-1.015625 0l0 -0.203125q0 -0.625 -0.078125 -1.046875q-0.09375 -0.4375 -0.34375 -0.65625q-0.265625 -0.21875 -0.796875 -0.21875l1.125 -1.203125l0 -3.5625l1.109375 0l0 6.890625zm5.859375 -3.65625q0.796875 0 1.25 -0.21875q0.4375 -0.21875 0.625 -0.640625q0.1875 -0.4375 0.1875 -1.046875q0 -0.484375 -0.0625 -0.890625q-0.078125 -0.40625 -0.109375 -0.5625l1.125 0q0.046875 0.1875 0.09375 0.46875q0.0625 0.28125 0.09375 0.578125q0.046875 0.296875 0.046875 0.625q0 0.875 -0.25 1.640625q-0.265625 0.765625 -0.96875 1.25q-0.703125 0.46875 -2.0 0.46875l-6.71875 0l-0.15625 -0.140625l-2.984375 0l0 -1.53125l9.828125 0zm-11.09375 -8.103821l13.0625 0q0.046875 0 0.09375 -0.21875q0.046875 -0.234375 0.078125 -0.546875q0.015625 -0.328125 0.015625 -0.578125l0 -0.078125l0.890625 0l0 4.71875l-0.890625 0l0 -0.0625q0 -0.484375 -0.078125 -0.828125q-0.09375 -0.359375 -0.328125 -0.546875q-0.234375 -0.203125 -0.640625 -0.203125l-10.359375 0q-0.28125 0 -0.421875 0.15625q-0.140625 0.15625 -0.234375 0.484375q-0.09375 0.3125 -0.1875 0.8125l-0.03125 0.1875l-0.96875 0l0 -3.296875zm14.140625 -8.03125l0 4.71875l-0.890625 0l0 -0.078125q0 -0.25 -0.015625 -0.5625q-0.03125 -0.328125 -0.078125 -0.546875q-0.046875 -0.234375 -0.09375 -0.234375l-6.109375 0q-0.609375 0 -1.0 0.15625q-0.390625 0.15625 -0.578125 0.515625q-0.203125 0.34375 -0.203125 0.953125q0 0.625 0.25 1.21875q0.234375 0.578125 0.71875 1.125q0.484375 0.546875 1.234375 1.109375l-1.0 0q-0.796875 -0.53125 -1.328125 -1.125q-0.546875 -0.609375 -0.828125 -1.28125q-0.28125 -0.6875 -0.28125 -1.46875q0 -0.921875 0.3125 -1.546875q0.296875 -0.640625 0.921875 -0.96875q0.625 -0.34375 1.578125 -0.34375l5.453125 0q0.40625 0 0.640625 -0.1875q0.234375 -0.203125 0.328125 -0.546875q0.078125 -0.359375 0.078125 -0.84375l0 -0.0625l0.890625 0zm-4.90625 -3.0773468q1.078125 0 1.84375 -0.25q0.765625 -0.25 1.234375 -0.71875q0.46875 -0.46875 0.6875 -1.078125q0.21875 -0.609375 0.21875 -1.3125q0 -0.78125 -0.265625 -1.359375q-0.28125 -0.578125 -0.703125 -1.0q-0.4375 -0.421875 -0.921875 -0.71875l0.71875 -0.890625q0.65625 0.34375 1.1875 0.9375q0.53125 0.578125 0.828125 1.359375q0.28125 0.765625 0.28125 1.71875q0 1.40625 -0.59375 2.546875q-0.59375 1.140625 -1.75 1.8125q-1.15625 0.65625 -2.78125 0.65625q-1.59375 0 -2.765625 -0.609375q-1.1875 -0.609375 -1.84375 -1.65625q-0.671875 -1.0625 -0.671875 -2.421875q0 -1.09375 0.359375 -1.890625q0.34375 -0.8125 1.0625 -1.34375q0.703125 -0.546875 1.765625 -0.828125q1.0625 -0.28125 2.484375 -0.28125l0 7.71875l-1.078125 0l0 -6.484375l0.40625 0.484375q-1.0625 0.03125 -1.796875 0.1875q-0.75 0.15625 -1.203125 0.46875q-0.453125 0.3125 -0.65625 0.796875q-0.203125 0.484375 -0.203125 1.171875q0 0.65625 0.25 1.203125q0.25 0.546875 0.78125 0.953125q0.515625 0.40625 1.296875 0.625q0.78125 0.203125 1.828125 0.203125zm-3.71875 -21.815384q-0.109375 0.03125 -0.203125 0.25q-0.109375 0.21875 -0.15625 0.5625q-0.046875 0.328125 -0.046875 0.703125l0 0.09375l-0.984375 0l0 -4.25l0.984375 0l0 0.078125q0 0.34375 0.078125 0.640625q0.078125 0.28125 0.28125 0.5q0.1875 0.21875 0.578125 0.359375l8.203125 3.125l0 1.8125l-8.3125 3.109375q-0.34375 0.109375 -0.515625 0.3125q-0.1875 0.203125 -0.25 0.5q-0.0625 0.28125 -0.0625 0.703125l0 0.0625l-0.984375 0l0 -4.6875l0.984375 0l0 0.09375q0 0.40625 0.015625 0.765625q0 0.359375 0.03125 0.59375q0.03125 0.234375 0.109375 0.234375l8.171875 -2.96875l-0.1875 0.265625l-7.734375 -2.859375zm3.625 -13.520752q1.578125 0 2.765625 0.625q1.171875 0.625 1.8125 1.765625q0.625 1.125 0.625 2.625q0 1.53125 -0.625 2.671875q-0.640625 1.125 -1.8125 1.75q-1.1875 0.625 -2.765625 0.625q-1.1875 0 -2.140625 -0.359375q-0.96875 -0.359375 -1.65625 -1.03125q-0.6875 -0.671875 -1.046875 -1.59375q-0.359375 -0.921875 -0.359375 -2.0625q0 -1.140625 0.359375 -2.046875q0.359375 -0.921875 1.046875 -1.59375q0.6875 -0.671875 1.65625 -1.015625q0.953125 -0.359375 2.140625 -0.359375zm0 8.296875q1.34375 0 2.265625 -0.359375q0.90625 -0.375 1.359375 -1.09375q0.453125 -0.734375 0.453125 -1.828125q0 -1.078125 -0.453125 -1.796875q-0.453125 -0.734375 -1.359375 -1.09375q-0.921875 -0.375 -2.265625 -0.375q-1.3125 0 -2.203125 0.375q-0.90625 0.359375 -1.375 1.09375q-0.484375 0.71875 -0.484375 1.796875q0 1.09375 0.484375 1.828125q0.46875 0.71875 1.375 1.09375q0.890625 0.359375 2.203125 0.359375zm4.078125 -15.23735q0 -0.8125 -0.265625 -1.40625q-0.28125 -0.59375 -0.71875 -1.0q-0.4375 -0.421875 -0.921875 -0.75l0.71875 -0.875q0.671875 0.375 1.203125 0.96875q0.53125 0.578125 0.828125 1.359375q0.28125 0.765625 0.28125 1.75q0 1.578125 -0.640625 2.734375q-0.640625 1.140625 -1.8125 1.765625q-1.171875 0.609375 -2.75 0.609375q-1.609375 0 -2.765625 -0.640625q-1.171875 -0.640625 -1.796875 -1.796875q-0.640625 -1.171875 -0.640625 -2.765625q0 -0.984375 0.171875 -1.71875q0.15625 -0.75 0.375 -1.25q0.21875 -0.515625 0.390625 -0.734375l2.828125 0l0 1.6875l-2.40625 0q0.015625 -0.1875 0.09375 -0.359375q0.0625 -0.171875 0.171875 -0.28125q0.109375 -0.109375 0.25 -0.15625q0.125 -0.0625 0.265625 -0.0625q-0.421875 0.40625 -0.703125 1.171875q-0.296875 0.765625 -0.296875 1.703125q0 1.171875 0.484375 1.9375q0.46875 0.765625 1.390625 1.140625q0.90625 0.359375 2.1875 0.359375q0.984375 0 1.75 -0.203125q0.765625 -0.203125 1.296875 -0.625q0.515625 -0.421875 0.78125 -1.046875q0.25 -0.640625 0.25 -1.515625zm-5.171875 -12.292877l0.984375 0q0.140625 1.140625 0.328125 1.96875q0.1875 0.8125 0.421875 1.359375q0.21875 0.53125 0.5 0.859375q0.28125 0.3125 0.640625 0.453125q0.34375 0.125 0.75 0.125q0.53125 0 0.890625 -0.21875q0.34375 -0.21875 0.53125 -0.609375q0.171875 -0.390625 0.171875 -0.921875q0 -0.59375 -0.28125 -1.09375q-0.28125 -0.5 -0.84375 -0.96875q-0.5625 -0.46875 -1.390625 -0.921875l1.09375 -0.015625q0.765625 0.375 1.328125 0.875q0.5625 0.484375 0.875 1.109375q0.296875 0.625 0.296875 1.421875q0 0.890625 -0.296875 1.578125q-0.3125 0.6875 -0.90625 1.078125q-0.609375 0.390625 -1.4375 0.390625q-0.796875 0 -1.375 -0.34375q-0.578125 -0.359375 -1.0 -1.125q-0.4375 -0.78125 -0.75 -2.015625q-0.3125 -1.234375 -0.53125 -2.984375zm6.09375 0.03125l-2.171875 0.234375l-0.109375 0.09375l-4.859375 0q-0.71875 0 -1.140625 0.1875q-0.4375 0.1875 -0.609375 0.625q-0.1875 0.4375 -0.1875 1.171875q0 1.125 0.3125 1.84375q0.3125 0.703125 0.671875 1.0625q-0.15625 0 -0.3125 -0.078125q-0.15625 -0.078125 -0.296875 -0.203125q-0.140625 -0.140625 -0.234375 -0.3125q-0.09375 -0.171875 -0.125 -0.40625l2.15625 0l0 1.640625l-2.265625 0q-0.21875 -0.25 -0.4375 -0.75q-0.234375 -0.5 -0.40625 -1.21875q-0.1875 -0.734375 -0.1875 -1.640625q0 -0.75 0.15625 -1.40625q0.140625 -0.65625 0.484375 -1.140625q0.328125 -0.484375 0.875 -0.765625q0.53125 -0.28125 1.3125 -0.28125l5.640625 0q0.265625 0 0.421875 -0.171875q0.140625 -0.1875 0.203125 -0.515625q0.0625 -0.34375 0.125 -0.828125l0.015625 -0.09375l0.96875 0l0 2.953125zm0.203125 -10.314102q0 0.8125 -0.28125 1.46875q-0.28125 0.640625 -0.8125 1.171875q-0.53125 0.53125 -1.296875 1.0l-1.1875 -0.0625q0.796875 -0.484375 1.359375 -1.015625q0.546875 -0.53125 0.8125 -1.125q0.265625 -0.609375 0.265625 -1.359375q0 -0.734375 -0.265625 -1.28125q-0.265625 -0.546875 -0.796875 -0.90625q-0.53125 -0.375 -1.296875 -0.546875q-0.765625 -0.1875 -1.765625 -0.1875q-0.96875 0 -1.703125 0.171875q-0.734375 0.15625 -1.25 0.5q-0.515625 0.34375 -0.765625 0.875q-0.265625 0.53125 -0.265625 1.265625q0 0.78125 0.28125 1.421875q0.265625 0.625 0.8125 1.171875q0.53125 0.53125 1.375 1.046875l-1.140625 0.03125q-0.78125 -0.5 -1.34375 -1.046875q-0.5625 -0.5625 -0.84375 -1.234375q-0.296875 -0.671875 -0.296875 -1.546875q0 -1.390625 0.65625 -2.375q0.640625 -1.0 1.796875 -1.515625q1.140625 -0.53125 2.6875 -0.53125q1.53125 0 2.71875 0.5625q1.1875 0.546875 1.875 1.578125q0.671875 1.015625 0.671875 2.46875zm-12.5 4.953125q-0.28125 0 -0.421875 0.15625q-0.140625 0.15625 -0.234375 0.484375q-0.09375 0.3125 -0.1875 0.8125l-0.03125 0.1875l-0.96875 0l0 -3.3125l11.890625 0l0.125 0.09375l2.34375 0.453125l0 1.125l-12.515625 0zm2.28125 -14.29657l7.1875 0q0.59375 0 1.0 -0.15625q0.390625 -0.15625 0.59375 -0.5q0.1875 -0.34375 0.1875 -0.953125q0 -0.609375 -0.234375 -1.171875q-0.25 -0.578125 -0.734375 -1.125q-0.484375 -0.546875 -1.234375 -1.09375l1.015625 0q0.78125 0.515625 1.328125 1.109375q0.53125 0.59375 0.8125 1.265625q0.28125 0.671875 0.28125 1.453125q0 0.875 -0.296875 1.515625q-0.3125 0.640625 -0.953125 0.984375q-0.640625 0.328125 -1.5625 0.328125l-5.546875 0q-0.40625 0 -0.578125 0.359375q-0.171875 0.359375 -0.265625 1.078125l-0.03125 0.28125l-0.96875 0l0 -3.375zm0 -6.328125l8.28125 0q0.265625 0 0.421875 -0.1875q0.140625 -0.1875 0.21875 -0.53125q0.0625 -0.34375 0.109375 -0.8125l0.015625 -0.109375l0.96875 0l0 3.0l-2.1875 0.234375l-0.109375 0.078125l-5.875 0q-0.40625 0 -0.578125 0.359375q-0.171875 0.359375 -0.25 1.109375l-0.046875 0.453125l-0.96875 0l0 -3.59375zm-4.125 -6.213318l12.296875 0q0.578125 0 0.765625 -0.421875q0.1875 -0.4375 0.1875 -1.15625l0 -0.0625l0.890625 0l0 4.921875l-0.890625 0l0 -0.0625q0 -0.734375 -0.1875 -1.15625q-0.1875 -0.421875 -0.765625 -0.421875l-10.453125 0q-0.28125 0 -0.421875 0.171875q-0.140625 0.15625 -0.234375 0.46875q-0.09375 0.3125 -0.1875 0.828125l-0.03125 0.171875l-0.96875 0l0 -3.28125zm8.046875 -9.715561l0.984375 0q0.140625 1.140625 0.328125 1.96875q0.1875 0.8125 0.421875 1.359375q0.21875 0.53125 0.5 0.859375q0.28125 0.3125 0.640625 0.453125q0.34375 0.125 0.75 0.125q0.53125 0 0.890625 -0.21875q0.34375 -0.21875 0.53125 -0.609375q0.171875 -0.390625 0.171875 -0.921875q0 -0.59375 -0.28125 -1.09375q-0.28125 -0.5 -0.84375 -0.96875q-0.5625 -0.46875 -1.390625 -0.921875l1.09375 -0.015625q0.765625 0.375 1.328125 0.875q0.5625 0.484375 0.875 1.109375q0.296875 0.625 0.296875 1.421875q0 0.890625 -0.296875 1.578125q-0.3125 0.6875 -0.90625 1.078125q-0.609375 0.390625 -1.4375 0.390625q-0.796875 0 -1.375 -0.34375q-0.578125 -0.359375 -1.0 -1.125q-0.4375 -0.78125 -0.75 -2.015625q-0.3125 -1.234375 -0.53125 -2.984375zm6.09375 0.03125l-2.171875 0.234375l-0.109375 0.09375l-4.859375 0q-0.71875 0 -1.140625 0.1875q-0.4375 0.1875 -0.609375 0.625q-0.1875 0.4375 -0.1875 1.171875q0 1.125 0.3125 1.84375q0.3125 0.703125 0.671875 1.0625q-0.15625 0 -0.3125 -0.078125q-0.15625 -0.078125 -0.296875 -0.203125q-0.140625 -0.140625 -0.234375 -0.3125q-0.09375 -0.171875 -0.125 -0.40625l2.15625 0l0 1.640625l-2.265625 0q-0.21875 -0.25 -0.4375 -0.75q-0.234375 -0.5 -0.40625 -1.21875q-0.1875 -0.734375 -0.1875 -1.640625q0 -0.75 0.15625 -1.40625q0.140625 -0.65625 0.484375 -1.140625q0.328125 -0.484375 0.875 -0.765625q0.53125 -0.28125 1.3125 -0.28125l5.640625 0q0.265625 0 0.421875 -0.171875q0.140625 -0.18749237 0.203125 -0.5156174q0.0625 -0.34375 0.125 -0.828125l0.015625 -0.09375l0.96875 0l0 2.9531174zm-10.15625 -11.126595l1.796875 0q-0.03125 0.125 -0.046875 0.3125q-0.03125 0.1875 -0.046875 0.390625q-0.015625 0.1875 -0.015625 0.375q0 0.515625 0.109375 0.9375q0.09375 0.40625 0.3125 0.75q0.21875 0.34375 0.5625 0.65625q0.328125 0.3125 0.8125 0.65625l-0.859375 0q-0.875 -0.46875 -1.46875 -0.953125q-0.609375 -0.5 -0.90625 -1.09375q-0.3125 -0.59375 -0.3125 -1.34375q0 -0.21875 0.015625 -0.421875q0.015625 -0.203125 0.046875 -0.265625zm10.15625 7.03125l-0.890625 0l0 -0.0625q0 -0.71875 -0.203125 -1.140625q-0.21875 -0.421875 -0.84375 -0.421875l-6.234375 0q-0.28125 0 -0.421875 0.15625q-0.140625 0.15625 -0.234375 0.484375q-0.09375 0.3125 -0.1875 0.796875l-0.03125 0.1875l-0.96875 0l0 -2.984375l2.5 -0.234375l-0.078125 -0.0625l6.28125 0q0.171875 0 0.265625 -0.265625q0.09375 -0.265625 0.125 -0.609375q0.03125 -0.359375 0.03125 -0.625l0 -0.40625l0.890625 0l0 5.1875zm-0.828125 -14.5312195l0.703125 0.203125l0.546875 0.90625l-8.828125 3.625q-0.265625 0.109375 -0.390625 0.3125q-0.140625 0.1875 -0.1875 0.484375q-0.046875 0.28125 -0.046875 0.671875l0 0.109375l-0.984375 0l0 -4.765625l0.984375 0l0 0.09375q0 0.375 0.015625 0.734375q0 0.359375 0.03125 0.59375q0.03125 0.234375 0.109375 0.234375l8.046875 -3.203125zm0.515625 -0.265625q1.265625 0.515625 2.15625 1.03125q0.90625 0.5 1.4375 1.03125q0.546875 0.53125 0.796875 1.15625q0.25 0.609375 0.25 1.390625q0 0.5 -0.109375 0.890625q-0.09375 0.390625 -0.21875 0.59375l-1.5 0q0.015625 -0.046875 0.09375 -0.265625q0.09375 -0.21875 0.15625 -0.53125q0.078125 -0.328125 0.078125 -0.71875q0 -0.46875 -0.125 -0.90625q-0.125 -0.4375 -0.515625 -0.875q-0.390625 -0.453125 -1.171875 -0.890625q-0.765625 -0.453125 -2.015625 -0.921875l-0.328125 -0.140625l-7.3125 -2.9375q-0.125 0 -0.203125 0.234375q-0.09375 0.21875 -0.140625 0.578125q-0.046875 0.34375 -0.046875 0.71875l0 0.09375l-0.984375 0l0 -4.375l0.984375 0l0 0.109375q0 0.3125 0.0625 0.609375q0.0625 0.28125 0.25 0.515625q0.1875 0.234375 0.5625 0.375l7.84375 3.234375z" fill-rule="nonzero"/><path fill="#000000" fill-opacity="0.0" d="m239.4252 315.04987l42.015747 0l0 42.015747l-42.015747 0z" fill-rule="evenodd"/><path fill="#000000" d="m259.84708 337.75113l-0.875 4.21875l-11.140625 0l0.3125 -1.40625l0.203125 0q0.484375 0 0.84375 -0.125q0.359375 -0.125 0.453125 -0.5625l1.921875 -9.078125q0.09375 -0.40625 -0.21875 -0.53125q-0.296875 -0.140625 -0.796875 -0.140625l-0.203125 0l0.3125 -1.40625l10.46875 0l-0.71875 3.75l-1.65625 0l0.09375 -1.4375q0.046875 -0.328125 -0.15625 -0.5q-0.1875 -0.1875 -0.59375 -0.25q-0.40625 -0.0625 -1.015625 -0.0625l-1.921875 0l-2.1875 10.25l2.203125 0q0.75 0 1.21875 -0.0625q0.484375 -0.0625 0.734375 -0.234375q0.265625 -0.1875 0.375 -0.515625l0.671875 -1.90625l1.671875 0zm-6.015625 -3.25q0.765625 -0.046875 1.53125 -0.09375q0.78125 -0.046875 1.546875 -0.09375q0.78125 -0.046875 1.546875 -0.109375l-0.40625 1.921875q-0.75 -0.046875 -1.5 -0.09375q-0.734375 -0.046875 -1.5 -0.09375q-0.75 -0.0625 -1.515625 -0.109375l0.296875 -1.328125z" fill-rule="nonzero"/><path fill="#000000" fill-opacity="0.0" d="m393.46194 108.2231l0 0c0 -3.040596 -1.2078857 -5.95665 -3.3579102 -8.106674c-2.1500244 -2.1500244 -5.0660706 -3.357895 -8.106659 -3.357895l-19.055115 0c-6.3316956 0 -11.464569 -5.1328583 -11.464569 -11.464569l0 0c0 6.331711 -5.1328735 11.464569 -11.464569 11.464569l-19.055115 0c-6.3316956 0 -11.464569 5.1328583 -11.464569 11.464569z" fill-rule="evenodd"/><path fill="#000000" fill-opacity="0.0" d="m393.46194 108.2231l0 0c0 -3.040596 -1.2078857 -5.95665 -3.3579102 -8.106674c-2.1500244 -2.1500244 -5.0660706 -3.357895 -8.106659 -3.357895l-19.055115 0c-6.3316956 0 -11.464569 -5.1328583 -11.464569 -11.464569l0 0c0 6.331711 -5.1328735 11.464569 -11.464569 11.464569l-19.055115 0c-6.3316956 0 -11.464569 5.1328583 -11.464569 11.464569" fill-rule="evenodd"/><path stroke="#000000" stroke-width="1.0" stroke-linejoin="round" stroke-linecap="butt" d="m393.46194 108.2231l0 0c0 -3.040596 -1.2078857 -5.95665 -3.3579102 -8.106674c-2.1500244 -2.1500244 -5.0660706 -3.357895 -8.106659 -3.357895l-19.055115 0c-6.3316956 0 -11.464569 -5.1328583 -11.464569 -11.464569l0 0c0 6.331711 -5.1328735 11.464569 -11.464569 11.464569l-19.055115 0c-6.3316956 0 -11.464569 5.1328583 -11.464569 11.464569" fill-rule="evenodd"/><path fill="#000000" fill-opacity="0.0" d="m227.39896 19.89239l275.9685 0l0 64.62992l-275.9685 0z" fill-rule="evenodd"/><path fill="#000000" d="m238.96146 46.812386l2.6875 -14.265625l1.171875 0l-2.6875 14.265625l-1.171875 0zm-1.71875 -4.390625l0 -1.296875l10.46875 0l0 1.296875l-10.46875 0zm0.875 -4.5625l0 -1.3125l10.46875 0l0 1.3125l-10.46875 0zm4.828125 8.953125l2.65625 -14.265625l1.203125 0l-2.6875 14.265625l-1.171875 0zm22.409546 -5.0q0 1.578125 -0.625 2.765625q-0.625 1.171875 -1.765625 1.8125q-1.125 0.625 -2.625 0.625q-1.53125 0 -2.671875 -0.625q-1.125 -0.640625 -1.75 -1.8125q-0.625 -1.1875 -0.625 -2.765625q0 -1.1875 0.359375 -2.140625q0.359375 -0.96875 1.03125 -1.65625q0.671875 -0.6875 1.59375 -1.046875q0.921875 -0.359375 2.0625 -0.359375q1.140625 0 2.046875 0.359375q0.921875 0.359375 1.59375 1.046875q0.671875 0.6875 1.015625 1.65625q0.359375 0.953125 0.359375 2.140625zm-8.296875 0q0 1.34375 0.359375 2.265625q0.375 0.90625 1.09375 1.359375q0.734375 0.453125 1.828125 0.453125q1.078125 0 1.796875 -0.453125q0.734375 -0.453125 1.09375 -1.359375q0.375 -0.921875 0.375 -2.265625q0 -1.3125 -0.375 -2.203125q-0.359375 -0.90625 -1.09375 -1.375q-0.71875 -0.484375 -1.796875 -0.484375q-1.09375 0 -1.828125 0.484375q-0.71875 0.46875 -1.09375 1.375q-0.359375 0.890625 -0.359375 2.203125zm9.80069 -5.015625l6.671875 0l0 1.109375l-6.671875 0l0 -1.109375zm7.484375 -4.1875l0 1.234375q-0.28125 -0.078125 -0.75 -0.171875q-0.453125 -0.09375 -1.015625 -0.09375q-0.625 0 -1.078125 0.1875q-0.4375 0.1875 -0.6875 0.65625q-0.234375 0.453125 -0.234375 1.296875l0 10.015625q0 0.046875 0.265625 0.09375q0.28125 0.046875 0.671875 0.078125q0.40625 0.015625 0.796875 0.015625l0.453125 0l0 0.890625l-5.84375 0l0 -0.890625l0.3125 0q0.8125 0 1.25 -0.203125q0.4375 -0.21875 0.4375 -0.84375l0 -9.25q0 -1.28125 0.5 -1.953125q0.515625 -0.6875 1.34375 -0.96875q0.84375 -0.28125 1.796875 -0.28125q0.546875 0 1.046875 0.0625q0.515625 0.0625 0.734375 0.125zm5.279541 14.203125l0 -0.890625l0.0625 0q0.484375 0 0.828125 -0.078125q0.359375 -0.09375 0.546875 -0.328125q0.1875 -0.234375 0.1875 -0.640625l0 -6.234375q0 -0.28125 -0.15625 -0.421875q-0.15625 -0.140625 -0.484375 -0.234375q-0.3125 -0.09375 -0.796875 -0.1875l-0.1875 -0.03125l0 -0.96875l2.984375 0l0.234375 2.125l0.0625 0.09375l0 6.71875q0 0.046875 0.21875 0.09375q0.234375 0.046875 0.546875 0.078125q0.328125 0.015625 0.578125 0.015625l0.078125 0l0 0.890625l-4.703125 0zm11.3125 0l-4.703125 0l0 -0.890625l0.046875 0q0.265625 0 0.578125 -0.015625q0.328125 -0.03125 0.5625 -0.078125q0.234375 -0.046875 0.234375 -0.09375l0 -6.109375q0 -0.609375 -0.171875 -1.0q-0.15625 -0.390625 -0.515625 -0.578125q-0.34375 -0.203125 -0.9375 -0.203125q-0.625 0 -1.21875 0.25q-0.578125 0.234375 -1.125 0.71875q-0.546875 0.484375 -1.109375 1.25l0 -1.015625q0.53125 -0.796875 1.125 -1.328125q0.609375 -0.546875 1.28125 -0.828125q0.6875 -0.28125 1.46875 -0.28125q0.921875 0 1.546875 0.3125q0.625 0.296875 0.96875 0.921875q0.34375 0.625 0.34375 1.578125l0 5.453125q0 0.40625 0.1875 0.640625q0.1875 0.234375 0.53125 0.328125q0.359375 0.078125 0.84375 0.078125l0.0625 0l0 0.890625zm3.0929565 -4.90625q0 1.078125 0.25 1.84375q0.25 0.765625 0.71875 1.234375q0.46875 0.46875 1.078125 0.6875q0.609375 0.21875 1.3125 0.21875q0.78125 0 1.359375 -0.265625q0.578125 -0.28125 1.0 -0.703125q0.421875 -0.4375 0.71875 -0.921875l0.890625 0.71875q-0.34375 0.65625 -0.9375 1.1875q-0.578125 0.53125 -1.359375 0.828125q-0.765625 0.28125 -1.71875 0.28125q-1.40625 0 -2.546875 -0.59375q-1.140625 -0.59375 -1.8125 -1.75q-0.65625 -1.15625 -0.65625 -2.78125q0 -1.59375 0.609375 -2.765625q0.609375 -1.1875 1.65625 -1.84375q1.0625 -0.671875 2.421875 -0.671875q1.09375 0 1.890625 0.359375q0.8125 0.34375 1.34375 1.0625q0.546875 0.703125 0.828125 1.765625q0.28125 1.0625 0.28125 2.484375l-7.71875 0l0 -1.078125l6.484375 0l-0.484375 0.40625q-0.03125 -1.0625 -0.1875 -1.796875q-0.15625 -0.75 -0.46875 -1.203125q-0.3125 -0.453125 -0.796875 -0.65625q-0.484375 -0.203125 -1.171875 -0.203125q-0.65625 0 -1.203125 0.25q-0.546875 0.25 -0.953125 0.78125q-0.40625 0.515625 -0.625 1.296875q-0.203125 0.78125 -0.203125 1.828125zm11.996002 -5.109375l0 7.1875q0 0.59375 0.15625 1.0q0.15625 0.390625 0.5 0.59375q0.34375 0.1875 0.953125 0.1875q0.609375 0 1.171875 -0.234375q0.578125 -0.25 1.125 -0.734375q0.546875 -0.484375 1.09375 -1.234375l0 1.015625q-0.515625 0.78125 -1.109375 1.328125q-0.59375 0.53125 -1.265625 0.8125q-0.671875 0.28125 -1.453125 0.28125q-0.875 0 -1.515625 -0.296875q-0.640625 -0.3125 -0.984375 -0.953125q-0.328125 -0.640625 -0.328125 -1.5625l0 -5.546875q0 -0.40625 -0.359375 -0.578125q-0.359375 -0.171875 -1.078125 -0.265625l-0.28125 -0.03125l0 -0.96875l3.375 0zm6.328125 0l0 8.28125q0 0.265625 0.1875 0.421875q0.1875 0.140625 0.53125 0.21875q0.34375 0.0625 0.8125 0.109375l0.109375 0.015625l0 0.96875l-3.0 0l-0.234375 -2.1875l-0.078125 -0.109375l0 -5.875q0 -0.40625 -0.359375 -0.578125q-0.359375 -0.171875 -1.109375 -0.25l-0.453125 -0.046875l0 -0.96875l3.59375 0zm9.916443 -0.140625l0 1.796875q-0.125 -0.03125 -0.3125 -0.046875q-0.1875 -0.03125 -0.390625 -0.046875q-0.1875 -0.015625 -0.375 -0.015625q-0.515625 0 -0.9375 0.109375q-0.40625 0.09375 -0.75 0.3125q-0.34375 0.21875 -0.65625 0.5625q-0.3125 0.328125 -0.65625 0.8125l0 -0.859375q0.46875 -0.875 0.953125 -1.46875q0.5 -0.609375 1.09375 -0.90625q0.59375 -0.3125 1.34375 -0.3125q0.21875 0 0.421875 0.015625q0.203125 0.015625 0.265625 0.046875zm-7.03125 10.15625l0 -0.890625l0.0625 0q0.71875 0 1.140625 -0.203125q0.421875 -0.21875 0.421875 -0.84375l0 -6.234375q0 -0.28125 -0.15625 -0.421875q-0.15625 -0.140625 -0.484375 -0.234375q-0.3125 -0.09375 -0.796875 -0.1875l-0.1875 -0.03125l0 -0.96875l2.984375 0l0.234375 2.5l0.0625 -0.078125l0 6.28125q0 0.171875 0.265625 0.265625q0.265625 0.09375 0.609375 0.125q0.359375 0.03125 0.625 0.03125l0.40625 0l0 0.890625l-5.1875 0zm18.361847 -5.0q0 1.578125 -0.625 2.765625q-0.625 1.171875 -1.765625 1.8125q-1.125 0.625 -2.625 0.625q-1.53125 0 -2.671875 -0.625q-1.125 -0.640625 -1.75 -1.8125q-0.625 -1.1875 -0.625 -2.765625q0 -1.1875 0.359375 -2.140625q0.359375 -0.96875 1.03125 -1.65625q0.671875 -0.6875 1.59375 -1.046875q0.921875 -0.359375 2.0625 -0.359375q1.140625 0 2.046875 0.359375q0.921875 0.359375 1.59375 1.046875q0.671875 0.6875 1.015625 1.65625q0.359375 0.953125 0.359375 2.140625zm-8.296875 0q0 1.34375 0.359375 2.265625q0.375 0.90625 1.09375 1.359375q0.734375 0.453125 1.828125 0.453125q1.078125 0 1.796875 -0.453125q0.734375 -0.453125 1.09375 -1.359375q0.375 -0.921875 0.375 -2.265625q0 -1.3125 -0.375 -2.203125q-0.359375 -0.90625 -1.09375 -1.375q-0.71875 -0.484375 -1.796875 -0.484375q-1.09375 0 -1.828125 0.484375q-0.71875 0.46875 -1.09375 1.375q-0.359375 0.890625 -0.359375 2.203125zm9.971741 5.0l0 -0.890625l0.0625 0q0.484375 0 0.828125 -0.078125q0.359375 -0.09375 0.546875 -0.328125q0.1875 -0.234375 0.1875 -0.640625l0 -6.234375q0 -0.28125 -0.15625 -0.421875q-0.15625 -0.140625 -0.484375 -0.234375q-0.3125 -0.09375 -0.796875 -0.1875l-0.1875 -0.03125l0 -0.96875l2.984375 0l0.234375 2.125l0.0625 0.09375l0 6.71875q0 0.046875 0.21875 0.09375q0.234375 0.046875 0.546875 0.078125q0.328125 0.015625 0.578125 0.015625l0.078125 0l0 0.890625l-4.703125 0zm11.3125 0l-4.703125 0l0 -0.890625l0.046875 0q0.265625 0 0.578125 -0.015625q0.328125 -0.03125 0.5625 -0.078125q0.234375 -0.046875 0.234375 -0.09375l0 -6.109375q0 -0.609375 -0.171875 -1.0q-0.15625 -0.390625 -0.515625 -0.578125q-0.34375 -0.203125 -0.9375 -0.203125q-0.625 0 -1.21875 0.25q-0.578125 0.234375 -1.125 0.71875q-0.546875 0.484375 -1.109375 1.25l0 -1.015625q0.53125 -0.796875 1.125 -1.328125q0.609375 -0.546875 1.28125 -0.828125q0.6875 -0.28125 1.46875 -0.28125q0.921875 0 1.546875 0.3125q0.625 0.296875 0.96875 0.921875q0.34375 0.625 0.34375 1.578125l0 5.453125q0 0.40625 0.1875 0.640625q0.1875 0.234375 0.53125 0.328125q0.359375 0.078125 0.84375 0.078125l0.0625 0l0 0.890625zm7.6554565 -2.625q0 -0.453125 -0.21875 -0.75q-0.203125 -0.296875 -0.578125 -0.484375q-0.375 -0.1875 -0.859375 -0.3125q-0.46875 -0.125 -0.96875 -0.234375q-0.609375 -0.140625 -1.21875 -0.328125q-0.59375 -0.1875 -1.078125 -0.5q-0.484375 -0.328125 -0.78125 -0.828125q-0.28125 -0.515625 -0.28125 -1.28125q0 -0.859375 0.421875 -1.5q0.4375 -0.65625 1.25 -1.0q0.828125 -0.359375 1.984375 -0.359375q0.921875 0 1.59375 0.109375q0.6875 0.109375 1.140625 0.265625q0.453125 0.140625 0.6875 0.28125l0 2.34375l-1.640625 0l0 -1.9375q0.1875 0 0.328125 0.0625q0.140625 0.046875 0.21875 0.15625q0.078125 0.09375 0.125 0.265625q0.046875 0.171875 0.03125 0.375q-0.21875 -0.265625 -0.59375 -0.453125q-0.375 -0.1875 -0.859375 -0.265625q-0.46875 -0.078125 -1.03125 -0.078125q-1.09375 0 -1.609375 0.40625q-0.515625 0.40625 -0.515625 1.109375q0 0.46875 0.21875 0.765625q0.21875 0.296875 0.578125 0.484375q0.375 0.1875 0.875 0.328125q0.5 0.140625 1.03125 0.25q0.59375 0.140625 1.1875 0.34375q0.609375 0.1875 1.078125 0.5q0.484375 0.3125 0.765625 0.828125q0.296875 0.5 0.296875 1.265625q0 0.875 -0.453125 1.5625q-0.453125 0.671875 -1.328125 1.0625q-0.875 0.375 -2.15625 0.375q-0.9375 0 -1.671875 -0.125q-0.734375 -0.109375 -1.3125 -0.328125q-0.5625 -0.21875 -0.96875 -0.453125l0 -2.453125l1.671875 0l0 2.578125q-0.296875 -0.15625 -0.453125 -0.296875q-0.15625 -0.15625 -0.21875 -0.296875q-0.046875 -0.15625 -0.046875 -0.3125q0 -0.171875 0.03125 -0.34375q0.296875 0.28125 0.734375 0.484375q0.4375 0.203125 1.0 0.328125q0.5625 0.125 1.234375 0.125q0.78125 0 1.296875 -0.1875q0.53125 -0.203125 0.796875 -0.578125q0.265625 -0.390625 0.265625 -0.96875zm16.53067 -6.125l0 1.25l-8.09375 0l0 -1.25l8.09375 0zm0 3.78125l0 1.25l-8.09375 0l0 -1.25l8.09375 0zm8.626282 0.0625q0 1.078125 0.25 1.84375q0.25 0.765625 0.71875 1.234375q0.46875 0.46875 1.078125 0.6875q0.609375 0.21875 1.3125 0.21875q0.78125 0 1.359375 -0.265625q0.578125 -0.28125 1.0 -0.703125q0.421875 -0.4375 0.71875 -0.921875l0.890625 0.71875q-0.34375 0.65625 -0.9375 1.1875q-0.578125 0.53125 -1.359375 0.828125q-0.765625 0.28125 -1.71875 0.28125q-1.40625 0 -2.546875 -0.59375q-1.140625 -0.59375 -1.8125 -1.75q-0.65625 -1.15625 -0.65625 -2.78125q0 -1.59375 0.609375 -2.765625q0.609375 -1.1875 1.65625 -1.84375q1.0625 -0.671875 2.421875 -0.671875q1.09375 0 1.890625 0.359375q0.8125 0.34375 1.34375 1.0625q0.546875 0.703125 0.828125 1.765625q0.28125 1.0625 0.28125 2.484375l-7.71875 0l0 -1.078125l6.484375 0l-0.484375 0.40625q-0.03125 -1.0625 -0.1875 -1.796875q-0.15625 -0.75 -0.46875 -1.203125q-0.3125 -0.453125 -0.796875 -0.65625q-0.484375 -0.203125 -1.171875 -0.203125q-0.65625 0 -1.203125 0.25q-0.546875 0.25 -0.953125 0.78125q-0.40625 0.515625 -0.625 1.296875q-0.203125 0.78125 -0.203125 1.828125zm8.933502 4.90625l0 -0.890625l0.0625 0q0.71875 0 1.140625 -0.203125q0.421875 -0.21875 0.421875 -0.84375l0 -6.234375q0 -0.28125 -0.15625 -0.421875q-0.15625 -0.140625 -0.484375 -0.234375q-0.3125 -0.09375 -0.796875 -0.1875l-0.1875 -0.03125l0 -0.96875l2.96875 0l0.21875 2.109375l0.09375 0.109375l0 6.71875q0 0.046875 0.21875 0.09375q0.234375 0.046875 0.53125 0.078125q0.3125 0.015625 0.5625 0.015625l0.078125 0l0 0.890625l-4.671875 0zm10.59375 0l-4.421875 0l0 -0.890625l0.0625 0q0.265625 0 0.5625 -0.015625q0.3125 -0.03125 0.53125 -0.078125q0.234375 -0.046875 0.234375 -0.09375l0 -6.109375q0 -0.59375 -0.140625 -0.984375q-0.125 -0.40625 -0.421875 -0.59375q-0.296875 -0.203125 -0.84375 -0.203125q-0.578125 0 -1.109375 0.25q-0.515625 0.234375 -1.046875 0.71875q-0.515625 0.46875 -1.0625 1.171875l0.015625 -1.078125q0.53125 -0.734375 1.078125 -1.234375q0.5625 -0.515625 1.1875 -0.78125q0.640625 -0.28125 1.390625 -0.28125q0.8125 0 1.40625 0.3125q0.59375 0.296875 0.890625 0.921875q0.3125 0.625 0.3125 1.578125l0 6.3125q0 0.046875 0.203125 0.09375q0.21875 0.046875 0.53125 0.078125q0.328125 0.015625 0.59375 0.015625l0.046875 0l0 0.890625zm6.203125 0l-4.6875 0l0 -0.890625l0.078125 0q0.265625 0 0.5625 -0.015625q0.296875 -0.03125 0.5 -0.078125q0.21875 -0.046875 0.21875 -0.09375l0 -6.109375q0 -0.59375 -0.125 -0.984375q-0.125 -0.40625 -0.4375 -0.59375q-0.296875 -0.203125 -0.8125 -0.203125q-0.578125 0 -1.109375 0.25q-0.53125 0.234375 -1.046875 0.71875q-0.515625 0.46875 -1.078125 1.171875l0 -1.078125q0.5625 -0.734375 1.109375 -1.234375q0.5625 -0.515625 1.1875 -0.78125q0.625 -0.28125 1.359375 -0.28125q0.84375 0 1.421875 0.3125q0.578125 0.296875 0.875 0.921875q0.3125 0.625 0.3125 1.578125l0 5.453125q0 0.625 0.421875 0.84375q0.4375 0.203125 1.171875 0.203125l0.078125 0l0 0.890625zm7.2571106 0.203125q-0.8125 0 -1.46875 -0.28125q-0.640625 -0.28125 -1.171875 -0.8125q-0.53125 -0.53125 -1.0 -1.296875l0.0625 -1.1875q0.484375 0.796875 1.015625 1.359375q0.53125 0.546875 1.125 0.8125q0.609375 0.265625 1.359375 0.265625q0.734375 0 1.28125 -0.265625q0.546875 -0.265625 0.90625 -0.796875q0.375 -0.53125 0.546875 -1.296875q0.1875 -0.765625 0.1875 -1.765625q0 -0.96875 -0.171875 -1.703125q-0.15625 -0.734375 -0.5 -1.25q-0.34375 -0.515625 -0.875 -0.765625q-0.53125 -0.265625 -1.265625 -0.265625q-0.78125 0 -1.421875 0.28125q-0.625 0.265625 -1.171875 0.8125q-0.53125 0.53125 -1.046875 1.375l-0.03125 -1.140625q0.5 -0.78125 1.046875 -1.34375q0.5625 -0.5625 1.234375 -0.84375q0.671875 -0.296875 1.546875 -0.296875q1.390625 0 2.375 0.65625q1.0 0.640625 1.515625 1.796875q0.53125 1.140625 0.53125 2.6875q0 1.53125 -0.5625 2.71875q-0.546875 1.1875 -1.578125 1.875q-1.015625 0.671875 -2.46875 0.671875zm-4.953125 -12.5q0 -0.28125 -0.15625 -0.421875q-0.15625 -0.140625 -0.484375 -0.234375q-0.3125 -0.09375 -0.8125 -0.1875l-0.1875 -0.03125l0 -0.96875l3.3125 0l0 11.890625l-0.09375 0.125l-0.453125 2.34375l-1.125 0l0 -12.515625zm13.04657 7.390625q0 1.078125 0.25 1.84375q0.25 0.765625 0.71875 1.234375q0.46875 0.46875 1.078125 0.6875q0.609375 0.21875 1.3125 0.21875q0.78125 0 1.359375 -0.265625q0.578125 -0.28125 1.0 -0.703125q0.421875 -0.4375 0.71875 -0.921875l0.890625 0.71875q-0.34375 0.65625 -0.9375 1.1875q-0.578125 0.53125 -1.359375 0.828125q-0.765625 0.28125 -1.71875 0.28125q-1.40625 0 -2.546875 -0.59375q-1.140625 -0.59375 -1.8125 -1.75q-0.65625 -1.15625 -0.65625 -2.78125q0 -1.59375 0.609375 -2.765625q0.609375 -1.1875 1.65625 -1.84375q1.0625 -0.671875 2.421875 -0.671875q1.09375 0 1.890625 0.359375q0.8125 0.34375 1.34375 1.0625q0.546875 0.703125 0.828125 1.765625q0.28125 1.0625 0.28125 2.484375l-7.71875 0l0 -1.078125l6.484375 0l-0.484375 0.40625q-0.03125 -1.0625 -0.1875 -1.796875q-0.15625 -0.75 -0.46875 -1.203125q-0.3125 -0.453125 -0.796875 -0.65625q-0.484375 -0.203125 -1.171875 -0.203125q-0.65625 0 -1.203125 0.25q-0.546875 0.25 -0.953125 0.78125q-0.40625 0.515625 -0.625 1.296875q-0.203125 0.78125 -0.203125 1.828125zm18.714355 3.171875q0 0.40625 0.421875 0.546875q0.421875 0.125 1.109375 0.203125l0.09375 0.015625l0 0.96875l-2.984375 0l-0.234375 -2.1875l-0.0625 -0.015625l0 -10.09375q0 -0.28125 -0.171875 -0.421875q-0.15625 -0.140625 -0.484375 -0.234375q-0.328125 -0.09375 -0.828125 -0.1875l-0.1875 -0.03125l0 -0.96875l3.328125 0l0 12.40625zm-4.953125 -8.46875q0.828125 0 1.46875 0.28125q0.640625 0.28125 1.171875 0.8125q0.53125 0.515625 0.984375 1.296875l-0.0625 1.234375q-0.453125 -0.84375 -0.984375 -1.390625q-0.515625 -0.5625 -1.125 -0.8125q-0.609375 -0.265625 -1.359375 -0.265625q-0.71875 0 -1.28125 0.28125q-0.5625 0.265625 -0.9375 0.78125q-0.375 0.515625 -0.5625 1.296875q-0.171875 0.78125 -0.171875 1.765625q0 0.953125 0.171875 1.703125q0.171875 0.734375 0.515625 1.25q0.34375 0.515625 0.890625 0.78125q0.546875 0.25 1.265625 0.25q0.78125 0 1.421875 -0.265625q0.640625 -0.265625 1.171875 -0.8125q0.546875 -0.5625 1.03125 -1.375l0.015625 1.140625q-0.484375 0.78125 -1.03125 1.328125q-0.53125 0.546875 -1.21875 0.84375q-0.671875 0.28125 -1.53125 0.28125q-1.421875 0 -2.421875 -0.640625q-0.984375 -0.640625 -1.515625 -1.796875q-0.53125 -1.15625 -0.53125 -2.6875q0 -1.546875 0.546875 -2.734375q0.5625 -1.1875 1.59375 -1.859375q1.046875 -0.6875 2.484375 -0.6875zm17.50879 8.46875q0 0.40625 0.421875 0.546875q0.421875 0.125 1.109375 0.203125l0.09375 0.015625l0 0.96875l-2.984375 0l-0.234375 -2.1875l-0.0625 -0.015625l0 -10.09375q0 -0.28125 -0.171875 -0.421875q-0.15625 -0.140625 -0.484375 -0.234375q-0.328125 -0.09375 -0.828125 -0.1875l-0.1875 -0.03125l0 -0.96875l3.328125 0l0 12.40625zm-4.953125 -8.46875q0.828125 0 1.46875 0.28125q0.640625 0.28125 1.171875 0.8125q0.53125 0.515625 0.984375 1.296875l-0.0625 1.234375q-0.453125 -0.84375 -0.984375 -1.390625q-0.515625 -0.5625 -1.125 -0.8125q-0.609375 -0.265625 -1.359375 -0.265625q-0.71875 0 -1.28125 0.28125q-0.5625 0.265625 -0.9375 0.78125q-0.375 0.515625 -0.5625 1.296875q-0.171875 0.78125 -0.171875 1.765625q0 0.953125 0.171875 1.703125q0.171875 0.734375 0.515625 1.25q0.34375 0.515625 0.890625 0.78125q0.546875 0.25 1.265625 0.25q0.78125 0 1.421875 -0.265625q0.640625 -0.265625 1.171875 -0.8125q0.546875 -0.5625 1.03125 -1.375l0.015625 1.140625q-0.484375 0.78125 -1.03125 1.328125q-0.53125 0.546875 -1.21875 0.84375q-0.671875 0.28125 -1.53125 0.28125q-1.421875 0 -2.421875 -0.640625q-0.984375 -0.640625 -1.515625 -1.796875q-0.53125 -1.15625 -0.53125 -2.6875q0 -1.546875 0.546875 -2.734375q0.5625 -1.1875 1.59375 -1.859375q1.046875 -0.6875 2.484375 -0.6875zm10.149414 -1.875q-0.53125 0 -0.875 -0.296875q-0.328125 -0.296875 -0.328125 -0.890625q0 -0.578125 0.328125 -0.875q0.34375 -0.296875 0.875 -0.296875q0.53125 0 0.875 0.296875q0.34375 0.296875 0.34375 0.875q0 0.59375 -0.34375 0.890625q-0.34375 0.296875 -0.875 0.296875zm0.953125 2.0625l0 8.171875q0 0.578125 0.421875 0.765625q0.4375 0.1875 1.171875 0.1875l0.046875 0l0 0.890625l-4.921875 0l0 -0.890625l0.0625 0q0.71875 0 1.140625 -0.1875q0.4375 -0.1875 0.4375 -0.765625l0 -6.328125q0 -0.40625 -0.359375 -0.546875q-0.34375 -0.140625 -1.09375 -0.296875l-0.1875 -0.03125l0 -0.96875l3.28125 0zm2.9685974 10.015625l0 -0.890625l0.0625 0q0.484375 0 0.828125 -0.078125q0.359375 -0.09375 0.546875 -0.328125q0.1875 -0.234375 0.1875 -0.640625l0 -6.234375q0 -0.28125 -0.15625 -0.421875q-0.15625 -0.140625 -0.484375 -0.234375q-0.3125 -0.09375 -0.796875 -0.1875l-0.1875 -0.03125l0 -0.96875l2.984375 0l0.234375 2.125l0.0625 0.09375l0 6.71875q0 0.046875 0.21875 0.09375q0.234375 0.046875 0.546875 0.078125q0.328125 0.015625 0.578125 0.015625l0.078125 0l0 0.890625l-4.703125 0zm11.3125 0l-4.703125 0l0 -0.890625l0.046875 0q0.265625 0 0.578125 -0.015625q0.328125 -0.03125 0.5625 -0.078125q0.234375 -0.046875 0.234375 -0.09375l0 -6.109375q0 -0.609375 -0.171875 -1.0q-0.15625 -0.390625 -0.515625 -0.578125q-0.34375 -0.203125 -0.9375 -0.203125q-0.625 0 -1.21875 0.25q-0.578125 0.234375 -1.125 0.71875q-0.546875 0.484375 -1.109375 1.25l0 -1.015625q0.53125 -0.796875 1.125 -1.328125q0.609375 -0.546875 1.28125 -0.828125q0.6875 -0.28125 1.46875 -0.28125q0.921875 0 1.546875 0.3125q0.625 0.296875 0.96875 0.921875q0.34375 0.625 0.34375 1.578125l0 5.453125q0 0.40625 0.1875 0.640625q0.1875 0.234375 0.53125 0.328125q0.359375 0.078125 0.84375 0.078125l0.0625 0l0 0.890625zm12.046112 -8.90625q-0.8594055 -0.03125 -1.4687805 -0.015625q-0.59375 0.015625 -1.015625 0.109375q-0.421875 0.09375 -0.703125 0.328125l-0.28125 -0.078125q0.25 -0.59375 0.578125 -1.015625q0.34375 -0.4375 0.75 -0.703125q0.421875 -0.265625 0.953125 -0.359375q0.5312805 -0.09375 1.1875305 -0.03125l0 1.765625zm-5.9844055 5.859375q-1.15625 0 -2.046875 -0.4375q-0.890625 -0.4375 -1.390625 -1.234375q-0.484375 -0.796875 -0.484375 -1.890625q0 -1.0625 0.5 -1.875q0.515625 -0.8125 1.390625 -1.265625q0.890625 -0.453125 2.03125 -0.453125q1.15625 0 2.046875 0.453125q0.890625 0.453125 1.390625 1.265625q0.515625 0.8125 0.515625 1.875q0 1.09375 -0.515625 1.890625q-0.5 0.796875 -1.390625 1.234375q-0.875 0.4375 -2.046875 0.4375zm0 -1.09375q0.75 0 1.25 -0.28125q0.515625 -0.28125 0.78125 -0.828125q0.265625 -0.546875 0.265625 -1.359375q0 -0.796875 -0.265625 -1.359375q-0.265625 -0.5625 -0.78125 -0.84375q-0.5 -0.296875 -1.25 -0.296875q-0.734375 0 -1.234375 0.296875q-0.5 0.28125 -0.765625 0.84375q-0.265625 0.5625 -0.265625 1.359375q0 0.8125 0.265625 1.359375q0.265625 0.546875 0.765625 0.828125q0.5 0.28125 1.234375 0.28125zm-0.828125 8.6875q-1.203125 0 -2.15625 -0.234375q-0.9375 -0.234375 -1.484375 -0.75q-0.53125 -0.5 -0.53125 -1.34375q0 -0.546875 0.234375 -0.953125q0.25 -0.40625 0.75 -0.765625q0.5 -0.34375 1.265625 -0.75l0.5625 0.359375q-0.484375 0.34375 -0.78125 0.640625q-0.28125 0.3125 -0.40625 0.609375q-0.109375 0.296875 -0.109375 0.65625q0 0.453125 0.265625 0.75q0.265625 0.3125 0.859375 0.484375q0.609375 0.1875 1.59375 0.1875l1.578125 0q1.0 0 1.6875 -0.234375q0.6875 -0.234375 1.0625 -0.671875q0.375 -0.421875 0.375 -1.015625q0 -0.5625 -0.375 -0.84375q-0.375 -0.265625 -1.328125 -0.265625l-4.265625 0l-0.046875 0q-0.78125 -0.15625 -1.296875 -0.40625q-0.515625 -0.265625 -0.75 -0.625q-0.21875 -0.375 -0.21875 -0.84375q0 -0.515625 0.25 -0.921875q0.25 -0.421875 0.71875 -0.796875q0.484375 -0.390625 1.15625 -0.734375l0.5625 0.390625q-0.40625 0.28125 -0.65625 0.53125q-0.25 0.25 -0.375 0.484375q-0.125 0.234375 -0.125 0.515625q0 0.4375 0.359375 0.640625q0.359375 0.1875 1.0625 0.1875l3.640625 0q1.046875 0 1.75 0.265625q0.71875 0.25 1.09375 0.78125q0.39065552 0.53125 0.39065552 1.375q0 1.125 -0.6406555 1.859375q-0.625 0.734375 -1.6875 1.078125q-1.0625 0.359375 -2.34375 0.359375l-1.640625 0z" fill-rule="nonzero"/><path fill="#000000" d="m246.8677 67.47801q0 0.40625 0.421875 0.546875q0.421875 0.125 1.109375 0.203125l0.09375 0.015625l0 0.96875l-2.984375 0l-0.234375 -2.1875l-0.0625 -0.015625l0 -10.093754q0 -0.28125 -0.171875 -0.421875q-0.15625 -0.140625 -0.484375 -0.234375q-0.328125 -0.09375 -0.828125 -0.1875l-0.1875 -0.03125l0 -0.96875l3.328125 0l0 12.406254zm-4.953125 -8.468754q0.828125 0 1.46875 0.28125q0.640625 0.28125 1.171875 0.8125q0.53125 0.515625 0.984375 1.296875l-0.0625 1.234375q-0.453125 -0.84375 -0.984375 -1.390625q-0.515625 -0.5625 -1.125 -0.8125q-0.609375 -0.265625 -1.359375 -0.265625q-0.71875 0 -1.28125 0.28125q-0.5625 0.265625 -0.9375 0.78125q-0.375 0.515625 -0.5625 1.296875q-0.171875 0.78125 -0.171875 1.7656288q0 0.953125 0.171875 1.703125q0.171875 0.734375 0.515625 1.25q0.34375 0.515625 0.890625 0.78125q0.546875 0.25 1.265625 0.25q0.78125 0 1.421875 -0.265625q0.640625 -0.265625 1.171875 -0.8125q0.546875 -0.5625 1.03125 -1.375l0.015625 1.140625q-0.484375 0.78125 -1.03125 1.328125q-0.53125 0.546875 -1.21875 0.84375q-0.671875 0.28125 -1.53125 0.28125q-1.421875 0 -2.421875 -0.640625q-0.984375 -0.640625 -1.515625 -1.796875q-0.53125 -1.15625 -0.53125 -2.6875q0 -1.5468788 0.546875 -2.7343788q0.5625 -1.1875 1.59375 -1.859375q1.046875 -0.6875 2.484375 -0.6875zm10.149414 -1.875q-0.53125 0 -0.875 -0.296875q-0.328125 -0.296875 -0.328125 -0.890625q0 -0.578125 0.328125 -0.875q0.34375 -0.296875 0.875 -0.296875q0.53125 0 0.875 0.296875q0.34375 0.296875 0.34375 0.875q0 0.59375 -0.34375 0.890625q-0.34375 0.296875 -0.875 0.296875zm0.953125 2.0625l0 8.171879q0 0.578125 0.421875 0.765625q0.4375 0.1875 1.171875 0.1875l0.046875 0l0 0.890625l-4.921875 0l0 -0.890625l0.0625 0q0.71875 0 1.140625 -0.1875q0.4375 -0.1875 0.4375 -0.765625l0 -6.328129q0 -0.40625 -0.359375 -0.546875q-0.34375 -0.140625 -1.09375 -0.296875l-0.1875 -0.03125l0 -0.96875l3.28125 0zm2.9685974 10.015629l0 -0.890625l0.0625 0q0.71875 0 1.140625 -0.203125q0.421875 -0.21875 0.421875 -0.84375l0 -6.234379q0 -0.28125 -0.15625 -0.421875q-0.15625 -0.140625 -0.484375 -0.234375q-0.3125 -0.09375 -0.796875 -0.1875l-0.1875 -0.03125l0 -0.96875l2.96875 0l0.21875 2.109375l0.09375 0.109375l0 6.718754q0 0.046875 0.21875 0.09375q0.234375 0.046875 0.53125 0.078125q0.3125 0.015625 0.5625 0.015625l0.078125 0l0 0.890625l-4.671875 0zm10.59375 0l-4.421875 0l0 -0.890625l0.0625 0q0.265625 0 0.5625 -0.015625q0.3125 -0.03125 0.53125 -0.078125q0.234375 -0.046875 0.234375 -0.09375l0 -6.109379q0 -0.59375 -0.140625 -0.984375q-0.125 -0.40625 -0.421875 -0.59375q-0.296875 -0.203125 -0.84375 -0.203125q-0.578125 0 -1.109375 0.25q-0.515625 0.234375 -1.046875 0.71875q-0.515625 0.46875 -1.0625 1.171875l0.015625 -1.078125q0.53125 -0.734375 1.078125 -1.234375q0.5625 -0.515625 1.1875 -0.78125q0.640625 -0.28125 1.390625 -0.28125q0.8125 0 1.40625 0.3125q0.59375 0.296875 0.890625 0.921875q0.3125 0.625 0.3125 1.578125l0 6.312504q0 0.046875 0.203125 0.09375q0.21875 0.046875 0.53125 0.078125q0.328125 0.015625 0.59375 0.015625l0.046875 0l0 0.890625zm6.203125 0l-4.6875 0l0 -0.890625l0.078125 0q0.265625 0 0.5625 -0.015625q0.296875 -0.03125 0.5 -0.078125q0.21875 -0.046875 0.21875 -0.09375l0 -6.109379q0 -0.59375 -0.125 -0.984375q-0.125 -0.40625 -0.4375 -0.59375q-0.296875 -0.203125 -0.8125 -0.203125q-0.578125 0 -1.109375 0.25q-0.53125 0.234375 -1.046875 0.71875q-0.515625 0.46875 -1.078125 1.171875l0 -1.078125q0.5625 -0.734375 1.109375 -1.234375q0.5625 -0.515625 1.1875 -0.78125q0.625 -0.28125 1.359375 -0.28125q0.84375 0 1.421875 0.3125q0.578125 0.296875 0.875 0.921875q0.3125 0.625 0.3125 1.578125l0 5.453129q0 0.625 0.421875 0.84375q0.4375 0.203125 1.171875 0.203125l0.078125 0l0 0.890625zm3.0748596 -4.90625q0 1.078125 0.25 1.84375q0.25 0.765625 0.71875 1.234375q0.46875 0.46875 1.078125 0.6875q0.609375 0.21875 1.3125 0.21875q0.78125 0 1.359375 -0.265625q0.578125 -0.28125 1.0 -0.703125q0.421875 -0.4375 0.71875 -0.921875l0.890625 0.71875q-0.34375 0.65625 -0.9375 1.1875q-0.578125 0.53125 -1.359375 0.828125q-0.765625 0.28125 -1.71875 0.28125q-1.40625 0 -2.546875 -0.59375q-1.140625 -0.59375 -1.8125 -1.75q-0.65625 -1.15625 -0.65625 -2.78125q0 -1.5937538 0.609375 -2.7656288q0.609375 -1.1875 1.65625 -1.84375q1.0625 -0.671875 2.421875 -0.671875q1.09375 0 1.890625 0.359375q0.8125 0.34375 1.34375 1.0625q0.546875 0.703125 0.828125 1.765625q0.28125 1.0625 0.28125 2.4843788l-7.71875 0l0 -1.0781288l6.484375 0l-0.484375 0.4062538q-0.03125 -1.0625038 -0.1875 -1.7968788q-0.15625 -0.75 -0.46875 -1.203125q-0.3125 -0.453125 -0.796875 -0.65625q-0.484375 -0.203125 -1.171875 -0.203125q-0.65625 0 -1.203125 0.25q-0.546875 0.25 -0.953125 0.78125q-0.40625 0.515625 -0.625 1.296875q-0.203125 0.78125 -0.203125 1.8281288zm8.933502 4.90625l0 -0.890625l0.0625 0q0.484375 0 0.828125 -0.078125q0.359375 -0.09375 0.546875 -0.328125q0.1875 -0.234375 0.1875 -0.640625l0 -6.234379q0 -0.28125 -0.15625 -0.421875q-0.15625 -0.140625 -0.484375 -0.234375q-0.3125 -0.09375 -0.796875 -0.1875l-0.1875 -0.03125l0 -0.96875l2.984375 0l0.234375 2.125l0.0625 0.09375l0 6.718754q0 0.046875 0.21875 0.09375q0.234375 0.046875 0.546875 0.078125q0.328125 0.015625 0.578125 0.015625l0.078125 0l0 0.890625l-4.703125 0zm11.3125 0l-4.703125 0l0 -0.890625l0.046875 0q0.265625 0 0.578125 -0.015625q0.328125 -0.03125 0.5625 -0.078125q0.234375 -0.046875 0.234375 -0.09375l0 -6.109379q0 -0.609375 -0.171875 -1.0q-0.15625 -0.390625 -0.515625 -0.578125q-0.34375 -0.203125 -0.9375 -0.203125q-0.625 0 -1.21875 0.25q-0.578125 0.234375 -1.125 0.71875q-0.546875 0.484375 -1.109375 1.25l0 -1.015625q0.53125 -0.796875 1.125 -1.328125q0.609375 -0.546875 1.28125 -0.828125q0.6875 -0.28125 1.46875 -0.28125q0.921875 0 1.546875 0.3125q0.625 0.296875 0.96875 0.921875q0.34375 0.625 0.34375 1.578125l0 5.453129q0 0.40625 0.1875 0.640625q0.1875 0.234375 0.53125 0.328125q0.359375 0.078125 0.84375 0.078125l0.0625 0l0 0.890625zm7.655487 -2.625q0 -0.453125 -0.21875 -0.75q-0.203125 -0.296875 -0.578125 -0.484375q-0.375 -0.1875 -0.859375 -0.3125q-0.46875 -0.125 -0.96875 -0.234375q-0.609375 -0.140625 -1.21875 -0.328125q-0.59375 -0.1875 -1.078125 -0.5000038q-0.484375 -0.328125 -0.78125 -0.828125q-0.28125 -0.515625 -0.28125 -1.28125q0 -0.859375 0.421875 -1.5q0.4375 -0.65625 1.25 -1.0q0.828125 -0.359375 1.984375 -0.359375q0.921875 0 1.59375 0.109375q0.6875 0.109375 1.140625 0.265625q0.453125 0.140625 0.6875 0.28125l0 2.34375l-1.640625 0l0 -1.9375q0.1875 0 0.328125 0.0625q0.140625 0.046875 0.21875 0.15625q0.078125 0.09375 0.125 0.265625q0.046875 0.171875 0.03125 0.375q-0.21875 -0.265625 -0.59375 -0.453125q-0.375 -0.1875 -0.859375 -0.265625q-0.46875 -0.078125 -1.03125 -0.078125q-1.09375 0 -1.609375 0.40625q-0.515625 0.40625 -0.515625 1.109375q0 0.46875 0.21875 0.765625q0.21875 0.296875 0.578125 0.484375q0.375 0.1875 0.875 0.328125q0.5 0.140625 1.03125 0.25q0.59375 0.140625 1.1875 0.34375q0.609375 0.18750381 1.078125 0.5000038q0.484375 0.3125 0.765625 0.828125q0.296875 0.5 0.296875 1.265625q0 0.875 -0.453125 1.5625q-0.453125 0.671875 -1.328125 1.0625q-0.875 0.375 -2.15625 0.375q-0.9375 0 -1.671875 -0.125q-0.734375 -0.109375 -1.3125 -0.328125q-0.5625 -0.21875 -0.96875 -0.453125l0 -2.453125l1.671875 0l0 2.578125q-0.296875 -0.15625 -0.453125 -0.296875q-0.15625 -0.15625 -0.21875 -0.296875q-0.046875 -0.15625 -0.046875 -0.3125q0 -0.171875 0.03125 -0.34375q0.296875 0.28125 0.734375 0.484375q0.4375 0.203125 1.0 0.328125q0.5625 0.125 1.234375 0.125q0.78125 0 1.296875 -0.1875q0.53125 -0.203125 0.796875 -0.578125q0.265625 -0.390625 0.265625 -0.96875zm5.523773 -9.453129q-0.53125 0 -0.875 -0.296875q-0.328125 -0.296875 -0.328125 -0.890625q0 -0.578125 0.328125 -0.875q0.34375 -0.296875 0.875 -0.296875q0.53125 0 0.875 0.296875q0.34375 0.296875 0.34375 0.875q0 0.59375 -0.34375 0.890625q-0.34375 0.296875 -0.875 0.296875zm0.953125 2.0625l0 8.171879q0 0.578125 0.421875 0.765625q0.4375 0.1875 1.171875 0.1875l0.046875 0l0 0.890625l-4.921875 0l0 -0.890625l0.0625 0q0.71875 0 1.140625 -0.1875q0.4375 -0.1875 0.4375 -0.765625l0 -6.328129q0 -0.40625 -0.359375 -0.546875q-0.34375 -0.140625 -1.09375 -0.296875l-0.1875 -0.03125l0 -0.96875l3.28125 0zm13.140472 5.015629q0 1.578125 -0.625 2.765625q-0.625 1.171875 -1.765625 1.8125q-1.125 0.625 -2.625 0.625q-1.53125 0 -2.671875 -0.625q-1.125 -0.640625 -1.75 -1.8125q-0.625 -1.1875 -0.625 -2.765625q0 -1.1875038 0.359375 -2.1406288q0.359375 -0.96875 1.03125 -1.65625q0.671875 -0.6875 1.59375 -1.046875q0.921875 -0.359375 2.0625 -0.359375q1.140625 0 2.046875 0.359375q0.921875 0.359375 1.59375 1.046875q0.671875 0.6875 1.015625 1.65625q0.359375 0.953125 0.359375 2.1406288zm-8.296875 0q0 1.34375 0.359375 2.265625q0.375 0.90625 1.09375 1.359375q0.734375 0.453125 1.828125 0.453125q1.078125 0 1.796875 -0.453125q0.734375 -0.453125 1.09375 -1.359375q0.375 -0.921875 0.375 -2.265625q0 -1.3125038 -0.375 -2.2031288q-0.359375 -0.90625 -1.09375 -1.375q-0.71875 -0.484375 -1.796875 -0.484375q-1.09375 0 -1.828125 0.484375q-0.71875 0.46875 -1.09375 1.375q-0.359375 0.890625 -0.359375 2.2031288zm9.971741 5.0l0 -0.890625l0.0625 0q0.484375 0 0.828125 -0.078125q0.359375 -0.09375 0.546875 -0.328125q0.1875 -0.234375 0.1875 -0.640625l0 -6.234379q0 -0.28125 -0.15625 -0.421875q-0.15625 -0.140625 -0.484375 -0.234375q-0.3125 -0.09375 -0.796875 -0.1875l-0.1875 -0.03125l0 -0.96875l2.984375 0l0.234375 2.125l0.0625 0.09375l0 6.718754q0 0.046875 0.21875 0.09375q0.234375 0.046875 0.546875 0.078125q0.328125 0.015625 0.578125 0.015625l0.078125 0l0 0.890625l-4.703125 0zm11.3125 0l-4.703125 0l0 -0.890625l0.046875 0q0.265625 0 0.578125 -0.015625q0.328125 -0.03125 0.5625 -0.078125q0.234375 -0.046875 0.234375 -0.09375l0 -6.109379q0 -0.609375 -0.171875 -1.0q-0.15625 -0.390625 -0.515625 -0.578125q-0.34375 -0.203125 -0.9375 -0.203125q-0.625 0 -1.21875 0.25q-0.578125 0.234375 -1.125 0.71875q-0.546875 0.484375 -1.109375 1.25l0 -1.015625q0.53125 -0.796875 1.125 -1.328125q0.609375 -0.546875 1.28125 -0.828125q0.6875 -0.28125 1.46875 -0.28125q0.921875 0 1.546875 0.3125q0.625 0.296875 0.96875 0.921875q0.34375 0.625 0.34375 1.578125l0 5.453129q0 0.40625 0.1875 0.640625q0.1875 0.234375 0.53125 0.328125q0.359375 0.078125 0.84375 0.078125l0.0625 0l0 0.890625z" fill-rule="nonzero"/></g></svg>